# Blender 4.2.0
# www.blender.org
mtllib Sandstone.mtl
o Sandstone
v -0.145040 0.283288 0.405108
v -0.084221 0.288840 0.418852
v -0.020234 0.294320 0.428764
v 0.046417 0.294288 0.428630
v 0.110673 0.289984 0.419238
v 0.172464 0.285560 0.403416
v -0.205405 0.215350 0.397664
v -0.144176 0.219166 0.419661
v -0.084067 0.224492 0.432754
v -0.020050 0.227667 0.442284
v 0.046014 0.227585 0.441239
v 0.109792 0.225285 0.429419
v 0.172419 0.224264 0.415492
v -0.211955 0.158345 0.413319
v -0.150068 0.160791 0.436391
v -0.086499 0.162425 0.446630
v -0.020456 0.162942 0.454456
v 0.046614 0.162729 0.452580
v 0.112201 0.162326 0.443198
v 0.174782 0.161725 0.429703
v 0.237065 0.161286 0.406107
v -0.215129 0.095472 0.420476
v -0.152201 0.095998 0.439129
v -0.087419 0.096220 0.454073
v -0.020363 0.095957 0.456977
v 0.046712 0.095904 0.456660
v 0.112975 0.095991 0.447391
v 0.175571 0.096011 0.432123
v 0.237733 0.095739 0.413281
v -0.274075 0.032720 0.405125
v -0.215155 0.030709 0.430284
v -0.154140 0.029257 0.446475
v -0.087700 0.029102 0.456655
v -0.020376 0.029140 0.460544
v 0.046687 0.029252 0.457326
v 0.113788 0.029278 0.451811
v 0.179040 0.029375 0.441990
v 0.242555 0.030096 0.423519
v -0.265152 -0.027386 0.397346
v -0.209499 -0.031495 0.419253
v -0.151717 -0.035975 0.433316
v -0.086872 -0.037153 0.444624
v -0.020170 -0.037069 0.448717
v 0.046377 -0.036983 0.447227
v 0.112784 -0.037075 0.441573
v 0.177015 -0.036957 0.432460
v 0.239529 -0.036557 0.415861
v -0.271221 -0.094481 0.402565
v -0.210765 -0.097890 0.421906
v -0.151547 -0.102043 0.433616
v -0.087164 -0.103754 0.442343
v -0.020287 -0.103938 0.445423
v 0.046579 -0.103748 0.445231
v 0.112911 -0.103323 0.440492
v 0.176238 -0.102631 0.431129
v 0.238820 -0.102614 0.415483
v -0.212542 -0.166821 0.410458
v -0.148253 -0.164546 0.420056
v -0.085448 -0.165562 0.431853
v -0.020011 -0.167892 0.437419
v 0.046136 -0.167765 0.437533
v 0.111570 -0.165841 0.433835
v 0.174440 -0.164746 0.424859
v 0.238655 -0.166946 0.409207
v -0.146561 -0.223521 0.400852
v -0.083157 -0.223072 0.407379
v -0.019280 -0.226779 0.410818
v 0.045305 -0.226903 0.411489
v 0.109381 -0.224464 0.409455
v 0.172893 -0.224336 0.401292
v -0.201605 0.330066 0.337538
v -0.142376 0.342725 0.357765
v -0.083355 0.352982 0.370005
v -0.020104 0.359430 0.378525
v 0.046258 0.359732 0.378633
v 0.110228 0.355351 0.371927
v 0.169755 0.345038 0.359194
v 0.228609 0.330680 0.337102
v -0.268054 0.275718 0.343045
v -0.207881 0.280188 0.380340
v 0.237519 0.284584 0.376224
v 0.297970 0.282437 0.340871
v -0.317119 0.209643 0.329046
v -0.268230 0.214023 0.363536
v 0.236420 0.224947 0.387844
v 0.297554 0.222000 0.349773
v -0.331551 0.155825 0.343262
v -0.277000 0.158487 0.381362
v 0.301024 0.157196 0.371646
v 0.353219 0.147921 0.324497
v -0.339184 0.093973 0.351170
v -0.277360 0.096001 0.390492
v 0.300778 0.094336 0.377077
v 0.354522 0.090266 0.337439
v -0.346296 0.030615 0.367193
v 0.309810 0.030437 0.392173
v 0.368481 0.030134 0.353436
v -0.336230 -0.032539 0.356758
v 0.307339 -0.036760 0.388048
v 0.368201 -0.036656 0.352391
v -0.343976 -0.098936 0.365147
v 0.307080 -0.103481 0.388146
v 0.369083 -0.103372 0.353824
v -0.339887 -0.164943 0.350957
v -0.274795 -0.164923 0.384703
v 0.306190 -0.168013 0.383478
v 0.364506 -0.165604 0.347076
v -0.335020 -0.225135 0.329074
v -0.275903 -0.226894 0.361863
v -0.212286 -0.227008 0.382280
v 0.238956 -0.228309 0.384280
v 0.303845 -0.228768 0.363689
v 0.360541 -0.225963 0.333531
v -0.277219 -0.286492 0.333150
v -0.212718 -0.288863 0.354964
v -0.145704 -0.288915 0.371047
v -0.082772 -0.290491 0.376508
v -0.019318 -0.293627 0.379567
v 0.045712 -0.294189 0.381313
v 0.110156 -0.292433 0.380149
v 0.173911 -0.291240 0.372632
v 0.240905 -0.293450 0.356804
v 0.305305 -0.290102 0.338324
v -0.141714 -0.339258 0.340549
v -0.081232 -0.341575 0.347943
v -0.018928 -0.345161 0.352111
v 0.045891 -0.345496 0.352891
v 0.110077 -0.343758 0.350806
v 0.171343 -0.342073 0.340915
v -0.139570 0.382892 0.294620
v -0.081460 0.397486 0.302610
v -0.019502 0.405457 0.310580
v 0.045811 0.405370 0.310865
v 0.108983 0.399611 0.304526
v 0.168725 0.386360 0.297744
v -0.252971 0.317331 0.296708
v -0.198394 0.358386 0.288630
v 0.229943 0.365656 0.294456
v 0.280520 0.319333 0.296941
v -0.318908 0.269408 0.304911
v 0.342534 0.284492 0.299241
v -0.351605 0.213146 0.289899
v 0.351500 0.215893 0.299149
v -0.380809 0.156134 0.293725
v 0.403529 0.145001 0.274508
v -0.395161 0.091518 0.292399
v 0.406804 0.089954 0.285785
v -0.407913 0.027723 0.301636
v 0.428533 0.030557 0.297797
v -0.402846 -0.036657 0.297555
v 0.431932 -0.036785 0.297784
v -0.411385 -0.102196 0.305111
v 0.431439 -0.103269 0.297743
v -0.404745 -0.168470 0.299961
v 0.423072 -0.164977 0.293312
v -0.392262 -0.228755 0.282921
v 0.415039 -0.227062 0.289323
v -0.341126 -0.288296 0.294336
v 0.362046 -0.287231 0.310034
v 0.410187 -0.285698 0.271567
v -0.277542 -0.341071 0.288677
v -0.204865 -0.350178 0.313096
v -0.144227 -0.363991 0.298980
v -0.083629 -0.370782 0.300194
v -0.019703 -0.374707 0.302196
v 0.046353 -0.376188 0.302944
v 0.111817 -0.374192 0.301842
v 0.173485 -0.369198 0.299445
v 0.232105 -0.357241 0.312576
v 0.306678 -0.347040 0.297735
v 0.361902 -0.335223 0.273409
v -0.202587 0.381258 0.230397
v -0.142647 0.406128 0.234346
v -0.083217 0.415925 0.239386
v -0.019999 0.424399 0.244144
v 0.046299 0.426223 0.244807
v 0.110585 0.419563 0.240888
v 0.171617 0.408396 0.236668
v 0.234388 0.386411 0.234971
v -0.270129 0.341492 0.233796
v 0.300584 0.347881 0.236060
v -0.332829 0.289900 0.235331
v 0.369252 0.301754 0.240486
v -0.387719 0.227263 0.226568
v 0.405907 0.215265 0.229016
v -0.420172 0.155408 0.232994
v 0.435381 0.149095 0.227435
v -0.439299 0.089539 0.229232
v 0.447778 0.092318 0.229484
v -0.453429 0.026455 0.233051
v 0.473183 0.030837 0.233222
v -0.451995 -0.037295 0.231922
v 0.479380 -0.036645 0.231376
v -0.456287 -0.101823 0.235369
v 0.478377 -0.102391 0.231074
v -0.450318 -0.169236 0.237010
v 0.467373 -0.164496 0.230747
v -0.427991 -0.230660 0.232557
v 0.457332 -0.230420 0.235504
v -0.403492 -0.280381 0.233729
v 0.439033 -0.286782 0.228635
v -0.334669 -0.347494 0.237641
v -0.275831 -0.366867 0.232920
v -0.214250 -0.383600 0.238948
v 0.307835 -0.381726 0.237079
v 0.366399 -0.360705 0.232919
v 0.408739 -0.330825 0.236745
v -0.147891 -0.394547 0.234878
v -0.084106 -0.403374 0.234909
v -0.019403 -0.405928 0.236757
v 0.046483 -0.407009 0.237505
v 0.112146 -0.406039 0.236604
v 0.176230 -0.403485 0.235375
v 0.240165 -0.396238 0.235593
v -0.207973 0.394236 0.171548
v -0.147251 0.413461 0.174777
v -0.086472 0.427221 0.177902
v -0.020975 0.436644 0.179573
v 0.046903 0.437817 0.179768
v 0.113321 0.432488 0.178730
v 0.176757 0.419902 0.176275
v 0.239089 0.402167 0.173015
v -0.333596 0.313602 0.169360
v -0.274461 0.356725 0.171688
v 0.304602 0.373559 0.172040
v 0.364361 0.323423 0.171434
v -0.392387 0.267513 0.170096
v 0.420924 0.274315 0.171914
v -0.419744 0.213002 0.169301
v 0.435882 0.215078 0.165320
v -0.447264 0.154418 0.171470
v 0.465104 0.152701 0.167259
v -0.464225 0.091375 0.170682
v 0.479571 0.092061 0.168838
v -0.478504 0.028223 0.173924
v 0.498899 0.029860 0.173123
v -0.481340 -0.036842 0.174456
v 0.504940 -0.037027 0.174264
v -0.484883 -0.103023 0.175868
v 0.508333 -0.103000 0.175316
v -0.476286 -0.169327 0.174414
v 0.497725 -0.166857 0.172849
v -0.457232 -0.230666 0.170168
v 0.486670 -0.231405 0.172509
v -0.436229 -0.282603 0.163287
v 0.467416 -0.290021 0.169500
v -0.388425 -0.327603 0.173863
v -0.339303 -0.365084 0.167384
v 0.372162 -0.382627 0.174204
v 0.433567 -0.348207 0.172804
v -0.273920 -0.390371 0.166608
v -0.212309 -0.406425 0.170016
v -0.149608 -0.415790 0.172043
v -0.085736 -0.424836 0.175050
v -0.020137 -0.429762 0.178282
v 0.046252 -0.431235 0.179362
v 0.112754 -0.431458 0.179173
v 0.178411 -0.429125 0.177295
v 0.242946 -0.421776 0.174094
v 0.307288 -0.403185 0.172668
v -0.214327 0.401467 0.110451
v -0.150532 0.417900 0.111345
v -0.087371 0.432367 0.112031
v -0.020897 0.439805 0.112204
v 0.047138 0.441163 0.112347
v 0.114277 0.437035 0.112382
v 0.179689 0.426713 0.111263
v 0.238797 0.409257 0.106942
v 0.297620 0.385576 0.103207
v -0.339456 0.329230 0.108002
v -0.279817 0.365377 0.110049
v 0.362715 0.341507 0.105549
v -0.399041 0.275048 0.107913
v 0.431938 0.290836 0.110098
v -0.441278 0.211979 0.108504
v 0.458773 0.219978 0.107509
v -0.461494 0.153915 0.108313
v 0.487865 0.156912 0.107177
v -0.478421 0.094260 0.109914
v 0.499476 0.094261 0.108532
v -0.494456 0.029998 0.111897
v 0.515516 0.030399 0.112036
v -0.501006 -0.036729 0.112232
v 0.524300 -0.036660 0.113509
v -0.502672 -0.103943 0.112628
v 0.528527 -0.103519 0.113860
v -0.497547 -0.170990 0.112519
v 0.517142 -0.169716 0.111725
v -0.475938 -0.231094 0.108512
v 0.504983 -0.234651 0.109802
v -0.451650 -0.285030 0.104234
v 0.485636 -0.295173 0.106467
v -0.409051 -0.342531 0.107494
v -0.348895 -0.379938 0.108489
v 0.447959 -0.359180 0.098604
v -0.276345 -0.403509 0.105429
v -0.214067 -0.418026 0.107992
v -0.153029 -0.430768 0.111540
v -0.087208 -0.436274 0.112420
v -0.020260 -0.440899 0.113659
v 0.046190 -0.442660 0.114233
v 0.112772 -0.442650 0.114115
v 0.179257 -0.440016 0.113175
v 0.245295 -0.434296 0.111280
v 0.310114 -0.424361 0.109898
v 0.372030 -0.398723 0.107498
v -0.214962 0.401258 0.045875
v -0.150783 0.417675 0.045367
v -0.087133 0.430680 0.044860
v -0.020909 0.438458 0.044521
v 0.046785 0.439699 0.044548
v 0.114053 0.435904 0.044901
v 0.180225 0.426889 0.045235
v 0.239982 0.410152 0.044449
v 0.299270 0.387549 0.042173
v -0.342063 0.332661 0.044446
v -0.281589 0.367438 0.045325
v 0.368264 0.345681 0.043541
v -0.403659 0.276356 0.044392
v 0.444071 0.292138 0.044775
v -0.449648 0.211095 0.044750
v 0.468387 0.213539 0.043022
v -0.467902 0.154762 0.044387
v 0.502452 0.158161 0.044108
v -0.484783 0.095657 0.044939
v 0.510225 0.096076 0.044793
v -0.504680 0.030479 0.045523
v 0.525632 0.030951 0.045964
v -0.512412 -0.036692 0.045601
v 0.532926 -0.036241 0.046034
v -0.510844 -0.104026 0.045513
v 0.537974 -0.103453 0.046221
v -0.505996 -0.171435 0.045695
v 0.527972 -0.170817 0.045732
v -0.484726 -0.232653 0.044958
v 0.515942 -0.237183 0.044949
v -0.458508 -0.287551 0.043891
v 0.494582 -0.294824 0.043049
v -0.417054 -0.348613 0.044850
v -0.352172 -0.382734 0.045025
v 0.436800 -0.372641 0.041170
v 0.472736 -0.342573 0.040863
v -0.280535 -0.408708 0.044248
v -0.216685 -0.423991 0.044881
v -0.153874 -0.435064 0.045706
v -0.087525 -0.441882 0.045638
v -0.020163 -0.445744 0.046286
v 0.046211 -0.448198 0.046838
v 0.112720 -0.448407 0.046805
v 0.179475 -0.445976 0.046271
v 0.247157 -0.439797 0.045566
v 0.312977 -0.430237 0.044883
v 0.372380 -0.405656 0.043502
v -0.210486 0.396205 -0.017117
v -0.148161 0.413592 -0.018807
v -0.086260 0.424406 -0.021113
v -0.020819 0.431551 -0.022387
v 0.046381 0.433400 -0.022660
v 0.113333 0.430104 -0.022055
v 0.179086 0.421374 -0.020596
v 0.242501 0.404354 -0.019490
v -0.340893 0.330935 -0.019419
v -0.278095 0.363869 -0.018939
v 0.307586 0.381475 -0.020941
v 0.371776 0.340870 -0.019935
v -0.401384 0.274857 -0.017709
v 0.443451 0.290741 -0.020353
v -0.450637 0.212135 -0.016605
v 0.471687 0.214855 -0.018900
v -0.468088 0.154480 -0.018421
v 0.503700 0.158823 -0.019902
v -0.482265 0.094958 -0.020628
v 0.512056 0.096430 -0.021066
v -0.506133 0.030868 -0.022075
v 0.524782 0.030798 -0.022000
v -0.513282 -0.036632 -0.022032
v 0.529657 -0.036502 -0.021724
v -0.511392 -0.104435 -0.022077
v 0.542070 -0.103220 -0.022016
v -0.507404 -0.171886 -0.022272
v 0.530274 -0.170912 -0.021772
v -0.482011 -0.232008 -0.020368
v 0.519470 -0.237768 -0.021404
v -0.456747 -0.287797 -0.019659
v 0.497214 -0.296120 -0.019812
v -0.414728 -0.346968 -0.020418
v -0.350498 -0.380845 -0.020372
v 0.437187 -0.373676 -0.017730
v 0.473185 -0.343177 -0.017460
v -0.279937 -0.407062 -0.019153
v -0.215975 -0.422332 -0.019913
v -0.153675 -0.434095 -0.021733
v -0.087716 -0.440719 -0.022097
v -0.020319 -0.444668 -0.021386
v 0.046202 -0.447159 -0.021359
v 0.112705 -0.447439 -0.021509
v 0.179594 -0.445077 -0.021619
v 0.247414 -0.439322 -0.021717
v 0.313058 -0.430056 -0.020960
v 0.372610 -0.405758 -0.019864
v -0.205732 0.382124 -0.077371
v -0.144372 0.404801 -0.079419
v -0.083948 0.414075 -0.084012
v -0.020100 0.420862 -0.088205
v 0.046241 0.422568 -0.089157
v 0.111983 0.419731 -0.087235
v 0.175897 0.409871 -0.084112
v 0.241304 0.393916 -0.084189
v -0.336892 0.318638 -0.080631
v -0.274291 0.352709 -0.080992
v 0.309016 0.372329 -0.085606
v 0.366287 0.332907 -0.082752
v -0.396625 0.270800 -0.077126
v 0.432356 0.290204 -0.085828
v -0.443537 0.213226 -0.076412
v 0.465200 0.223106 -0.085149
v -0.461090 0.151819 -0.078805
v 0.493394 0.159696 -0.085225
v -0.474290 0.091741 -0.083449
v 0.506331 0.094932 -0.086449
v -0.496326 0.030243 -0.088434
v 0.513966 0.030189 -0.088130
v -0.506132 -0.036546 -0.089896
v 0.519829 -0.036637 -0.088375
v -0.501529 -0.104071 -0.089106
v 0.534357 -0.103375 -0.090308
v -0.494723 -0.170766 -0.088321
v 0.525241 -0.170773 -0.089077
v -0.467320 -0.230205 -0.083322
v 0.512897 -0.236188 -0.087480
v -0.446002 -0.288911 -0.082372
v 0.489926 -0.298045 -0.084447
v -0.403432 -0.341055 -0.082574
v -0.345379 -0.371528 -0.083964
v 0.447276 -0.359607 -0.075216
v -0.278842 -0.399407 -0.083397
v -0.214122 -0.414478 -0.083279
v -0.152348 -0.426354 -0.086966
v -0.087177 -0.433653 -0.087953
v -0.020467 -0.437686 -0.087644
v 0.046106 -0.440369 -0.088552
v 0.112794 -0.440667 -0.089014
v 0.179448 -0.438260 -0.088463
v 0.245598 -0.433271 -0.087619
v 0.308931 -0.418999 -0.085524
v 0.372435 -0.398426 -0.084254
v -0.143137 0.384208 -0.141922
v -0.082374 0.398296 -0.147153
v -0.019153 0.403086 -0.152496
v 0.046022 0.403896 -0.153853
v 0.111006 0.401340 -0.151376
v 0.175524 0.392873 -0.148603
v -0.276690 0.339150 -0.146533
v -0.208666 0.363823 -0.143602
v 0.241409 0.377241 -0.149853
v 0.303588 0.349241 -0.146929
v 0.363211 0.318925 -0.144828
v -0.388206 0.254603 -0.137741
v -0.334578 0.295109 -0.142531
v 0.415466 0.272665 -0.143804
v -0.424453 0.211663 -0.138949
v 0.450683 0.223305 -0.147313
v -0.445995 0.149189 -0.141657
v 0.477265 0.156703 -0.147594
v -0.461457 0.086191 -0.143166
v 0.492563 0.089818 -0.145933
v -0.481857 0.027651 -0.150535
v 0.498088 0.028441 -0.147504
v -0.487441 -0.036924 -0.152866
v 0.503563 -0.037101 -0.150136
v -0.481006 -0.101927 -0.150655
v 0.514291 -0.103409 -0.153833
v -0.476379 -0.168158 -0.150674
v 0.505214 -0.168353 -0.150402
v -0.447368 -0.229625 -0.145157
v 0.497016 -0.233120 -0.148507
v -0.420608 -0.289452 -0.143885
v 0.471177 -0.292131 -0.145831
v -0.380870 -0.334992 -0.140171
v -0.338932 -0.356919 -0.143632
v -0.280086 -0.381637 -0.149335
v 0.373814 -0.384564 -0.151453
v 0.431847 -0.348495 -0.147782
v -0.214674 -0.399017 -0.148541
v -0.150210 -0.410217 -0.149858
v -0.084153 -0.417227 -0.147877
v -0.019199 -0.423235 -0.148299
v 0.046308 -0.428156 -0.151505
v 0.112622 -0.428906 -0.152204
v 0.177818 -0.426682 -0.150380
v 0.241635 -0.416710 -0.147997
v 0.308142 -0.402338 -0.149842
v -0.271360 0.308488 -0.206295
v -0.211750 0.339325 -0.211610
v -0.146437 0.354158 -0.209843
v -0.084166 0.367588 -0.214676
v -0.019742 0.374052 -0.219655
v 0.046249 0.376192 -0.221263
v 0.112052 0.374336 -0.219474
v 0.175963 0.365415 -0.214379
v 0.238020 0.347356 -0.211106
v 0.302848 0.325194 -0.211517
v -0.336007 0.265106 -0.206854
v 0.364394 0.293903 -0.211700
v -0.396074 0.213279 -0.196904
v 0.415606 0.231647 -0.202333
v -0.417505 0.144036 -0.201150
v 0.449935 0.153356 -0.208990
v -0.436731 0.081383 -0.202131
v 0.464795 0.084918 -0.202353
v -0.459259 0.025051 -0.211330
v 0.472721 0.026338 -0.202569
v -0.456864 -0.037399 -0.210005
v 0.480099 -0.037871 -0.208320
v -0.455650 -0.100237 -0.209957
v 0.485253 -0.103549 -0.212940
v -0.447814 -0.163759 -0.210343
v 0.479360 -0.166589 -0.209507
v -0.416849 -0.224977 -0.206876
v 0.470718 -0.231389 -0.207571
v -0.383981 -0.288205 -0.208516
v 0.441478 -0.287915 -0.203026
v -0.335009 -0.337987 -0.195288
v -0.275334 -0.355903 -0.207358
v -0.214561 -0.370775 -0.213251
v -0.150270 -0.385279 -0.215124
v 0.307217 -0.382168 -0.214161
v 0.364641 -0.358276 -0.207033
v 0.405803 -0.334973 -0.202880
v -0.082497 -0.396099 -0.209291
v -0.017767 -0.401700 -0.207547
v 0.046849 -0.403252 -0.209346
v 0.112115 -0.403056 -0.209262
v 0.175747 -0.401513 -0.207521
v 0.238946 -0.393378 -0.207973
v -0.147907 0.323695 -0.275192
v -0.084634 0.335104 -0.279952
v -0.019855 0.339684 -0.284065
v 0.046195 0.340637 -0.285088
v 0.111802 0.338365 -0.282317
v 0.174726 0.332238 -0.274893
v 0.235492 0.317407 -0.271209
v -0.273144 0.267154 -0.272834
v -0.207541 0.294653 -0.268762
v 0.302015 0.290698 -0.272103
v 0.346420 0.264149 -0.253853
v -0.334678 0.213519 -0.270030
v 0.374034 0.218546 -0.270792
v -0.377424 0.151972 -0.255116
v 0.406521 0.151952 -0.271805
v -0.391695 0.082220 -0.263850
v 0.425802 0.087860 -0.271077
v -0.407509 0.025731 -0.276938
v 0.428150 0.027459 -0.271666
v -0.409945 -0.036519 -0.279386
v 0.432599 -0.037828 -0.277010
v -0.408572 -0.100478 -0.276684
v 0.441193 -0.103677 -0.284969
v -0.398361 -0.160414 -0.270536
v 0.430803 -0.166255 -0.273774
v -0.375653 -0.217624 -0.265070
v 0.425052 -0.230523 -0.268210
v -0.333853 -0.274264 -0.270262
v -0.276083 -0.287219 -0.297622
v 0.360206 -0.285806 -0.288936
v 0.402910 -0.284633 -0.254917
v -0.279590 -0.324473 -0.249474
v -0.214258 -0.340008 -0.271740
v -0.150417 -0.347094 -0.280350
v -0.083957 -0.354809 -0.279088
v -0.018928 -0.361065 -0.280022
v 0.046568 -0.362888 -0.281664
v 0.112687 -0.362884 -0.281856
v 0.177565 -0.361077 -0.279909
v 0.241076 -0.354417 -0.276176
v 0.303564 -0.340814 -0.268056
v 0.367013 -0.327678 -0.249532
v -0.203120 0.255068 -0.318664
v -0.144607 0.273937 -0.324763
v -0.081502 0.279483 -0.335475
v -0.018724 0.283385 -0.343200
v 0.045588 0.285755 -0.345536
v 0.110950 0.286489 -0.343251
v 0.175500 0.285056 -0.333802
v 0.232731 0.267825 -0.321079
v -0.259124 0.211137 -0.325211
v -0.204011 0.211769 -0.348090
v -0.145144 0.217810 -0.362742
v 0.176201 0.224214 -0.373060
v 0.235637 0.220033 -0.355039
v 0.302128 0.220327 -0.324095
v -0.320056 0.152510 -0.309724
v -0.266681 0.145724 -0.343662
v 0.300456 0.154084 -0.353848
v 0.350580 0.151446 -0.322498
v -0.332552 0.085164 -0.319517
v -0.272018 0.088801 -0.359298
v 0.303806 0.092283 -0.368746
v 0.365921 0.090370 -0.329120
v -0.340419 0.027720 -0.336942
v 0.365630 0.027404 -0.336228
v -0.341807 -0.033513 -0.338760
v 0.366357 -0.038644 -0.339905
v -0.342457 -0.099199 -0.331209
v -0.278345 -0.098247 -0.369714
v 0.372592 -0.104414 -0.343735
v -0.340006 -0.161058 -0.323906
v -0.279206 -0.163994 -0.355834
v 0.305819 -0.168609 -0.366292
v 0.370992 -0.168325 -0.332113
v -0.331677 -0.218390 -0.305695
v -0.277425 -0.227363 -0.331838
v -0.211459 -0.224669 -0.355395
v 0.241237 -0.229377 -0.365772
v 0.305476 -0.230954 -0.343333
v 0.366913 -0.231353 -0.315385
v -0.213915 -0.287694 -0.319294
v -0.148242 -0.286740 -0.336639
v -0.083449 -0.290400 -0.340582
v -0.018811 -0.295573 -0.340641
v 0.046305 -0.299175 -0.342620
v 0.111307 -0.298778 -0.343691
v 0.175707 -0.294911 -0.339149
v 0.241254 -0.290601 -0.327862
v 0.304218 -0.288615 -0.313768
v -0.079752 0.217078 -0.378594
v -0.017301 0.217247 -0.387209
v 0.045037 0.218033 -0.388018
v 0.109394 0.219674 -0.382516
v -0.205927 0.148557 -0.372521
v -0.145635 0.153099 -0.390057
v -0.081768 0.155458 -0.400516
v -0.018692 0.157904 -0.407647
v 0.045621 0.158684 -0.408802
v 0.110531 0.158063 -0.404948
v 0.175389 0.157481 -0.395989
v 0.237747 0.156285 -0.381267
v -0.208458 0.088191 -0.386865
v -0.148558 0.091472 -0.403322
v -0.085612 0.094838 -0.415167
v -0.020240 0.096445 -0.422528
v 0.046377 0.096807 -0.423972
v 0.112700 0.095915 -0.419044
v 0.177724 0.094123 -0.411108
v 0.239411 0.091753 -0.394683
v -0.271375 0.029804 -0.376471
v -0.212681 0.028834 -0.404828
v -0.152594 0.029132 -0.417123
v -0.087489 0.029983 -0.426887
v -0.020559 0.030208 -0.433767
v 0.046505 0.030184 -0.434496
v 0.113467 0.030107 -0.428797
v 0.179105 0.029285 -0.418366
v 0.239358 0.027266 -0.403117
v 0.298229 0.026510 -0.379179
v -0.271106 -0.030078 -0.375944
v -0.211249 -0.032841 -0.397977
v -0.152232 -0.036203 -0.414235
v -0.087600 -0.037314 -0.427827
v -0.020521 -0.037169 -0.433282
v 0.046365 -0.037147 -0.435290
v 0.113443 -0.037144 -0.430338
v 0.179082 -0.037087 -0.417823
v 0.238742 -0.038179 -0.403223
v 0.294296 -0.040090 -0.379397
v -0.214825 -0.099179 -0.396625
v -0.151686 -0.101801 -0.413541
v -0.087215 -0.103924 -0.424304
v -0.020689 -0.104465 -0.430279
v 0.046423 -0.104601 -0.433803
v 0.113448 -0.104192 -0.429020
v 0.179113 -0.103131 -0.418839
v 0.241907 -0.103253 -0.405748
v 0.303158 -0.105296 -0.385681
v -0.212500 -0.162258 -0.381950
v -0.146473 -0.161167 -0.399229
v -0.084045 -0.164223 -0.408366
v -0.019614 -0.167373 -0.412977
v 0.046165 -0.168253 -0.414816
v 0.111379 -0.167284 -0.413685
v 0.176136 -0.166055 -0.407180
v 0.242416 -0.166628 -0.390481
v -0.144310 -0.220631 -0.376604
v -0.081361 -0.222888 -0.384849
v -0.018388 -0.229189 -0.389369
v 0.045819 -0.231618 -0.390584
v 0.109262 -0.229758 -0.389319
v 0.173129 -0.228121 -0.382783
vn -0.2992 0.4140 0.8597
vn -0.2052 0.4114 0.8880
vn -0.0820 0.4137 0.9067
vn 0.0810 0.4020 0.9120
vn 0.2039 0.3836 0.9007
vn 0.3159 0.3835 0.8678
vn -0.4060 0.2648 0.8746
vn -0.2785 0.2425 0.9293
vn -0.1796 0.2164 0.9597
vn -0.0662 0.1944 0.9787
vn 0.0906 0.1834 0.9788
vn 0.1947 0.1874 0.9628
vn 0.2997 0.2019 0.9324
vn -0.3854 0.2028 0.9002
vn -0.2636 0.1781 0.9480
vn -0.1510 0.1540 0.9765
vn -0.0445 0.1267 0.9909
vn 0.0856 0.1213 0.9889
vn 0.1851 0.1324 0.9738
vn 0.2816 0.1463 0.9483
vn 0.4189 0.1700 0.8920
vn -0.3583 0.1270 0.9249
vn -0.2423 0.0929 0.9657
vn -0.1281 0.0694 0.9893
vn -0.0219 0.0505 0.9985
vn 0.0732 0.0455 0.9963
vn 0.1665 0.0658 0.9838
vn 0.2549 0.0991 0.9619
vn 0.3864 0.1355 0.9123
vn -0.4438 0.0010 0.8961
vn -0.3317 -0.0236 0.9431
vn -0.2193 -0.0466 0.9745
vn -0.1152 -0.0618 0.9914
vn -0.0120 -0.0660 0.9977
vn 0.0637 -0.0615 0.9961
vn 0.1328 -0.0381 0.9904
vn 0.2232 -0.0030 0.9748
vn 0.3552 0.0380 0.9340
vn -0.4175 -0.0504 0.9073
vn -0.2961 -0.0719 0.9524
vn -0.1955 -0.0927 0.9763
vn -0.1070 -0.1061 0.9886
vn -0.0161 -0.1059 0.9942
vn 0.0521 -0.0948 0.9941
vn 0.1121 -0.0859 0.9900
vn 0.2016 -0.0796 0.9762
vn 0.3242 -0.0631 0.9439
vn -0.4046 -0.0377 0.9137
vn -0.2663 -0.0676 0.9615
vn -0.1747 -0.0945 0.9801
vn -0.1094 -0.1000 0.9890
vn -0.0269 -0.0874 0.9958
vn 0.0394 -0.0745 0.9964
vn 0.1082 -0.0653 0.9920
vn 0.1940 -0.0598 0.9792
vn 0.3062 -0.0504 0.9506
vn -0.2574 -0.2756 0.9262
vn -0.1624 -0.2744 0.9478
vn -0.1119 -0.2736 0.9553
vn -0.0389 -0.2728 0.9613
vn 0.0290 -0.2627 0.9645
vn 0.0989 -0.2487 0.9635
vn 0.1813 -0.2363 0.9546
vn 0.2811 -0.2223 0.9336
vn -0.1560 -0.3832 0.9104
vn -0.0943 -0.3970 0.9130
vn -0.0437 -0.4116 0.9103
vn 0.0161 -0.4052 0.9141
vn 0.0833 -0.3911 0.9166
vn 0.1646 -0.3782 0.9110
vn -0.4264 0.7156 0.5532
vn -0.3041 0.7162 0.6281
vn -0.2128 0.7189 0.6617
vn -0.0859 0.7258 0.6826
vn 0.0653 0.7247 0.6860
vn 0.1925 0.7126 0.6747
vn 0.3010 0.6935 0.6546
vn 0.4200 0.6826 0.5980
vn -0.5315 0.4908 0.6904
vn -0.4341 0.4427 0.7846
vn 0.4475 0.4149 0.7922
vn 0.5615 0.4352 0.7038
vn -0.6270 0.3117 0.7139
vn -0.5186 0.2910 0.8039
vn 0.4423 0.2081 0.8724
vn 0.5988 0.1963 0.7765
vn -0.6279 0.2537 0.7358
vn -0.4994 0.2337 0.8343
vn 0.5762 0.1907 0.7948
vn 0.6837 0.2192 0.6961
vn -0.6237 0.1946 0.7571
vn -0.4732 0.1655 0.8653
vn 0.5358 0.1812 0.8247
vn 0.6352 0.2401 0.7341
vn -0.6050 0.0257 0.7958
vn 0.4915 0.0952 0.8657
vn 0.6098 0.1549 0.7773
vn -0.5830 -0.0133 0.8124
vn 0.4509 -0.0333 0.8919
vn 0.5898 -0.0030 0.8075
vn -0.5637 -0.0167 0.8258
vn 0.4357 -0.0435 0.8991
vn 0.5859 -0.0533 0.8086
vn -0.5290 -0.2523 0.8102
vn -0.3928 -0.2688 0.8794
vn 0.4187 -0.1954 0.8869
vn 0.5796 -0.1657 0.7979
vn -0.5234 -0.3567 0.7738
vn -0.3833 -0.3660 0.8480
vn -0.2580 -0.3822 0.8873
vn 0.2505 -0.3603 0.8986
vn 0.3812 -0.3199 0.8674
vn 0.5472 -0.2561 0.7969
vn -0.3804 -0.4914 0.7835
vn -0.2630 -0.4834 0.8350
vn -0.1616 -0.4668 0.8695
vn -0.0850 -0.4544 0.8867
vn -0.0461 -0.4486 0.8925
vn 0.0079 -0.4472 0.8944
vn 0.0796 -0.4489 0.8900
vn 0.1651 -0.4582 0.8734
vn 0.2348 -0.4704 0.8506
vn 0.3479 -0.4497 0.8226
vn -0.1378 -0.6912 0.7094
vn -0.0919 -0.6908 0.7172
vn -0.0488 -0.6906 0.7216
vn 0.0088 -0.6912 0.7226
vn 0.0774 -0.6881 0.7215
vn 0.1337 -0.6845 0.7167
vn -0.3071 0.8553 0.4173
vn -0.2024 0.8861 0.4170
vn -0.0846 0.9008 0.4260
vn 0.0554 0.9004 0.4315
vn 0.1755 0.8868 0.4276
vn 0.2805 0.8552 0.4358
vn -0.5065 0.7380 0.4458
vn -0.4298 0.8054 0.4082
vn 0.4327 0.7748 0.4610
vn 0.4794 0.7296 0.4876
vn -0.6484 0.5214 0.5548
vn 0.6586 0.4527 0.6011
vn -0.7367 0.3925 0.5507
vn 0.7322 0.2275 0.6419
vn -0.7479 0.2821 0.6009
vn 0.7479 0.2467 0.6162
vn -0.7663 0.2062 0.6084
vn 0.7260 0.2731 0.6312
vn -0.7694 0.0598 0.6359
vn 0.7364 0.1957 0.6476
vn -0.7542 0.0205 0.6563
vn 0.7455 0.0150 0.6664
vn -0.7452 0.0088 0.6668
vn 0.7450 -0.0718 0.6632
vn -0.7078 -0.2267 0.6691
vn 0.7337 -0.1411 0.6646
vn -0.6719 -0.3569 0.6490
vn 0.7050 -0.2080 0.6780
vn -0.5476 -0.5124 0.6615
vn 0.5091 -0.4121 0.7556
vn 0.6681 -0.3787 0.6405
vn -0.3406 -0.7348 0.5865
vn -0.2156 -0.7580 0.6157
vn -0.1033 -0.8761 0.4710
vn -0.0881 -0.8740 0.4779
vn -0.0438 -0.8787 0.4753
vn 0.0061 -0.8791 0.4765
vn 0.0578 -0.8706 0.4886
vn 0.0766 -0.8635 0.4984
vn 0.1702 -0.7513 0.6377
vn 0.3066 -0.7035 0.6411
vn 0.4530 -0.6480 0.6123
vn -0.4245 0.8579 0.2896
vn -0.2889 0.9227 0.2553
vn -0.1813 0.9543 0.2374
vn -0.0838 0.9686 0.2341
vn 0.0440 0.9695 0.2413
vn 0.1557 0.9547 0.2538
vn 0.2571 0.9277 0.2709
vn 0.3960 0.8600 0.3219
vn -0.5305 0.7865 0.3162
vn 0.5018 0.7845 0.3642
vn -0.6507 0.6663 0.3643
vn 0.6967 0.5667 0.4398
vn -0.7741 0.4782 0.4148
vn 0.8084 0.3256 0.4904
vn -0.8337 0.3093 0.4574
vn 0.8231 0.2780 0.4951
vn -0.8574 0.2210 0.4648
vn 0.8227 0.2761 0.4969
vn -0.8676 0.0971 0.4878
vn 0.8487 0.2087 0.4860
vn -0.8627 0.0359 0.5045
vn 0.8661 0.0354 0.4986
vn -0.8678 0.0026 0.4970
vn 0.8537 -0.0748 0.5153
vn -0.8516 -0.2078 0.4812
vn 0.8444 -0.1374 0.5178
vn -0.8100 -0.3501 0.4704
vn 0.8324 -0.2088 0.5134
vn -0.7142 -0.5059 0.4838
vn 0.7976 -0.3676 0.4782
vn -0.4746 -0.7713 0.4241
vn -0.2774 -0.8961 0.3466
vn -0.1993 -0.9083 0.3678
vn 0.2706 -0.8701 0.4119
vn 0.4039 -0.8111 0.4231
vn 0.6237 -0.6043 0.4959
vn -0.1285 -0.9175 0.3763
vn -0.0952 -0.9156 0.3907
vn -0.0427 -0.9147 0.4018
vn -0.0025 -0.9124 0.4094
vn 0.0365 -0.9058 0.4221
vn 0.0777 -0.8995 0.4299
vn 0.1571 -0.8941 0.4194
vn -0.3965 0.9017 0.1723
vn -0.2642 0.9550 0.1349
vn -0.1743 0.9770 0.1226
vn -0.0788 0.9896 0.1201
vn 0.0317 0.9922 0.1204
vn 0.1352 0.9814 0.1365
vn 0.2403 0.9577 0.1585
vn 0.3540 0.9161 0.1885
vn -0.6088 0.7505 0.2572
vn -0.5263 0.8227 0.2150
vn 0.5037 0.8383 0.2085
vn 0.6343 0.7270 0.2630
vn -0.7407 0.6050 0.2921
vn 0.8132 0.4679 0.3461
vn -0.8535 0.4267 0.2992
vn 0.8731 0.3129 0.3738
vn -0.8963 0.3181 0.3089
vn 0.8710 0.2988 0.3899
vn -0.9207 0.2393 0.3082
vn 0.8931 0.2587 0.3681
vn -0.9330 0.1344 0.3339
vn 0.9175 0.1999 0.3439
vn -0.9326 0.0475 0.3579
vn 0.9312 0.0672 0.3583
vn -0.9328 -0.0222 0.3598
vn 0.9216 -0.0633 0.3828
vn -0.9133 -0.2104 0.3487
vn 0.9120 -0.1586 0.3782
vn -0.8712 -0.3596 0.3341
vn 0.9034 -0.2310 0.3612
vn -0.7961 -0.5124 0.3220
vn 0.8535 -0.3938 0.3411
vn -0.6336 -0.6983 0.3330
vn -0.4316 -0.8598 0.2729
vn 0.4024 -0.8664 0.2956
vn 0.6693 -0.6696 0.3221
vn -0.2850 -0.9234 0.2571
vn -0.2079 -0.9432 0.2592
vn -0.1441 -0.9526 0.2679
vn -0.0999 -0.9580 0.2687
vn -0.0485 -0.9607 0.2733
vn -0.0105 -0.9594 0.2818
vn 0.0232 -0.9575 0.2875
vn 0.0762 -0.9541 0.2897
vn 0.1650 -0.9411 0.2952
vn 0.2706 -0.9146 0.3005
vn -0.3732 0.9249 0.0726
vn -0.2410 0.9695 0.0440
vn -0.1695 0.9852 0.0264
vn -0.0698 0.9974 0.0169
vn 0.0231 0.9996 0.0169
vn 0.1135 0.9931 0.0311
vn 0.2213 0.9738 0.0513
vn 0.3287 0.9423 0.0640
vn 0.4686 0.8792 0.0862
vn -0.5927 0.7944 0.1329
vn -0.5035 0.8568 0.1116
vn 0.5774 0.8043 0.1405
vn -0.7491 0.6465 0.1444
vn 0.7837 0.5837 0.2123
vn -0.8820 0.4403 0.1679
vn 0.8997 0.3637 0.2412
vn -0.9370 0.3053 0.1701
vn 0.9144 0.3103 0.2600
vn -0.9503 0.2598 0.1714
vn 0.9447 0.2188 0.2441
vn -0.9647 0.1703 0.2011
vn 0.9582 0.1868 0.2167
vn -0.9747 0.0546 0.2169
vn 0.9723 0.0894 0.2161
vn -0.9763 -0.0334 0.2137
vn 0.9728 -0.0509 0.2260
vn -0.9542 -0.2092 0.2140
vn 0.9580 -0.1714 0.2299
vn -0.9061 -0.3709 0.2034
vn 0.9420 -0.2490 0.2250
vn -0.8405 -0.5026 0.2024
vn 0.8882 -0.4049 0.2171
vn -0.6562 -0.7232 0.2153
vn -0.4202 -0.8876 0.1889
vn 0.6764 -0.7148 0.1775
vn -0.2787 -0.9479 0.1545
vn -0.2121 -0.9658 0.1490
vn -0.1456 -0.9783 0.1476
vn -0.0875 -0.9869 0.1354
vn -0.0498 -0.9908 0.1254
vn -0.0153 -0.9919 0.1259
vn 0.0192 -0.9916 0.1278
vn 0.0688 -0.9889 0.1318
vn 0.1399 -0.9777 0.1563
vn 0.2693 -0.9460 0.1806
vn 0.4140 -0.8935 0.1739
vn -0.3575 0.9331 -0.0378
vn -0.2272 0.9728 -0.0456
vn -0.1568 0.9861 -0.0547
vn -0.0674 0.9959 -0.0601
vn 0.0175 0.9982 -0.0571
vn 0.0980 0.9939 -0.0506
vn 0.2058 0.9778 -0.0403
vn 0.3121 0.9497 -0.0244
vn 0.4409 0.8975 0.0037
vn -0.5891 0.8080 0.0070
vn -0.4751 0.8798 -0.0163
vn 0.5546 0.8314 0.0347
vn -0.7490 0.6620 0.0260
vn 0.8043 0.5904 0.0666
vn -0.8932 0.4470 0.0495
vn 0.9080 0.4097 0.0877
vn -0.9569 0.2861 0.0498
vn 0.9426 0.3177 0.1031
vn -0.9588 0.2798 0.0492
vn 0.9781 0.1838 0.0974
vn -0.9767 0.2017 0.0739
vn 0.9838 0.1653 0.0690
vn -0.9954 0.0477 0.0833
vn 0.9928 0.1022 0.0618
vn -0.9965 -0.0408 0.0734
vn 0.9960 -0.0303 0.0842
vn -0.9756 -0.2098 0.0649
vn 0.9806 -0.1676 0.1016
vn -0.9211 -0.3855 0.0536
vn 0.9604 -0.2589 0.1030
vn -0.8654 -0.4986 0.0493
vn 0.9117 -0.3981 0.1014
vn -0.6694 -0.7416 0.0441
vn -0.4099 -0.9117 0.0292
vn 0.5456 -0.8366 0.0489
vn 0.7949 -0.6019 0.0768
vn -0.2841 -0.9583 0.0295
vn -0.2091 -0.9773 0.0336
vn -0.1416 -0.9894 0.0306
vn -0.0790 -0.9964 0.0300
vn -0.0478 -0.9984 0.0307
vn -0.0186 -0.9993 0.0327
vn 0.0174 -0.9992 0.0357
vn 0.0631 -0.9973 0.0377
vn 0.1173 -0.9923 0.0410
vn 0.2663 -0.9627 0.0473
vn 0.4197 -0.9060 0.0547
vn -0.3509 0.9252 -0.1445
vn -0.2319 0.9638 -0.1313
vn -0.1457 0.9813 -0.1262
vn -0.0693 0.9891 -0.1303
vn 0.0127 0.9918 -0.1272
vn 0.0956 0.9873 -0.1269
vn 0.1979 0.9719 -0.1274
vn 0.2917 0.9498 -0.1127
vn -0.5708 0.8137 -0.1096
vn -0.4453 0.8847 -0.1378
vn 0.4372 0.8950 -0.0884
vn 0.5521 0.8303 -0.0760
vn -0.7312 0.6783 -0.0723
vn 0.7904 0.6096 -0.0600
vn -0.8891 0.4547 -0.0522
vn 0.9065 0.4212 -0.0298
vn -0.9617 0.2668 -0.0631
vn 0.9480 0.3163 -0.0353
vn -0.9549 0.2876 -0.0741
vn 0.9847 0.1658 -0.0540
vn -0.9718 0.2268 -0.0641
vn 0.9881 0.1339 -0.0761
vn -0.9976 0.0405 -0.0556
vn 0.9892 0.1248 -0.0765
vn -0.9962 -0.0550 -0.0669
vn 0.9991 0.0040 -0.0424
vn -0.9688 -0.2302 -0.0918
vn 0.9862 -0.1640 -0.0226
vn -0.9140 -0.3914 -0.1067
vn 0.9644 -0.2634 -0.0235
vn -0.8649 -0.4912 -0.1036
vn 0.9071 -0.4189 -0.0417
vn -0.6549 -0.7489 -0.1014
vn -0.4096 -0.9074 -0.0943
vn 0.5454 -0.8371 -0.0427
vn 0.7856 -0.6168 -0.0482
vn -0.2923 -0.9530 -0.0801
vn -0.2081 -0.9754 -0.0732
vn -0.1448 -0.9871 -0.0685
vn -0.0809 -0.9947 -0.0630
vn -0.0481 -0.9970 -0.0599
vn -0.0212 -0.9981 -0.0582
vn 0.0158 -0.9982 -0.0573
vn 0.0599 -0.9967 -0.0554
vn 0.1233 -0.9904 -0.0624
vn 0.2634 -0.9620 -0.0712
vn 0.4083 -0.9107 -0.0632
vn -0.3415 0.9130 -0.2233
vn -0.2462 0.9427 -0.2251
vn -0.1484 0.9655 -0.2141
vn -0.0676 0.9746 -0.2135
vn 0.0117 0.9758 -0.2181
vn 0.0978 0.9710 -0.2180
vn 0.1906 0.9584 -0.2123
vn 0.2811 0.9359 -0.2122
vn -0.5643 0.7964 -0.2174
vn -0.4341 0.8756 -0.2121
vn 0.4310 0.8769 -0.2128
vn 0.5444 0.8130 -0.2064
vn -0.6973 0.6889 -0.1979
vn 0.7342 0.6467 -0.2066
vn -0.8677 0.4628 -0.1815
vn 0.8881 0.4254 -0.1743
vn -0.9476 0.2614 -0.1835
vn 0.9374 0.3040 -0.1698
vn -0.9400 0.2885 -0.1821
vn 0.9698 0.1592 -0.1849
vn -0.9532 0.2365 -0.1884
vn 0.9746 0.1075 -0.1964
vn -0.9787 0.0280 -0.2032
vn 0.9690 0.1396 -0.2037
vn -0.9717 -0.0745 -0.2241
vn 0.9789 0.0238 -0.2027
vn -0.9374 -0.2527 -0.2396
vn 0.9685 -0.1567 -0.1934
vn -0.8864 -0.3926 -0.2451
vn 0.9454 -0.2659 -0.1885
vn -0.8368 -0.4884 -0.2476
vn 0.8658 -0.4584 -0.2008
vn -0.6251 -0.7453 -0.2319
vn -0.4168 -0.8858 -0.2042
vn 0.6572 -0.7328 -0.1764
vn -0.3012 -0.9352 -0.1860
vn -0.2092 -0.9614 -0.1788
vn -0.1462 -0.9720 -0.1841
vn -0.0856 -0.9794 -0.1827
vn -0.0586 -0.9842 -0.1673
vn -0.0291 -0.9882 -0.1504
vn 0.0149 -0.9896 -0.1431
vn 0.0681 -0.9859 -0.1529
vn 0.1472 -0.9725 -0.1806
vn 0.2516 -0.9492 -0.1891
vn 0.3934 -0.9033 -0.1714
vn -0.2464 0.9140 -0.3223
vn -0.1628 0.9295 -0.3310
vn -0.0678 0.9411 -0.3313
vn 0.0098 0.9443 -0.3290
vn 0.0965 0.9418 -0.3219
vn 0.1896 0.9284 -0.3197
vn -0.4551 0.8375 -0.3023
vn -0.3164 0.9002 -0.2992
vn 0.2895 0.8976 -0.3325
vn 0.4073 0.8559 -0.3186
vn 0.5477 0.7787 -0.3061
vn -0.6662 0.6777 -0.3113
vn -0.5744 0.7531 -0.3208
vn 0.7140 0.6221 -0.3212
vn -0.8263 0.4607 -0.3241
vn 0.8316 0.4414 -0.3370
vn -0.9028 0.2718 -0.3332
vn 0.8993 0.2815 -0.3348
vn -0.9018 0.3023 -0.3087
vn 0.9298 0.1474 -0.3374
vn -0.9223 0.2185 -0.3189
vn 0.9367 0.1046 -0.3342
vn -0.9358 -0.0005 -0.3525
vn 0.9330 0.1329 -0.3345
vn -0.9285 -0.0794 -0.3627
vn 0.9345 0.0145 -0.3556
vn -0.8968 -0.2585 -0.3590
vn 0.9250 -0.1388 -0.3536
vn -0.8395 -0.4007 -0.3670
vn 0.8990 -0.2677 -0.3467
vn -0.7702 -0.5109 -0.3818
vn 0.8112 -0.4688 -0.3497
vn -0.5800 -0.7398 -0.3410
vn -0.4158 -0.8567 -0.3051
vn -0.3083 -0.8969 -0.3171
vn 0.4006 -0.8638 -0.3055
vn 0.6435 -0.6865 -0.3385
vn -0.2130 -0.9265 -0.3103
vn -0.1452 -0.9418 -0.3033
vn -0.0904 -0.9510 -0.2958
vn -0.0695 -0.9543 -0.2905
vn -0.0347 -0.9550 -0.2946
vn 0.0153 -0.9542 -0.2986
vn 0.0825 -0.9499 -0.3016
vn 0.1549 -0.9414 -0.2997
vn 0.2387 -0.9259 -0.2929
vn -0.4543 0.7697 -0.4485
vn -0.3220 0.8366 -0.4432
vn -0.2429 0.8767 -0.4151
vn -0.1652 0.8934 -0.4179
vn -0.0700 0.8993 -0.4316
vn 0.0071 0.9007 -0.4343
vn 0.0966 0.8968 -0.4317
vn 0.1979 0.8814 -0.4289
vn 0.2876 0.8593 -0.4229
vn 0.3901 0.8209 -0.4171
vn -0.5928 0.6685 -0.4491
vn 0.5833 0.6854 -0.4359
vn -0.7422 0.4825 -0.4652
vn 0.7449 0.4848 -0.4584
vn -0.8299 0.2670 -0.4898
vn 0.8326 0.2753 -0.4805
vn -0.8223 0.3120 -0.4759
vn 0.8708 0.1334 -0.4731
vn -0.8502 0.1903 -0.4909
vn 0.8743 0.1064 -0.4735
vn -0.8643 -0.0150 -0.5028
vn 0.8707 0.1284 -0.4748
vn -0.8593 -0.0793 -0.5053
vn 0.8734 -0.0063 -0.4869
vn -0.8201 -0.2575 -0.5110
vn 0.8578 -0.1384 -0.4950
vn -0.7610 -0.3959 -0.5140
vn 0.8235 -0.2726 -0.4975
vn -0.6590 -0.5415 -0.5220
vn 0.7305 -0.4739 -0.4917
vn -0.4580 -0.7579 -0.4647
vn -0.3120 -0.8345 -0.4541
vn -0.2310 -0.8691 -0.4375
vn -0.1427 -0.8923 -0.4282
vn 0.2471 -0.8537 -0.4585
vn 0.4016 -0.7871 -0.4682
vn 0.5934 -0.6403 -0.4878
vn -0.0887 -0.9039 -0.4185
vn -0.0632 -0.9047 -0.4214
vn -0.0250 -0.8987 -0.4377
vn 0.0174 -0.8946 -0.4465
vn 0.0806 -0.8940 -0.4408
vn 0.1425 -0.8896 -0.4339
vn -0.2595 0.7783 -0.5718
vn -0.1534 0.8039 -0.5747
vn -0.0721 0.8086 -0.5839
vn 0.0031 0.8129 -0.5824
vn 0.0897 0.8160 -0.5710
vn 0.2042 0.8072 -0.5538
vn 0.2920 0.7690 -0.5686
vn -0.4448 0.6564 -0.6093
vn -0.3380 0.7331 -0.5901
vn 0.4078 0.6764 -0.6133
vn 0.5621 0.5783 -0.5912
vn -0.6038 0.4840 -0.6334
vn 0.6408 0.4369 -0.6313
vn -0.7216 0.3021 -0.6229
vn 0.7251 0.2868 -0.6261
vn -0.7177 0.2907 -0.6328
vn 0.7784 0.1337 -0.6134
vn -0.7285 0.1851 -0.6595
vn 0.7778 0.0837 -0.6229
vn -0.7394 -0.0110 -0.6732
vn 0.7600 0.1203 -0.6387
vn -0.7325 -0.0969 -0.6738
vn 0.7574 -0.0208 -0.6526
vn -0.7081 -0.2465 -0.6617
vn 0.7370 -0.1675 -0.6548
vn -0.6763 -0.3699 -0.6370
vn 0.6999 -0.2847 -0.6550
vn -0.5357 -0.5383 -0.6506
vn -0.3720 -0.5899 -0.7167
vn 0.4526 -0.5067 -0.7338
vn 0.6260 -0.4752 -0.6183
vn -0.3670 -0.7351 -0.5700
vn -0.2458 -0.7640 -0.5965
vn -0.1330 -0.7726 -0.6209
vn -0.0779 -0.7818 -0.6187
vn -0.0572 -0.7866 -0.6148
vn -0.0222 -0.7901 -0.6126
vn 0.0253 -0.7891 -0.6138
vn 0.0912 -0.7774 -0.6224
vn 0.1592 -0.7507 -0.6411
vn 0.2660 -0.7108 -0.6512
vn 0.4600 -0.6458 -0.6094
vn -0.3138 0.6169 -0.7217
vn -0.2444 0.6273 -0.7394
vn -0.1513 0.6297 -0.7619
vn -0.0774 0.6382 -0.7660
vn 0.0015 0.6412 -0.7674
vn 0.0792 0.6450 -0.7601
vn 0.2076 0.6486 -0.7323
vn 0.3104 0.6103 -0.7288
vn -0.4279 0.4519 -0.7828
vn -0.3161 0.4392 -0.8410
vn -0.2281 0.4616 -0.8573
vn 0.1991 0.4392 -0.8761
vn 0.3280 0.4505 -0.8304
vn 0.4549 0.4623 -0.7611
vn -0.5810 0.2961 -0.7581
vn -0.4542 0.2741 -0.8477
vn 0.4512 0.2885 -0.8445
vn 0.5822 0.2840 -0.7619
vn -0.5942 0.2676 -0.7585
vn -0.4614 0.2606 -0.8481
vn 0.4590 0.1622 -0.8735
vn 0.6198 0.1472 -0.7708
vn -0.5823 0.1637 -0.7963
vn 0.6165 0.0599 -0.7851
vn -0.5709 -0.0161 -0.8209
vn 0.5942 0.0887 -0.7994
vn -0.5707 -0.1063 -0.8142
vn -0.4305 -0.1108 -0.8957
vn 0.5859 -0.0335 -0.8097
vn -0.5627 -0.2361 -0.7923
vn -0.4078 -0.2629 -0.8744
vn 0.3878 -0.2701 -0.8813
vn 0.5606 -0.2188 -0.7986
vn -0.5408 -0.3771 -0.7518
vn -0.3772 -0.4095 -0.8307
vn -0.2688 -0.4234 -0.8651
vn 0.2434 -0.4294 -0.8697
vn 0.3400 -0.3879 -0.8567
vn 0.5151 -0.3299 -0.7911
vn -0.2500 -0.5814 -0.7742
vn -0.1481 -0.5897 -0.7939
vn -0.0818 -0.6167 -0.7829
vn -0.0605 -0.6323 -0.7723
vn -0.0224 -0.6344 -0.7727
vn 0.0423 -0.6226 -0.7814
vn 0.1238 -0.5989 -0.7912
vn 0.1968 -0.5700 -0.7977
vn 0.2937 -0.5422 -0.7872
vn -0.1574 0.4513 -0.8784
vn -0.0754 0.4405 -0.8946
vn 0.0135 0.4328 -0.9014
vn 0.0844 0.4271 -0.9002
vn -0.3377 0.2896 -0.8956
vn -0.2298 0.2954 -0.9273
vn -0.1523 0.2900 -0.9448
vn -0.0702 0.2843 -0.9562
vn 0.0232 0.2837 -0.9586
vn 0.0958 0.2820 -0.9546
vn 0.1874 0.2811 -0.9412
vn 0.3179 0.2863 -0.9039
vn -0.3287 0.2533 -0.9098
vn -0.2151 0.2282 -0.9496
vn -0.1434 0.2104 -0.9670
vn -0.0658 0.2029 -0.9770
vn 0.0275 0.1955 -0.9803
vn 0.1047 0.1857 -0.9770
vn 0.1923 0.1745 -0.9657
vn 0.3136 0.1674 -0.9347
vn -0.4491 0.1278 -0.8843
vn -0.3187 0.0978 -0.9428
vn -0.2058 0.0932 -0.9742
vn -0.1373 0.0916 -0.9863
vn -0.0593 0.0854 -0.9946
vn 0.0306 0.0833 -0.9961
vn 0.1182 0.0768 -0.9900
vn 0.2027 0.0635 -0.9772
vn 0.3139 0.0549 -0.9479
vn 0.4499 0.0529 -0.8915
vn -0.4311 -0.0318 -0.9018
vn -0.3144 -0.0430 -0.9483
vn -0.2156 -0.0329 -0.9759
vn -0.1352 -0.0232 -0.9905
vn -0.0597 -0.0190 -0.9980
vn 0.0225 -0.0086 -0.9997
vn 0.1236 0.0004 -0.9923
vn 0.2014 0.0080 -0.9795
vn 0.3003 0.0273 -0.9535
vn 0.4339 0.0558 -0.8992
vn -0.3153 -0.1182 -0.9416
vn -0.2170 -0.1337 -0.9670
vn -0.1301 -0.1505 -0.9800
vn -0.0636 -0.1560 -0.9857
vn 0.0092 -0.1488 -0.9888
vn 0.1050 -0.1252 -0.9866
vn 0.1861 -0.0976 -0.9777
vn 0.2811 -0.0790 -0.9564
vn 0.4168 -0.0602 -0.9070
vn -0.2963 -0.2929 -0.9091
vn -0.1995 -0.3052 -0.9312
vn -0.1202 -0.3117 -0.9426
vn -0.0628 -0.3159 -0.9467
vn -0.0002 -0.3145 -0.9492
vn 0.0754 -0.3012 -0.9506
vn 0.1680 -0.2872 -0.9430
vn 0.2690 -0.2897 -0.9186
vn -0.1790 -0.4364 -0.8818
vn -0.1058 -0.4566 -0.8834
vn -0.0630 -0.4732 -0.8787
vn -0.0107 -0.4721 -0.8815
vn 0.0580 -0.4611 -0.8855
vn 0.1515 -0.4501 -0.8800
vt 0.363160 0.322990
vt 0.376670 0.351880
vt 0.344840 0.362800
vt 0.334380 0.332240
vt 0.357130 0.295400
vt 0.328400 0.302250
vt 0.353740 0.265810
vt 0.323050 0.269360
vt 0.352500 0.235470
vt 0.321050 0.235030
vt 0.353200 0.205660
vt 0.324080 0.201500
vt 0.357510 0.177470
vt 0.330910 0.170070
vt 0.027690 0.402500
vt 0.029820 0.371620
vt 0.056850 0.370500
vt 0.055900 0.400310
vt 0.025490 0.431820
vt 0.056180 0.430240
vt 0.026390 0.463580
vt 0.058020 0.461820
vt 0.028570 0.495920
vt 0.060270 0.493440
vt 0.031650 0.527520
vt 0.062920 0.524960
vt 0.035310 0.558190
vt 0.066420 0.554420
vt 0.070000 0.584560
vt 0.037480 0.593730
vt 0.086150 0.368970
vt 0.086190 0.398620
vt 0.087440 0.429300
vt 0.089270 0.460080
vt 0.091440 0.490780
vt 0.094070 0.521990
vt 0.097040 0.551840
vt 0.100020 0.580090
vt 0.085440 0.337150
vt 0.114280 0.344690
vt 0.115850 0.370060
vt 0.116710 0.397570
vt 0.117760 0.427950
vt 0.119640 0.458100
vt 0.121900 0.488280
vt 0.124650 0.518950
vt 0.127740 0.549020
vt 0.130920 0.577190
vt 0.138450 0.347120
vt 0.142400 0.369840
vt 0.146120 0.395790
vt 0.147870 0.425940
vt 0.149780 0.455970
vt 0.152150 0.485930
vt 0.154970 0.516270
vt 0.158010 0.545860
vt 0.160870 0.573530
vt 0.166880 0.344700
vt 0.170590 0.369500
vt 0.174970 0.394480
vt 0.177690 0.423420
vt 0.179950 0.453490
vt 0.182360 0.483410
vt 0.185250 0.513610
vt 0.187830 0.542350
vt 0.190490 0.569370
vt 0.200010 0.336250
vt 0.202420 0.365790
vt 0.202800 0.393930
vt 0.205350 0.421590
vt 0.209100 0.451000
vt 0.211580 0.480780
vt 0.213260 0.510510
vt 0.215030 0.538330
vt 0.219560 0.566410
vt 0.230160 0.359440
vt 0.228190 0.391730
vt 0.230730 0.419900
vt 0.236220 0.448780
vt 0.238710 0.478010
vt 0.239170 0.507450
vt 0.241980 0.536300
vt 0.249630 0.567890
vt 0.406130 0.342920
vt 0.423170 0.369090
vt 0.397260 0.381540
vt 0.398200 0.315170
vt 0.394400 0.290370
vt 0.390900 0.263110
vt 0.389800 0.234820
vt 0.391030 0.207430
vt 0.392690 0.182640
vt 0.371200 0.146220
vt 0.398300 0.154340
vt 0.387680 0.117360
vt 0.412700 0.127170
vt 0.413910 0.406230
vt 0.384160 0.421460
vt 0.366440 0.396230
vt 0.345640 0.135960
vt 0.363490 0.102860
vt 0.029060 0.334140
vt 0.031920 0.305330
vt 0.058960 0.305100
vt 0.055940 0.333820
vt 0.076080 0.620020
vt 0.042330 0.628750
vt 0.085580 0.650730
vt 0.049390 0.666600
vt 0.087230 0.305380
vt 0.104360 0.616910
vt 0.109890 0.644940
vt 0.115980 0.308340
vt 0.135350 0.613210
vt 0.138990 0.642080
vt 0.142220 0.308720
vt 0.165580 0.608930
vt 0.169240 0.638120
vt 0.169780 0.308670
vt 0.196080 0.604660
vt 0.200180 0.633660
vt 0.198160 0.306300
vt 0.225120 0.600650
vt 0.227830 0.629190
vt 0.223250 0.303740
vt 0.227060 0.330090
vt 0.253380 0.599240
vt 0.255220 0.626420
vt 0.253190 0.290470
vt 0.253990 0.324080
vt 0.259910 0.352580
vt 0.264070 0.385600
vt 0.270090 0.413840
vt 0.274770 0.444060
vt 0.277290 0.475510
vt 0.278470 0.506410
vt 0.279140 0.536100
vt 0.283160 0.569540
vt 0.282850 0.599980
vt 0.286860 0.628800
vt 0.293930 0.346470
vt 0.291720 0.383050
vt 0.295830 0.412370
vt 0.299860 0.442000
vt 0.302640 0.473380
vt 0.304420 0.504300
vt 0.306910 0.534530
vt 0.319730 0.567460
vt 0.430490 0.339220
vt 0.431960 0.310060
vt 0.430090 0.285840
vt 0.426010 0.260630
vt 0.424590 0.234200
vt 0.426250 0.208410
vt 0.426080 0.183870
vt 0.421910 0.155640
vt 0.407030 0.094540
vt 0.406570 0.436850
vt 0.387780 0.069700
vt 0.029320 0.280100
vt 0.059550 0.272230
vt 0.089990 0.687330
vt 0.052710 0.709920
vt 0.089430 0.267670
vt 0.113600 0.681780
vt 0.117600 0.269090
vt 0.143820 0.682290
vt 0.144500 0.269900
vt 0.175300 0.678540
vt 0.171530 0.270170
vt 0.207170 0.673640
vt 0.199210 0.270660
vt 0.234570 0.668160
vt 0.225950 0.270980
vt 0.262530 0.659430
vt 0.251360 0.249240
vt 0.292810 0.659030
vt 0.288680 0.270550
vt 0.286000 0.309870
vt 0.316330 0.604030
vt 0.317110 0.634200
vt 0.320670 0.664130
vt 0.625870 0.581340
vt 0.641090 0.550020
vt 0.646470 0.579120
vt 0.646120 0.607390
vt 0.622050 0.609390
vt 0.645760 0.637550
vt 0.620800 0.638140
vt 0.645880 0.668730
vt 0.620460 0.668570
vt 0.646110 0.699510
vt 0.621200 0.698430
vt 0.646660 0.728910
vt 0.625330 0.727300
vt 0.643130 0.756050
vt 0.459630 0.336480
vt 0.458240 0.310090
vt 0.455300 0.286230
vt 0.452920 0.259930
vt 0.451610 0.232660
vt 0.451530 0.206160
vt 0.451810 0.181660
vt 0.449750 0.154830
vt 0.454040 0.373490
vt 0.442690 0.120370
vt 0.447350 0.413010
vt 0.434280 0.082240
vt 0.441980 0.453420
vt 0.423180 0.040670
vt 0.025410 0.243120
vt 0.062330 0.239180
vt 0.087590 0.714150
vt 0.092660 0.232880
vt 0.114460 0.715050
vt 0.119760 0.232790
vt 0.148040 0.720610
vt 0.145700 0.233950
vt 0.181070 0.719430
vt 0.171830 0.234800
vt 0.212830 0.714700
vt 0.199600 0.237780
vt 0.241030 0.705970
vt 0.228060 0.245230
vt 0.272910 0.690050
vt 0.301250 0.680560
vt 0.282100 0.227600
vt 0.651670 0.515790
vt 0.678570 0.489700
vt 0.679590 0.518060
vt 0.678670 0.547590
vt 0.683360 0.580380
vt 0.684140 0.609370
vt 0.682760 0.638630
vt 0.682650 0.668470
vt 0.683430 0.698170
vt 0.684800 0.726980
vt 0.685480 0.755520
vt 0.681540 0.788240
vt 0.649050 0.790720
vt 0.680590 0.817680
vt 0.660700 0.817010
vt 0.678660 0.839460
vt 0.482150 0.312530
vt 0.484650 0.337360
vt 0.480770 0.286660
vt 0.479720 0.259140
vt 0.478420 0.231210
vt 0.477060 0.204030
vt 0.475670 0.177480
vt 0.475140 0.151230
vt 0.482800 0.405210
vt 0.482280 0.373470
vt 0.472470 0.120970
vt 0.467300 0.088110
vt 0.478850 0.443300
vt 0.462210 0.053930
vt 0.004080 0.213700
vt 0.033070 0.211940
vt 0.455110 0.026320
vt 0.063650 0.208910
vt 0.031960 0.995860
vt 0.000190 0.996790
vt 0.001400 0.963140
vt 0.035930 0.960180
vt 0.092240 0.207260
vt 0.000990 0.937370
vt 0.034790 0.933040
vt 0.119240 0.208340
vt 0.006430 0.905180
vt 0.034250 0.903480
vt 0.146400 0.209300
vt 0.007910 0.873330
vt 0.033250 0.872930
vt 0.173600 0.210100
vt 0.007730 0.842240
vt 0.033770 0.842410
vt 0.200950 0.211530
vt 0.006230 0.813770
vt 0.034760 0.813830
vt 0.227790 0.213760
vt 0.001630 0.779840
vt 0.035450 0.783570
vt 0.252100 0.212390
vt 0.004600 0.751370
vt 0.037300 0.757120
vt 0.000190 0.727430
vt 0.032690 0.725130
vt 0.708170 0.460840
vt 0.711560 0.488690
vt 0.715290 0.524860
vt 0.713080 0.551940
vt 0.711880 0.580150
vt 0.712950 0.755330
vt 0.712580 0.785300
vt 0.710200 0.816230
vt 0.709740 0.849070
vt 0.710420 0.608790
vt 0.708720 0.638350
vt 0.708490 0.668150
vt 0.708850 0.697990
vt 0.710100 0.727280
vt 0.509450 0.312960
vt 0.510680 0.339760
vt 0.508650 0.285510
vt 0.507570 0.257790
vt 0.506080 0.229590
vt 0.504380 0.202270
vt 0.502750 0.174530
vt 0.503440 0.149580
vt 0.504550 0.125440
vt 0.510210 0.375340
vt 0.512030 0.403870
vt 0.498350 0.090610
vt 0.510940 0.446690
vt 0.491690 0.051140
vt 0.000880 0.183070
vt 0.038620 0.180890
vt 0.485290 0.015570
vt 0.064170 0.180090
vt 0.064230 0.961470
vt 0.061230 0.994700
vt 0.091040 0.180920
vt 0.063020 0.933240
vt 0.119450 0.181300
vt 0.062190 0.903260
vt 0.147510 0.181770
vt 0.062230 0.873000
vt 0.175180 0.182990
vt 0.062940 0.842940
vt 0.202910 0.184950
vt 0.063370 0.813270
vt 0.229750 0.186930
vt 0.064530 0.783700
vt 0.253650 0.186990
vt 0.065990 0.755690
vt 0.289270 0.195920
vt 0.066660 0.720990
vt 0.738700 0.455890
vt 0.738520 0.486820
vt 0.742210 0.524510
vt 0.741790 0.784430
vt 0.741900 0.811650
vt 0.743650 0.853110
vt 0.740310 0.551080
vt 0.738730 0.578420
vt 0.739020 0.608370
vt 0.738740 0.638540
vt 0.738760 0.667950
vt 0.739050 0.697490
vt 0.739510 0.726970
vt 0.740520 0.756130
vt 0.538030 0.312180
vt 0.538690 0.339490
vt 0.536830 0.284410
vt 0.535590 0.256480
vt 0.534060 0.228290
vt 0.532200 0.200660
vt 0.530140 0.172480
vt 0.528310 0.147290
vt 0.528310 0.123300
vt 0.540410 0.375290
vt 0.541790 0.404010
vt 0.524590 0.086830
vt 0.543500 0.447450
vt 0.521810 0.042410
vt 0.040730 0.151600
vt 0.000190 0.151710
vt 0.519180 0.002100
vt 0.063640 0.151500
vt 0.093620 0.960920
vt 0.093620 0.987470
vt 0.091230 0.152250
vt 0.092420 0.933640
vt 0.120790 0.152830
vt 0.092310 0.903090
vt 0.148800 0.153700
vt 0.092700 0.873080
vt 0.176450 0.155020
vt 0.093110 0.843600
vt 0.204560 0.156910
vt 0.093160 0.813920
vt 0.232220 0.159210
vt 0.093840 0.783720
vt 0.256630 0.161000
vt 0.095260 0.755940
vt 0.293630 0.165490
vt 0.095840 0.733250
vt 0.767810 0.453800
vt 0.768000 0.485270
vt 0.769070 0.521890
vt 0.770430 0.811860
vt 0.770290 0.849390
vt 0.770580 0.869400
vt 0.768840 0.550000
vt 0.768580 0.578490
vt 0.769110 0.608430
vt 0.768820 0.638580
vt 0.768560 0.667820
vt 0.768690 0.697310
vt 0.769160 0.726520
vt 0.769450 0.756600
vt 0.769820 0.786530
vt 0.565860 0.309920
vt 0.565850 0.336170
vt 0.565100 0.283180
vt 0.563630 0.255110
vt 0.562000 0.226880
vt 0.560180 0.198850
vt 0.557940 0.170960
vt 0.555310 0.143720
vt 0.554830 0.113920
vt 0.570270 0.372400
vt 0.572250 0.402080
vt 0.552940 0.081790
vt 0.575370 0.444910
vt 0.551090 0.040870
vt 0.040900 0.124260
vt 0.000490 0.120860
vt 0.548950 0.000190
vt 0.064300 0.123280
vt 0.121070 0.987500
vt 0.121250 0.960870
vt 0.091760 0.123010
vt 0.122330 0.933440
vt 0.121580 0.124400
vt 0.122510 0.903110
vt 0.149990 0.125860
vt 0.122300 0.873190
vt 0.178060 0.127140
vt 0.122190 0.843940
vt 0.206560 0.128650
vt 0.122670 0.814510
vt 0.234320 0.130700
vt 0.123150 0.784530
vt 0.259140 0.132540
vt 0.123050 0.756580
vt 0.295450 0.133350
vt 0.123670 0.733860
vt 0.798520 0.453800
vt 0.798560 0.486020
vt 0.797110 0.522220
vt 0.798390 0.812040
vt 0.798630 0.849250
vt 0.798410 0.869340
vt 0.798160 0.550250
vt 0.799110 0.578320
vt 0.799290 0.608040
vt 0.798840 0.638390
vt 0.799000 0.667780
vt 0.799080 0.697210
vt 0.799010 0.726570
vt 0.799280 0.756860
vt 0.798700 0.786590
vt 0.590970 0.306460
vt 0.592110 0.334030
vt 0.592210 0.281090
vt 0.592200 0.253340
vt 0.590680 0.224930
vt 0.587870 0.197200
vt 0.584380 0.170830
vt 0.583130 0.142650
vt 0.598650 0.369670
vt 0.601580 0.401270
vt 0.582940 0.110590
vt 0.581210 0.082390
vt 0.604040 0.440880
vt 0.582010 0.046130
vt 0.039670 0.098300
vt 0.002520 0.093360
vt 0.584760 0.009770
vt 0.066920 0.097130
vt 0.151520 0.961950
vt 0.154040 0.994310
vt 0.093330 0.094930
vt 0.152090 0.932560
vt 0.122100 0.095300
vt 0.152780 0.903560
vt 0.151240 0.096940
vt 0.152280 0.873400
vt 0.180010 0.098300
vt 0.151590 0.843890
vt 0.208580 0.100290
vt 0.152150 0.814730
vt 0.236580 0.102710
vt 0.152460 0.785800
vt 0.262710 0.104360
vt 0.152650 0.757300
vt 0.296300 0.103240
vt 0.153380 0.722710
vt 0.827420 0.456980
vt 0.828310 0.486770
vt 0.825820 0.522190
vt 0.827220 0.811860
vt 0.825440 0.852630
vt 0.825830 0.551110
vt 0.828650 0.578220
vt 0.829200 0.607690
vt 0.828800 0.637870
vt 0.829230 0.667670
vt 0.829370 0.697380
vt 0.829030 0.727150
vt 0.828570 0.756500
vt 0.827220 0.784590
vt 0.618740 0.304910
vt 0.624640 0.336700
vt 0.618540 0.278330
vt 0.619740 0.251090
vt 0.618510 0.223200
vt 0.615010 0.195750
vt 0.611920 0.168210
vt 0.612710 0.138270
vt 0.630040 0.370110
vt 0.634520 0.404430
vt 0.610900 0.108480
vt 0.608180 0.080950
vt 0.637130 0.436960
vt 0.610740 0.046010
vt 0.009960 0.062750
vt 0.035470 0.065860
vt 0.616990 0.017850
vt 0.067950 0.067320
vt 0.180070 0.960340
vt 0.184360 0.995330
vt 0.097300 0.068690
vt 0.178450 0.929700
vt 0.123940 0.067700
vt 0.180230 0.903850
vt 0.152590 0.068280
vt 0.181170 0.873440
vt 0.181200 0.070010
vt 0.180920 0.843690
vt 0.209790 0.072790
vt 0.180470 0.815420
vt 0.240220 0.073970
vt 0.179100 0.786930
vt 0.269790 0.074860
vt 0.180490 0.760060
vt 0.299410 0.073380
vt 0.186690 0.728260
vt 0.855000 0.466270
vt 0.857750 0.485940
vt 0.858350 0.517480
vt 0.855470 0.549580
vt 0.856910 0.786110
vt 0.858830 0.816830
vt 0.859080 0.848230
vt 0.857270 0.578800
vt 0.856370 0.608940
vt 0.856970 0.637950
vt 0.858490 0.667680
vt 0.858630 0.697740
vt 0.857060 0.726980
vt 0.855500 0.754970
vt 0.658230 0.338110
vt 0.658120 0.366420
vt 0.654030 0.307390
vt 0.653310 0.279080
vt 0.652950 0.249810
vt 0.651040 0.220520
vt 0.648160 0.191550
vt 0.644050 0.163270
vt 0.642240 0.135270
vt 0.641510 0.104490
vt 0.642380 0.072640
vt 0.667920 0.404910
vt 0.674840 0.445150
vt 0.646360 0.032960
vt 0.033420 0.034810
vt 0.068450 0.034800
vt 0.210810 0.960020
vt 0.213960 0.999810
vt 0.100150 0.040700
vt 0.204770 0.927660
vt 0.126530 0.041880
vt 0.204040 0.903340
vt 0.154160 0.042380
vt 0.206180 0.872960
vt 0.181680 0.044010
vt 0.207440 0.843430
vt 0.210420 0.045280
vt 0.206440 0.816290
vt 0.242400 0.042610
vt 0.205740 0.786270
vt 0.275740 0.040200
vt 0.209680 0.758050
vt 0.310470 0.038210
vt 0.216180 0.729860
vt 0.882780 0.488630
vt 0.889640 0.516880
vt 0.890200 0.545810
vt 0.889730 0.576560
vt 0.883670 0.609680
vt 0.882410 0.754170
vt 0.887960 0.787430
vt 0.887890 0.816920
vt 0.886450 0.836780
vt 0.882540 0.638720
vt 0.884000 0.667990
vt 0.883710 0.697820
vt 0.881800 0.726280
vt 0.685650 0.306990
vt 0.692950 0.338410
vt 0.684450 0.277690
vt 0.683870 0.248010
vt 0.681920 0.217980
vt 0.678810 0.188420
vt 0.672860 0.160400
vt 0.670170 0.134070
vt 0.673490 0.099140
vt 0.698310 0.371730
vt 0.711540 0.415460
vt 0.668950 0.072910
vt 0.720450 0.453420
vt 0.684410 0.050330
vt 0.064050 0.003480
vt 0.245340 0.963170
vt 0.252080 0.998010
vt 0.097030 0.003010
vt 0.242440 0.932240
vt 0.124600 0.001220
vt 0.244710 0.905990
vt 0.155310 0.001020
vt 0.246620 0.874010
vt 0.186460 0.003810
vt 0.247310 0.842650
vt 0.215390 0.007660
vt 0.245610 0.813820
vt 0.245610 0.007640
vt 0.242040 0.783370
vt 0.281140 0.001350
vt 0.240620 0.755220
vt 0.320670 0.000190
vt 0.245430 0.727670
vt 0.911030 0.514500
vt 0.919590 0.544970
vt 0.924250 0.574020
vt 0.922830 0.606140
vt 0.923710 0.636700
vt 0.924740 0.667710
vt 0.924230 0.699190
vt 0.922490 0.729780
vt 0.920500 0.759150
vt 0.919240 0.788810
vt 0.909960 0.818910
vt 0.723600 0.336130
vt 0.739330 0.369840
vt 0.719180 0.306520
vt 0.723250 0.275600
vt 0.722860 0.245810
vt 0.720500 0.215030
vt 0.717010 0.184440
vt 0.708260 0.154150
vt 0.704600 0.127170
vt 0.714000 0.084750
vt 0.620080 0.496610
vt 0.588330 0.518120
vt 0.553810 0.493320
vt 0.583780 0.474300
vt 0.552340 0.455680
vt 0.584080 0.818900
vt 0.616490 0.795010
vt 0.620080 0.837360
vt 0.588560 0.855650
vt 0.519940 0.453800
vt 0.524400 0.493760
vt 0.556250 0.825670
vt 0.558630 0.866050
vt 0.492810 0.455870
vt 0.497610 0.499560
vt 0.527620 0.824460
vt 0.531930 0.868330
vt 0.462940 0.459840
vt 0.471050 0.502570
vt 0.497050 0.826070
vt 0.499220 0.870160
vt 0.432820 0.464240
vt 0.440160 0.504340
vt 0.467340 0.827970
vt 0.467040 0.870660
vt 0.405170 0.470260
vt 0.413540 0.509220
vt 0.438960 0.829960
vt 0.437600 0.870050
vt 0.378770 0.483920
vt 0.387040 0.513140
vt 0.408730 0.831360
vt 0.406610 0.867570
vt 0.353500 0.509410
vt 0.385130 0.539170
vt 0.351790 0.538820
vt 0.392460 0.570900
vt 0.359260 0.569170
vt 0.381680 0.806550
vt 0.408890 0.802780
vt 0.380630 0.835080
vt 0.379080 0.860220
vt 0.325000 0.536270
vt 0.325200 0.568550
vt 0.365550 0.600480
vt 0.324990 0.598710
vt 0.364680 0.629830
vt 0.321050 0.631310
vt 0.363790 0.659610
vt 0.321610 0.662330
vt 0.365390 0.689580
vt 0.324620 0.693530
vt 0.369650 0.718970
vt 0.328150 0.725310
vt 0.374690 0.747460
vt 0.332790 0.756110
vt 0.378590 0.778020
vt 0.339440 0.785010
vt 0.349120 0.813390
vt 0.355370 0.844650
vt 0.747270 0.340770
vt 0.752290 0.310210
vt 0.762140 0.273570
vt 0.764230 0.242720
vt 0.762250 0.212140
vt 0.756320 0.180390
vt 0.742520 0.145690
vt 0.731010 0.117060
vt 0.556210 0.520930
vt 0.594020 0.545790
vt 0.559020 0.555660
vt 0.565200 0.582480
vt 0.600170 0.574200
vt 0.599830 0.609940
vt 0.570400 0.612310
vt 0.580210 0.730720
vt 0.579150 0.700470
vt 0.608050 0.698150
vt 0.614500 0.732320
vt 0.580480 0.758350
vt 0.615750 0.761070
vt 0.583760 0.792850
vt 0.530530 0.525180
vt 0.532470 0.558590
vt 0.551540 0.760570
vt 0.555110 0.793050
vt 0.503230 0.535630
vt 0.504960 0.562120
vt 0.524070 0.787360
vt 0.523120 0.761660
vt 0.479150 0.538880
vt 0.494250 0.786610
vt 0.446090 0.536220
vt 0.479710 0.564710
vt 0.450210 0.566660
vt 0.466020 0.790800
vt 0.415760 0.537660
vt 0.422870 0.570340
vt 0.439100 0.768970
vt 0.466740 0.765540
vt 0.438190 0.798390
vt 0.427120 0.599780
vt 0.401270 0.602910
vt 0.410430 0.739410
vt 0.437980 0.738560
vt 0.409480 0.772310
vt 0.403140 0.629810
vt 0.402360 0.657530
vt 0.403820 0.685520
vt 0.407750 0.712570
vt 0.601490 0.639250
vt 0.575060 0.640720
vt 0.604310 0.668090
vt 0.578010 0.670690
vt 0.537870 0.584920
vt 0.542570 0.613520
vt 0.545990 0.643150
vt 0.548810 0.673350
vt 0.550770 0.703300
vt 0.551420 0.732810
vt 0.509270 0.587520
vt 0.513050 0.616890
vt 0.515850 0.646490
vt 0.518410 0.675670
vt 0.520930 0.705060
vt 0.522790 0.734750
vt 0.480580 0.590780
vt 0.483600 0.620050
vt 0.486720 0.649210
vt 0.489350 0.677990
vt 0.491600 0.707080
vt 0.493620 0.736760
vt 0.494710 0.763630
vt 0.452070 0.594620
vt 0.454440 0.622810
vt 0.457550 0.651780
vt 0.460350 0.680560
vt 0.462510 0.709500
vt 0.464870 0.738170
vt 0.427700 0.626130
vt 0.428990 0.654450
vt 0.431530 0.683170
vt 0.434710 0.711370
s 1
usemtl defaultMat.001
f 1/1/1 80/2/80 7/3/7 8/4/8
f 2/5/2 1/1/1 8/4/8 9/6/9
f 3/7/3 2/5/2 9/6/9 10/8/10
f 4/9/4 3/7/3 10/8/10 11/10/11
f 5/11/5 4/9/4 11/10/11 12/12/12
f 6/13/6 5/11/5 12/12/12 13/14/13
f 8/15/8 7/16/7 14/17/14 15/18/15
f 9/19/9 8/15/8 15/18/15 16/20/16
f 10/21/10 9/19/9 16/20/16 17/22/17
f 11/23/11 10/21/10 17/22/17 18/24/18
f 12/25/12 11/23/11 18/24/18 19/26/19
f 13/27/13 12/25/12 19/26/19 20/28/20
f 21/29/21 85/30/85 13/27/13 20/28/20
f 15/18/15 14/17/14 22/31/22 23/32/23
f 16/20/16 15/18/15 23/32/23 24/33/24
f 17/22/17 16/20/16 24/33/24 25/34/25
f 18/24/18 17/22/17 25/34/25 26/35/26
f 19/26/19 18/24/18 26/35/26 27/36/27
f 20/28/20 19/26/19 27/36/27 28/37/28
f 21/29/21 20/28/20 28/37/28 29/38/29
f 22/31/22 92/39/92 30/40/30 31/41/31
f 23/32/23 22/31/22 31/41/31 32/42/32
f 24/33/24 23/32/23 32/42/32 33/43/33
f 25/34/25 24/33/24 33/43/33 34/44/34
f 26/35/26 25/34/25 34/44/34 35/45/35
f 27/36/27 26/35/26 35/45/35 36/46/36
f 28/37/28 27/36/27 36/46/36 37/47/37
f 29/38/29 28/37/28 37/47/37 38/48/38
f 31/41/31 30/40/30 39/49/39 40/50/40
f 32/42/32 31/41/31 40/50/40 41/51/41
f 33/43/33 32/42/32 41/51/41 42/52/42
f 34/44/34 33/43/33 42/52/42 43/53/43
f 35/45/35 34/44/34 43/53/43 44/54/44
f 36/46/36 35/45/35 44/54/44 45/55/45
f 37/47/37 36/46/36 45/55/45 46/56/46
f 38/48/38 37/47/37 46/56/46 47/57/47
f 40/50/40 39/49/39 48/58/48 49/59/49
f 41/51/41 40/50/40 49/59/49 50/60/50
f 42/52/42 41/51/41 50/60/50 51/61/51
f 43/53/43 42/52/42 51/61/51 52/62/52
f 44/54/44 43/53/43 52/62/52 53/63/53
f 45/55/45 44/54/44 53/63/53 54/64/54
f 46/56/46 45/55/45 54/64/54 55/65/55
f 47/57/47 46/56/46 55/65/55 56/66/56
f 48/58/48 105/67/105 57/68/57 49/59/49
f 50/60/50 49/59/49 57/68/57 58/69/58
f 51/61/51 50/60/50 58/69/58 59/70/59
f 52/62/52 51/61/51 59/70/59 60/71/60
f 53/63/53 52/62/52 60/71/60 61/72/61
f 54/64/54 53/63/53 61/72/61 62/73/62
f 55/65/55 54/64/54 62/73/62 63/74/63
f 56/66/56 55/65/55 63/74/63 64/75/64
f 57/68/57 110/76/110 65/77/65 58/69/58
f 59/70/59 58/69/58 65/77/65 66/78/66
f 60/71/60 59/70/59 66/78/66 67/79/67
f 61/72/61 60/71/60 67/79/67 68/80/68
f 62/73/62 61/72/61 68/80/68 69/81/69
f 63/74/63 62/73/62 69/81/69 70/82/70
f 70/82/70 111/83/111 64/75/64 63/74/63
f 71/84/71 136/85/136 79/86/79 80/2/80
f 72/87/72 71/84/71 80/2/80 1/1/1
f 1/1/1 2/5/2 73/88/73 72/87/72
f 2/5/2 3/7/3 74/89/74 73/88/73
f 3/7/3 4/9/4 75/90/75 74/89/74
f 4/9/4 5/11/5 76/91/76 75/90/75
f 5/11/5 6/13/6 77/92/77 76/91/76
f 81/93/81 78/94/78 77/92/77 6/13/6
f 82/95/82 139/96/139 78/94/78 81/93/81
f 79/86/79 140/97/140 83/98/83 84/99/84
f 80/2/80 79/86/79 84/99/84 7/3/7
f 6/13/6 13/14/13 85/100/85 81/93/81
f 82/95/82 81/93/81 85/100/85 86/101/86
f 84/102/84 83/103/83 87/104/87 88/105/88
f 14/17/14 7/16/7 84/102/84 88/105/88
f 89/106/89 86/107/86 85/30/85 21/29/21
f 90/108/90 143/109/143 86/107/86 89/106/89
f 88/105/88 87/104/87 91/110/91 92/39/92
f 22/31/22 14/17/14 88/105/88 92/39/92
f 21/29/21 29/38/29 93/111/93 89/106/89
f 90/108/90 89/106/89 93/111/93 94/112/94
f 92/39/92 91/110/91 95/113/95 30/40/30
f 29/38/29 38/48/38 96/114/96 93/111/93
f 94/112/94 93/111/93 96/114/96 97/115/97
f 39/49/39 30/40/30 95/113/95 98/116/98
f 38/48/38 47/57/47 99/117/99 96/114/96
f 97/115/97 96/114/96 99/117/99 100/118/100
f 48/58/48 39/49/39 98/116/98 101/119/101
f 47/57/47 56/66/56 102/120/102 99/117/99
f 100/118/100 99/117/99 102/120/102 103/121/103
f 101/119/101 104/122/104 105/67/105 48/58/48
f 56/66/56 64/75/64 106/123/106 102/120/102
f 103/121/103 102/120/102 106/123/106 107/124/107
f 105/67/105 104/122/104 108/125/108 109/126/109
f 105/67/105 109/126/109 110/76/110 57/68/57
f 111/83/111 112/127/112 106/123/106 64/75/64
f 107/124/107 106/123/106 112/127/112 113/128/113
f 108/125/108 158/129/158 114/130/114 109/126/109
f 110/76/110 109/126/109 114/130/114 115/131/115
f 110/76/110 115/131/115 116/132/116 65/77/65
f 66/78/66 65/77/65 116/132/116 117/133/117
f 67/79/67 66/78/66 117/133/117 118/134/118
f 68/80/68 67/79/67 118/134/118 119/135/119
f 69/81/69 68/80/68 119/135/119 120/136/120
f 70/82/70 69/81/69 120/136/120 121/137/121
f 121/137/121 122/138/122 111/83/111 70/82/70
f 112/127/112 111/83/111 122/138/122 123/139/123
f 123/139/123 159/140/159 113/128/113 112/127/112
f 115/131/115 162/141/162 124/142/124 116/132/116
f 117/133/117 116/132/116 124/142/124 125/143/125
f 118/134/118 117/133/117 125/143/125 126/144/126
f 119/135/119 118/134/118 126/144/126 127/145/127
f 120/136/120 119/135/119 127/145/127 128/146/128
f 121/137/121 120/136/120 128/146/128 129/147/129
f 129/147/129 169/148/169 122/138/122 121/137/121
f 136/85/136 71/84/71 137/149/137
f 137/149/137 71/84/71 72/87/72 130/150/130
f 72/87/72 73/88/73 131/151/131 130/150/130
f 73/88/73 74/89/74 132/152/132 131/151/131
f 74/89/74 75/90/75 133/153/133 132/152/132
f 75/90/75 76/91/76 134/154/134 133/153/133
f 76/91/76 77/92/77 135/155/135 134/154/134
f 77/92/77 78/94/78 138/156/138 135/155/135
f 78/94/78 139/96/139 138/156/138
f 79/86/79 136/85/136 140/97/140
f 82/95/82 141/157/141 139/96/139
f 83/98/83 140/97/140 142/158/142
f 82/95/82 86/101/86 143/159/143 141/157/141
f 87/104/87 83/103/83 142/160/142 144/161/144
f 90/108/90 145/162/145 185/163/185 143/109/143
f 91/110/91 87/104/87 144/161/144 146/164/146
f 90/108/90 94/112/94 147/165/147 145/162/145
f 95/113/95 91/110/91 146/164/146 148/166/148
f 94/112/94 97/115/97 149/167/149 147/165/147
f 98/116/98 95/113/95 148/166/148 150/168/150
f 97/115/97 100/118/100 151/169/151 149/167/149
f 101/119/101 98/116/98 150/168/150 152/170/152
f 100/118/100 103/121/103 153/171/153 151/169/151
f 104/122/104 101/119/101 152/170/152 154/172/154
f 103/121/103 107/124/107 155/173/155 153/171/153
f 108/125/108 104/122/104 154/172/154 156/174/156
f 107/124/107 113/128/113 157/175/157 155/173/155
f 108/125/108 156/174/156 200/176/200 158/129/158
f 159/140/159 160/177/160 157/175/157 113/128/113
f 114/130/114 158/129/158 202/178/202 161/179/161
f 115/131/115 114/130/114 161/179/161 162/141/162
f 123/139/123 122/138/122 169/148/169 170/180/170
f 170/180/170 171/181/171 159/140/159 123/139/123
f 171/181/171 207/182/207 160/177/160 159/140/159
f 124/183/124 162/184/162 163/185/163
f 163/185/163 164/186/164 125/187/125 124/183/124
f 164/186/164 165/188/165 126/189/126 125/187/125
f 165/188/165 166/190/166 127/191/127 126/189/126
f 166/190/166 167/192/167 128/193/128 127/191/127
f 167/192/167 168/194/168 129/195/129 128/193/128
f 169/196/169 129/195/129 168/194/168
f 172/197/172 137/149/137 130/150/130 173/198/173
f 174/199/174 173/198/173 130/150/130 131/151/131
f 175/200/175 174/199/174 131/151/131 132/152/132
f 176/201/176 175/200/175 132/152/132 133/153/133
f 177/202/177 176/201/176 133/153/133 134/154/134
f 178/203/178 177/202/177 134/154/134 135/155/135
f 135/155/135 138/156/138 179/204/179 178/203/178
f 180/205/180 136/85/136 137/149/137 172/197/172
f 138/156/138 139/96/139 181/206/181 179/204/179
f 182/207/182 140/97/140 136/85/136 180/205/180
f 141/157/141 183/208/183 181/206/181 139/96/139
f 142/158/142 140/97/140 182/207/182 184/209/184
f 183/208/183 141/157/141 143/159/143 185/210/185
f 144/161/144 142/160/142 184/211/184 186/212/186
f 185/163/185 145/162/145 187/213/187
f 146/164/146 144/161/144 186/212/186 188/214/188
f 187/213/187 145/162/145 147/165/147 189/215/189
f 148/166/148 146/164/146 188/214/188 190/216/190
f 189/215/189 147/165/147 149/167/149 191/217/191
f 150/168/150 148/166/148 190/216/190 192/218/192
f 149/167/149 151/169/151 193/219/193 191/217/191
f 152/170/152 150/168/150 192/218/192 194/220/194
f 151/169/151 153/171/153 195/221/195 193/219/193
f 154/172/154 152/170/152 194/220/194 196/222/196
f 153/171/153 155/173/155 197/223/197 195/221/195
f 198/224/198 156/174/156 154/172/154 196/222/196
f 155/173/155 157/175/157 199/225/199 197/223/197
f 200/176/200 156/174/156 198/224/198
f 199/225/199 157/175/157 160/177/160 201/226/201
f 158/129/158 200/176/200 247/227/247 202/178/202
f 160/177/160 207/182/207 201/226/201
f 161/228/161 202/229/202 203/230/203
f 203/230/203 204/231/204 162/184/162 161/228/161
f 163/185/163 162/184/162 204/231/204 208/232/208
f 164/186/164 163/185/163 208/232/208 209/233/209
f 165/188/165 164/186/164 209/233/209 210/234/210
f 166/190/166 165/188/165 210/234/210 211/235/211
f 167/192/167 166/190/166 211/235/211 212/236/212
f 168/194/168 167/192/167 212/236/212 213/237/213
f 169/196/169 168/194/168 213/237/213 214/238/214
f 205/239/205 170/240/170 169/196/169 214/238/214
f 205/239/205 206/241/206 171/242/171 170/240/170
f 207/243/207 171/242/171 206/241/206
f 216/244/216 215/245/215 172/197/172 173/198/173
f 217/246/217 216/244/216 173/198/173 174/199/174
f 218/247/218 217/246/217 174/199/174 175/200/175
f 219/248/219 218/247/218 175/200/175 176/201/176
f 220/249/220 219/248/219 176/201/176 177/202/177
f 221/250/221 220/249/220 177/202/177 178/203/178
f 222/251/222 221/250/221 178/203/178 179/204/179
f 223/252/223 182/207/182 180/205/180 224/253/224
f 224/253/224 180/205/180 172/197/172 215/245/215
f 181/206/181 225/254/225 222/251/222 179/204/179
f 181/206/181 183/208/183 226/255/226 225/254/225
f 182/207/182 223/252/223 227/256/227 184/209/184
f 183/208/183 185/210/185 228/257/228 226/255/226
f 184/211/184 227/258/227 229/259/229
f 228/257/228 185/210/185 230/260/230
f 186/212/186 184/211/184 229/259/229 231/261/231
f 230/262/230 185/263/185 187/264/187 232/265/232
f 188/214/188 186/212/186 231/261/231 233/266/233
f 187/264/187 189/267/189 234/268/234 232/265/232
f 188/214/188 233/266/233 235/269/235 190/216/190
f 189/267/189 191/270/191 236/271/236 234/268/234
f 190/216/190 235/269/235 237/272/237 192/218/192
f 236/271/236 191/270/191 193/273/193 238/274/238
f 192/218/192 237/272/237 239/275/239 194/220/194
f 238/274/238 193/273/193 195/276/195 240/277/240
f 194/220/194 239/275/239 241/278/241 196/222/196
f 240/277/240 195/276/195 197/279/197 242/280/242
f 243/281/243 198/224/198 196/222/196 241/278/241
f 197/279/197 199/282/199 244/283/244 242/280/242
f 200/176/200 198/224/198 243/281/243 245/284/245
f 199/282/199 201/285/201 246/286/246 244/283/244
f 200/176/200 245/284/245 247/227/247
f 201/285/201 207/287/207 250/288/250 246/286/246
f 202/229/202 247/289/247 248/290/248
f 203/230/203 202/229/202 248/290/248 251/291/251
f 204/231/204 203/230/203 251/291/251 252/292/252
f 208/232/208 204/231/204 252/292/252 253/293/253
f 205/239/205 214/238/214 259/294/259 260/295/260
f 249/296/249 206/241/206 205/239/205 260/295/260
f 249/296/249 250/297/250 207/243/207 206/241/206
f 253/293/253 254/298/254 209/233/209 208/232/208
f 254/298/254 255/299/255 210/234/210 209/233/209
f 255/299/255 256/300/256 211/235/211 210/234/210
f 256/300/256 257/301/257 212/236/212 211/235/211
f 257/301/257 258/302/258 213/237/213 212/236/212
f 258/302/258 259/294/259 214/238/214 213/237/213
f 262/303/262 261/304/261 215/245/215 216/244/216
f 263/305/263 262/303/262 216/244/216 217/246/217
f 264/306/264 263/305/263 217/246/217 218/247/218
f 265/307/265 264/306/264 218/247/218 219/248/219
f 266/308/266 265/307/265 219/248/219 220/249/220
f 267/309/267 266/308/266 220/249/220 221/250/221
f 268/310/268 267/309/267 221/250/221 222/251/222
f 222/251/222 225/254/225 269/311/269 268/310/268
f 271/312/271 270/313/270 223/252/223 224/253/224
f 271/312/271 224/253/224 215/245/215 261/304/261
f 225/254/225 226/255/226 272/314/272 269/311/269
f 273/315/273 227/256/227 223/252/223 270/313/270
f 228/257/228 274/316/274 272/314/272 226/255/226
f 229/259/229 227/258/227 273/317/273 275/318/275
f 274/316/274 228/257/228 230/260/230 276/319/276
f 231/261/231 229/259/229 275/318/275 277/320/277
f 232/265/232 278/321/278 276/322/276 230/262/230
f 231/261/231 277/320/277 279/323/279 233/266/233
f 278/321/278 232/265/232 234/268/234 280/324/280
f 233/266/233 279/323/279 281/325/281 235/269/235
f 280/324/280 234/268/234 236/271/236 282/326/282
f 235/269/235 281/325/281 283/327/283 237/272/237
f 282/326/282 236/271/236 238/274/238 284/328/284
f 237/272/237 283/327/283 285/329/285 239/275/239
f 284/328/284 238/274/238 240/277/240 286/330/286
f 239/275/239 285/329/285 287/331/287 241/278/241
f 286/330/286 240/277/240 242/280/242 288/332/288
f 241/278/241 287/331/287 289/333/289 243/281/243
f 288/332/288 242/280/242 244/283/244 290/334/290
f 243/281/243 289/333/289 291/335/291 245/284/245
f 290/334/290 244/283/244 246/286/246 292/336/292
f 245/284/245 291/335/291 293/337/293 247/227/247
f 250/288/250 295/338/295 292/336/292 246/286/246
f 293/339/293 294/340/294 248/290/248 247/289/247
f 248/290/248 294/340/294 296/341/296 251/291/251
f 249/296/249 260/295/260 305/342/305 306/343/306
f 295/344/295 250/297/250 249/296/249 306/343/306
f 296/341/296 297/345/297 252/292/252 251/291/251
f 297/345/297 298/346/298 253/293/253 252/292/252
f 298/346/298 299/347/299 254/298/254 253/293/253
f 299/347/299 300/348/300 255/299/255 254/298/254
f 300/348/300 301/349/301 256/300/256 255/299/255
f 301/349/301 302/350/302 257/301/257 256/300/256
f 302/350/302 303/351/303 258/302/258 257/301/257
f 303/351/303 304/352/304 259/294/259 258/302/258
f 304/352/304 305/342/305 260/295/260 259/294/259
f 308/353/308 307/354/307 261/304/261 262/303/262
f 309/355/309 308/353/308 262/303/262 263/305/263
f 310/356/310 309/355/309 263/305/263 264/306/264
f 311/357/311 310/356/310 264/306/264 265/307/265
f 312/358/312 311/357/311 265/307/265 266/308/266
f 313/359/313 312/358/312 266/308/266 267/309/267
f 314/360/314 313/359/313 267/309/267 268/310/268
f 315/361/315 314/360/314 268/310/268 269/311/269
f 317/362/317 316/363/316 270/313/270 271/312/271
f 317/362/317 271/312/271 261/304/261 307/354/307
f 272/314/272 318/364/318 315/361/315 269/311/269
f 319/365/319 273/315/273 270/313/270 316/363/316
f 274/316/274 320/366/320 318/364/318 272/314/272
f 321/367/321 275/318/275 273/317/273 319/368/319
f 320/366/320 274/316/274 276/319/276 322/369/322
f 275/318/275 321/367/321 323/370/323 277/320/277
f 276/322/276 278/321/278 324/371/324 322/372/322
f 277/320/277 323/370/323 325/373/325 279/323/279
f 324/371/324 278/321/278 280/324/280 326/374/326
f 279/323/279 325/373/325 327/375/327 281/325/281
f 326/374/326 280/324/280 282/326/282 328/376/328
f 281/325/281 327/375/327 329/377/329 283/327/283
f 328/376/328 282/326/282 284/328/284 330/378/330
f 283/327/283 329/377/329 331/379/331 285/329/285
f 330/378/330 284/328/284 286/330/286 332/380/332
f 285/329/285 331/379/331 333/381/333 287/331/287
f 332/380/332 286/330/286 288/332/288 334/382/334
f 287/331/287 333/381/333 335/383/335 289/333/289
f 334/382/334 288/332/288 290/334/290 336/384/336
f 289/333/289 335/383/335 337/385/337 291/335/291
f 336/384/336 290/334/290 292/336/292 338/386/338
f 291/335/291 337/385/337 339/387/339 293/337/293
f 292/336/292 295/338/295 342/388/342 338/386/338
f 339/389/339 340/390/340 294/340/294 293/339/293
f 294/340/294 340/390/340 343/391/343 296/341/296
f 306/343/306 353/392/353 341/393/341 295/344/295
f 342/394/342 295/344/295 341/393/341
f 343/391/343 344/395/344 297/345/297 296/341/296
f 344/395/344 345/396/345 298/346/298 297/345/297
f 345/396/345 346/397/346 299/347/299 298/346/298
f 346/397/346 347/398/347 300/348/300 299/347/299
f 347/398/347 348/399/348 301/349/301 300/348/300
f 348/399/348 349/400/349 302/350/302 301/349/301
f 349/400/349 350/401/350 303/351/303 302/350/302
f 350/401/350 351/402/351 304/352/304 303/351/303
f 351/402/351 352/403/352 305/342/305 304/352/304
f 352/403/352 353/392/353 306/343/306 305/342/305
f 355/404/355 354/405/354 307/354/307 308/353/308
f 356/406/356 355/404/355 308/353/308 309/355/309
f 357/407/357 356/406/356 309/355/309 310/356/310
f 358/408/358 357/407/357 310/356/310 311/357/311
f 359/409/359 358/408/358 311/357/311 312/358/312
f 360/410/360 359/409/359 312/358/312 313/359/313
f 361/411/361 360/410/360 313/359/313 314/360/314
f 315/361/315 364/412/364 361/411/361 314/360/314
f 363/413/363 362/414/362 316/363/316 317/362/317
f 363/413/363 317/362/317 307/354/307 354/405/354
f 318/364/318 365/415/365 364/412/364 315/361/315
f 366/416/366 319/365/319 316/363/316 362/414/362
f 320/366/320 367/417/367 365/415/365 318/364/318
f 368/418/368 321/367/321 319/368/319 366/419/366
f 322/369/322 369/420/369 367/417/367 320/366/320
f 321/367/321 368/418/368 370/421/370 323/370/323
f 369/422/369 322/372/322 324/371/324 371/423/371
f 323/370/323 370/421/370 372/424/372 325/373/325
f 371/423/371 324/371/324 326/374/326 373/425/373
f 325/373/325 372/424/372 374/426/374 327/375/327
f 373/425/373 326/374/326 328/376/328 375/427/375
f 327/375/327 374/426/374 376/428/376 329/377/329
f 375/427/375 328/376/328 330/378/330 377/429/377
f 329/377/329 376/428/376 378/430/378 331/379/331
f 377/429/377 330/378/330 332/380/332 379/431/379
f 331/379/331 378/430/378 380/432/380 333/381/333
f 379/431/379 332/380/332 334/382/334 381/433/381
f 333/381/333 380/432/380 382/434/382 335/383/335
f 381/433/381 334/382/334 336/384/336 383/435/383
f 335/383/335 382/434/382 384/436/384 337/385/337
f 383/435/383 336/384/336 338/386/338 385/437/385
f 337/385/337 384/436/384 386/438/386 339/387/339
f 385/437/385 338/386/338 342/388/342 389/439/389
f 386/440/386 387/441/387 340/390/340 339/389/339
f 340/390/340 387/441/387 390/442/390 343/391/343
f 353/392/353 400/443/400 388/444/388 341/393/341
f 388/444/388 389/445/389 342/394/342 341/393/341
f 390/442/390 391/446/391 344/395/344 343/391/343
f 391/446/391 392/447/392 345/396/345 344/395/344
f 392/447/392 393/448/393 346/397/346 345/396/345
f 393/448/393 394/449/394 347/398/347 346/397/346
f 394/449/394 395/450/395 348/399/348 347/398/347
f 395/450/395 396/451/396 349/400/349 348/399/348
f 396/451/396 397/452/397 350/401/350 349/400/349
f 397/452/397 398/453/398 351/402/351 350/401/350
f 398/453/398 399/454/399 352/403/352 351/402/351
f 399/454/399 400/443/400 353/392/353 352/403/352
f 402/455/402 401/456/401 354/405/354 355/404/355
f 403/457/403 402/455/402 355/404/355 356/406/356
f 404/458/404 403/457/403 356/406/356 357/407/357
f 405/459/405 404/458/404 357/407/357 358/408/358
f 406/460/406 405/459/405 358/408/358 359/409/359
f 407/461/407 406/460/406 359/409/359 360/410/360
f 408/462/408 407/461/407 360/410/360 361/411/361
f 410/463/410 409/464/409 362/414/362 363/413/363
f 410/463/410 363/413/363 354/405/354 401/456/401
f 364/412/364 411/465/411 408/462/408 361/411/361
f 412/466/412 411/465/411 364/412/364 365/415/365
f 413/467/413 366/416/366 362/414/362 409/464/409
f 367/417/367 414/468/414 412/466/412 365/415/365
f 415/469/415 368/418/368 366/419/366 413/470/413
f 416/471/416 414/468/414 367/417/367 369/420/369
f 368/418/368 415/469/415 417/472/417 370/421/370
f 418/473/418 416/474/416 369/422/369 371/423/371
f 370/421/370 417/472/417 419/475/419 372/424/372
f 418/473/418 371/423/371 373/425/373 420/476/420
f 372/424/372 419/475/419 421/477/421 374/426/374
f 420/476/420 373/425/373 375/427/375 422/478/422
f 374/426/374 421/477/421 423/479/423 376/428/376
f 422/478/422 375/427/375 377/429/377 424/480/424
f 376/428/376 423/479/423 425/481/425 378/430/378
f 424/480/424 377/429/377 379/431/379 426/482/426
f 378/430/378 425/481/425 427/483/427 380/432/380
f 426/482/426 379/431/379 381/433/381 428/484/428
f 380/432/380 427/483/427 429/485/429 382/434/382
f 428/484/428 381/433/381 383/435/383 430/486/430
f 382/434/382 429/485/429 431/487/431 384/436/384
f 430/486/430 383/435/383 385/437/385 432/488/432
f 384/436/384 431/487/431 433/489/433 386/438/386
f 435/490/435 432/488/432 385/437/385 389/439/389
f 433/491/433 434/492/434 387/441/387 386/440/386
f 387/441/387 434/492/434 436/493/436 390/442/390
f 400/443/400 446/494/446 435/495/435 388/444/388
f 435/495/435 389/445/389 388/444/388
f 436/493/436 437/496/437 391/446/391 390/442/390
f 437/496/437 438/497/438 392/447/392 391/446/391
f 438/497/438 439/498/439 393/448/393 392/447/392
f 439/498/439 440/499/440 394/449/394 393/448/393
f 440/499/440 441/500/441 395/450/395 394/449/394
f 441/500/441 442/501/442 396/451/396 395/450/395
f 442/501/442 443/502/443 397/452/397 396/451/396
f 443/502/443 444/503/444 398/453/398 397/452/397
f 444/503/444 445/504/445 399/454/399 398/453/398
f 445/504/445 446/494/446 400/443/400 399/454/399
f 447/505/447 454/506/454 401/456/401 402/455/402
f 448/507/448 447/505/447 402/455/402 403/457/403
f 449/508/449 448/507/448 403/457/403 404/458/404
f 450/509/450 449/508/449 404/458/404 405/459/405
f 451/510/451 450/509/450 405/459/405 406/460/406
f 452/511/452 451/510/451 406/460/406 407/461/407
f 408/462/408 455/512/455 452/511/452 407/461/407
f 453/513/453 459/514/459 409/464/409 410/463/410
f 454/506/454 453/513/453 410/463/410 401/456/401
f 411/465/411 456/515/456 455/512/455 408/462/408
f 457/516/457 456/515/456 411/465/411 412/466/412
f 459/514/459 458/517/458 413/467/413 409/464/409
f 414/468/414 460/518/460 457/516/457 412/466/412
f 413/470/413 458/519/458 461/520/461 415/469/415
f 460/518/460 414/468/414 416/471/416 462/521/462
f 415/469/415 461/520/461 463/522/463 417/472/417
f 418/473/418 464/523/464 462/524/462 416/474/416
f 417/472/417 463/522/463 465/525/465 419/475/419
f 464/523/464 418/473/418 420/476/420 466/526/466
f 419/475/419 465/525/465 467/527/467 421/477/421
f 466/526/466 420/476/420 422/478/422 468/528/468
f 421/477/421 467/527/467 469/529/469 423/479/423
f 468/528/468 422/478/422 424/480/424 470/530/470
f 423/479/423 469/529/469 471/531/471 425/481/425
f 470/530/470 424/480/424 426/482/426 472/532/472
f 425/481/425 471/531/471 473/533/473 427/483/427
f 472/532/472 426/482/426 428/484/428 474/534/474
f 427/483/427 473/533/473 475/535/475 429/485/429
f 474/534/474 428/484/428 430/486/430 476/536/476
f 475/535/475 477/537/477 431/487/431 429/485/429
f 476/536/476 430/486/430 432/488/432 478/538/478
f 477/537/477 479/539/479 433/489/433 431/487/431
f 435/490/435 483/540/483 478/538/478 432/488/432
f 479/541/479 480/542/480 434/492/434 433/491/433
f 434/492/434 480/542/480 481/543/481 436/493/436
f 436/493/436 481/543/481 484/544/484 437/496/437
f 492/545/492 482/546/482 446/494/446 445/504/445
f 482/546/482 483/547/483 435/495/435 446/494/446
f 484/544/484 485/548/485 438/497/438 437/496/437
f 485/548/485 486/549/486 439/498/439 438/497/438
f 486/549/486 487/550/487 440/499/440 439/498/439
f 487/550/487 488/551/488 441/500/441 440/499/440
f 488/551/488 489/552/489 442/501/442 441/500/441
f 489/552/489 490/553/490 443/502/443 442/501/442
f 490/553/490 491/554/491 444/503/444 443/502/443
f 491/554/491 492/545/492 445/504/445 444/503/444
f 494/555/494 493/556/493 453/513/453 454/506/454
f 495/557/495 494/555/494 454/506/454 447/505/447
f 496/558/496 495/557/495 447/505/447 448/507/448
f 497/559/497 496/558/496 448/507/448 449/508/449
f 498/560/498 497/559/497 449/508/449 450/509/450
f 499/561/499 498/560/498 450/509/450 451/510/451
f 500/562/500 499/561/499 451/510/451 452/511/452
f 455/512/455 501/563/501 500/562/500 452/511/452
f 502/564/502 501/563/501 455/512/455 456/515/456
f 457/516/457 504/565/504 502/564/502 456/515/456
f 503/566/503 505/567/505 458/517/458 459/514/459
f 503/566/503 459/514/459 453/513/453 493/556/493
f 460/518/460 506/568/506 504/565/504 457/516/457
f 458/519/458 505/569/505 461/520/461
f 506/568/506 460/518/460 462/521/462
f 461/520/461 505/569/505 507/570/507 463/522/463
f 508/571/508 506/572/506 462/524/462 464/523/464
f 463/522/463 507/570/507 509/573/509 465/525/465
f 510/574/510 508/571/508 464/523/464 466/526/466
f 465/525/465 509/573/509 511/575/511 467/527/467
f 510/574/510 466/526/466 468/528/468 512/576/512
f 467/527/467 511/575/511 513/577/513 469/529/469
f 512/576/512 468/528/468 470/530/470 514/578/514
f 469/529/469 513/577/513 515/579/515 471/531/471
f 514/578/514 470/530/470 472/532/472 516/580/516
f 471/531/471 515/579/515 517/581/517 473/533/473
f 516/580/516 472/532/472 474/534/474 518/582/518
f 517/581/517 519/583/519 475/535/475 473/533/473
f 518/582/518 474/534/474 476/536/476 520/584/520
f 519/583/519 521/585/521 477/537/477 475/535/475
f 522/586/522 520/584/520 476/536/476 478/538/478
f 521/585/521 523/587/523 479/539/479 477/537/477
f 483/540/483 529/588/529 522/586/522 478/538/478
f 479/541/479 523/589/523 480/542/480
f 523/589/523 524/590/524 481/543/481 480/542/480
f 481/543/481 524/590/524 525/591/525 484/544/484
f 525/591/525 526/592/526 485/548/485 484/544/484
f 485/548/485 526/592/526 530/593/530 486/549/486
f 535/594/535 527/595/527 492/545/492 491/554/491
f 527/595/527 528/596/528 482/546/482 492/545/492
f 528/596/528 529/597/529 483/547/483 482/546/482
f 530/593/530 531/598/531 487/550/487 486/549/486
f 531/598/531 532/599/532 488/551/488 487/550/487
f 532/599/532 533/600/533 489/552/489 488/551/488
f 533/600/533 534/601/534 490/553/490 489/552/489
f 534/601/534 535/594/535 491/554/491 490/553/490
f 536/602/536 544/603/544 494/555/494 495/557/495
f 537/604/537 536/602/536 495/557/495 496/558/496
f 538/605/538 537/604/537 496/558/496 497/559/497
f 539/606/539 538/605/538 497/559/497 498/560/498
f 540/607/540 539/606/539 498/560/498 499/561/499
f 541/608/541 540/607/540 499/561/499 500/562/500
f 542/609/542 541/608/541 500/562/500 501/563/501
f 502/564/502 545/610/545 542/609/542 501/563/501
f 493/556/493 543/611/543 547/612/547 503/566/503
f 544/603/544 543/611/543 493/556/493 494/555/494
f 504/565/504 546/613/546 545/610/545 502/564/502
f 503/566/503 547/612/547 549/614/549 505/567/505
f 548/615/548 546/613/546 504/565/504 506/568/506
f 505/569/505 549/616/549 507/570/507
f 550/617/550 548/618/548 506/572/506 508/571/508
f 507/570/507 549/616/549 551/619/551 509/573/509
f 552/620/552 550/617/550 508/571/508 510/574/510
f 511/575/511 509/573/509 551/619/551 553/621/553
f 554/622/554 552/620/552 510/574/510 512/576/512
f 513/577/513 511/575/511 553/621/553 555/623/555
f 556/624/556 554/622/554 512/576/512 514/578/514
f 515/579/515 513/577/513 555/623/555 557/625/557
f 558/626/558 556/624/556 514/578/514 516/580/516
f 517/581/517 515/579/515 557/625/557 559/627/559
f 560/628/560 558/626/558 516/580/516 518/582/518
f 559/627/559 561/629/561 519/583/519 517/581/517
f 562/630/562 560/628/560 518/582/518 520/584/520
f 561/629/561 563/631/563 521/585/521 519/583/519
f 522/586/522 566/632/566 562/630/562 520/584/520
f 563/631/563 567/633/567 523/587/523 521/585/521
f 577/634/577 566/632/566 522/586/522 529/588/529
f 523/589/523 567/635/567 524/590/524
f 567/635/567 568/636/568 525/591/525 524/590/524
f 568/636/568 569/637/569 526/592/526 525/591/525
f 526/592/526 569/637/569 570/638/570 530/593/530
f 570/638/570 571/639/571 531/598/531 530/593/530
f 571/639/571 572/640/572 532/599/532 531/598/531
f 572/640/572 573/641/573 533/600/533 532/599/532
f 573/641/573 574/642/574 534/601/534 533/600/533
f 574/642/574 575/643/575 535/594/535 534/601/534
f 575/643/575 576/644/576 527/595/527 535/594/535
f 576/644/576 577/645/577 528/596/528 527/595/527
f 577/645/577 529/597/529 528/596/528
f 578/646/578 586/647/586 543/611/543 544/603/544
f 579/648/579 578/646/578 544/603/544 536/602/536
f 580/649/580 579/648/579 536/602/536 537/604/537
f 581/650/581 580/649/580 537/604/537 538/605/538
f 582/651/582 581/650/581 538/605/538 539/606/539
f 583/652/583 582/651/582 539/606/539 540/607/540
f 584/653/584 583/652/583 540/607/540 541/608/541
f 585/654/585 584/653/584 541/608/541 542/609/542
f 545/610/545 591/655/591 585/654/585 542/609/542
f 543/656/543 586/657/586 592/658/592 547/659/547
f 545/610/545 546/613/546 548/615/548 591/655/591
f 547/659/547 592/658/592 549/660/549
f 595/661/595 591/662/591 548/663/548 550/664/550
f 551/665/551 549/660/549 592/658/592 596/666/596
f 599/667/599 595/661/595 550/664/550 552/668/552
f 553/669/553 551/665/551 596/666/596 600/670/600
f 601/671/601 599/667/599 552/668/552 554/672/554
f 555/673/555 553/669/553 600/670/600 602/674/602
f 603/675/603 601/671/601 554/672/554 556/676/556
f 557/677/557 555/673/555 602/674/602 604/678/604
f 606/679/606 603/675/603 556/676/556 558/680/558
f 559/681/559 557/677/557 604/678/604 607/682/607
f 610/683/610 606/679/606 558/680/558 560/684/560
f 561/685/561 559/681/559 607/682/607 611/686/611
f 616/687/616 610/683/610 560/684/560 562/688/562
f 611/686/611 563/689/563 561/685/561
f 611/686/611 612/690/612 564/691/564 563/689/563
f 564/691/564 612/690/612 613/692/613 617/693/617
f 625/694/625 615/695/615 616/687/616 565/696/565
f 562/688/562 566/697/566 565/696/565 616/687/616
f 567/698/567 563/689/563 564/691/564
f 568/699/568 567/698/567 564/691/564 617/693/617
f 617/693/617 618/700/618 569/701/569 568/699/568
f 618/700/618 619/702/619 570/703/570 569/701/569
f 619/702/619 620/704/620 571/705/571 570/703/570
f 620/704/620 621/706/621 572/707/572 571/705/571
f 621/706/621 622/708/622 573/709/573 572/707/572
f 622/708/622 623/710/623 574/711/574 573/709/573
f 623/710/623 624/712/624 575/713/575 574/711/574
f 624/712/624 625/694/625 576/714/576 575/713/575
f 565/696/565 577/715/577 576/714/576 625/694/625
f 566/697/566 577/715/577 565/696/565
f 586/647/586 578/646/578 587/716/587
f 578/646/578 579/648/579 588/717/588 587/716/587
f 588/717/588 579/648/579 580/649/580 626/718/626
f 627/719/627 626/718/626 580/649/580 581/650/581
f 628/720/628 627/719/627 581/650/581 582/651/582
f 629/721/629 628/720/628 582/651/582 583/652/583
f 583/652/583 584/653/584 589/722/589 629/721/629
f 584/653/584 585/654/585 590/723/590 589/722/589
f 585/654/585 591/655/591 590/723/590
f 592/658/592 586/657/586 593/724/593
f 593/724/593 586/657/586 587/725/587 630/726/630
f 631/727/631 630/726/630 587/725/587 588/728/588
f 631/727/631 588/728/588 626/729/626 632/730/632
f 636/731/636 635/732/635 629/733/629 589/734/589
f 637/735/637 636/731/636 589/734/589 590/736/590
f 590/736/590 591/662/591 594/737/594 637/735/637
f 591/662/591 595/661/595 594/737/594
f 592/658/592 593/724/593 597/738/597 596/666/596
f 597/738/597 593/724/593 630/726/630 638/739/638
f 645/740/645 637/735/637 594/737/594 598/741/598
f 594/737/594 595/661/595 599/667/599 598/741/598
f 600/670/600 596/666/596 597/738/597 646/742/646
f 646/742/646 597/738/597 638/739/638 647/743/647
f 655/744/655 654/745/654 645/740/645 598/741/598
f 598/741/598 599/667/599 601/671/601 655/744/655
f 602/674/602 600/670/600 646/742/646 656/746/656
f 665/747/665 655/744/655 601/671/601 603/675/603
f 605/748/605 604/678/604 602/674/602 656/746/656
f 605/748/605 656/746/656 657/749/657 666/750/666
f 674/751/674 665/747/665 603/675/603 606/679/606
f 604/678/604 605/748/605 608/752/608 607/682/607
f 608/752/608 605/748/605 666/750/666 675/753/675
f 682/754/682 673/755/673 674/751/674 609/756/609
f 606/679/606 610/683/610 609/756/609 674/751/674
f 607/682/607 608/752/608 612/690/612 611/686/611
f 613/692/613 612/690/612 608/752/608 675/753/675
f 613/692/613 675/753/675 676/757/676 683/758/683
f 688/759/688 681/760/681 682/754/682 614/761/614
f 609/756/609 615/695/615 614/761/614 682/754/682
f 609/756/609 610/683/610 616/687/616 615/695/615
f 618/700/618 617/693/617 613/692/613 683/758/683
f 683/758/683 684/762/684 619/702/619 618/700/618
f 684/762/684 685/763/685 620/704/620 619/702/619
f 685/763/685 686/764/686 621/706/621 620/704/620
f 686/764/686 687/765/687 622/708/622 621/706/621
f 687/765/687 688/759/688 623/710/623 622/708/622
f 614/761/614 624/712/624 623/710/623 688/759/688
f 614/761/614 615/695/615 625/694/625 624/712/624
f 626/729/626 627/766/627 633/767/633 632/730/632
f 627/766/627 628/768/628 634/769/634 633/767/633
f 628/768/628 629/733/629 635/732/635 634/769/634
f 630/726/630 631/727/631 639/770/639 638/739/638
f 631/727/631 632/730/632 640/771/640 639/770/639
f 632/730/632 633/767/633 641/772/641 640/771/640
f 633/767/633 634/769/634 642/773/642 641/772/641
f 634/769/634 635/732/635 643/774/643 642/773/642
f 635/732/635 636/731/636 644/775/644 643/774/643
f 636/731/636 637/735/637 645/740/645 644/775/644
f 638/739/638 639/770/639 648/776/648 647/743/647
f 639/770/639 640/771/640 649/777/649 648/776/648
f 640/771/640 641/772/641 650/778/650 649/777/649
f 641/772/641 642/773/642 651/779/651 650/778/650
f 642/773/642 643/774/643 652/780/652 651/779/651
f 643/774/643 644/775/644 653/781/653 652/780/652
f 644/775/644 645/740/645 654/745/654 653/781/653
f 646/742/646 647/743/647 657/749/657 656/746/656
f 647/743/647 648/776/648 658/782/658 657/749/657
f 648/776/648 649/777/649 659/783/659 658/782/658
f 649/777/649 650/778/650 660/784/660 659/783/659
f 650/778/650 651/779/651 661/785/661 660/784/660
f 651/779/651 652/780/652 662/786/662 661/785/661
f 652/780/652 653/781/653 663/787/663 662/786/662
f 653/781/653 654/745/654 664/788/664 663/787/663
f 654/745/654 655/744/655 665/747/665 664/788/664
f 657/749/657 658/782/658 667/789/667 666/750/666
f 658/782/658 659/783/659 668/790/668 667/789/667
f 659/783/659 660/784/660 669/791/669 668/790/668
f 660/784/660 661/785/661 670/792/670 669/791/669
f 661/785/661 662/786/662 671/793/671 670/792/670
f 662/786/662 663/787/663 672/794/672 671/793/671
f 663/787/663 664/788/664 673/755/673 672/794/672
f 664/788/664 665/747/665 674/751/674 673/755/673
f 666/750/666 667/789/667 676/757/676 675/753/675
f 667/789/667 668/790/668 677/795/677 676/757/676
f 668/790/668 669/791/669 678/796/678 677/795/677
f 669/791/669 670/792/670 679/797/679 678/796/678
f 670/792/670 671/793/671 680/798/680 679/797/679
f 671/793/671 672/794/672 681/760/681 680/798/680
f 672/794/672 673/755/673 682/754/682 681/760/681
f 676/757/676 677/795/677 684/762/684 683/758/683
f 677/795/677 678/796/678 685/763/685 684/762/684
f 678/796/678 679/797/679 686/764/686 685/763/685
f 679/797/679 680/798/680 687/765/687 686/764/686
f 680/798/680 681/760/681 688/759/688 687/765/687
