# Blender 4.2.0
# www.blender.org
mtllib TriRock.mtl
o TriRock
v 0.775265 0.001452 -0.389259
v 0.857255 0.008350 -0.387402
v 0.706004 -0.068882 -0.382978
v 0.772242 -0.072552 -0.378225
v 0.854510 -0.073769 -0.379060
v 0.940977 -0.071701 -0.383815
v 0.964038 0.163776 -0.476578
v 1.050480 0.172551 -0.472169
v 1.134707 0.178667 -0.471285
v 1.216780 0.178830 -0.473714
v 1.303503 0.182257 -0.479155
v 0.775613 0.065111 -0.433531
v 0.863975 0.095895 -0.432241
v 0.954151 0.103268 -0.430558
v 1.044511 0.104918 -0.432887
v 1.132671 0.105187 -0.435398
v 1.219530 0.104030 -0.441185
v 1.306358 0.102322 -0.451202
v 1.394521 0.100725 -0.465481
v 1.481886 0.100810 -0.471343
v 0.699165 -0.001243 -0.415721
v 0.945724 0.017444 -0.394353
v 1.040260 0.021734 -0.405969
v 1.132680 0.022725 -0.411963
v 1.221888 0.022085 -0.423825
v 1.310497 0.021012 -0.430894
v 1.397601 0.017364 -0.444585
v 1.480397 0.012425 -0.458054
v 1.564582 0.011203 -0.475913
v 0.644764 -0.067666 -0.436272
v 1.037095 -0.069479 -0.399578
v 1.132518 -0.070075 -0.408055
v 1.222570 -0.069583 -0.421669
v 1.312136 -0.070079 -0.424178
v 1.400161 -0.070283 -0.436052
v 1.482057 -0.071272 -0.451761
v 1.564415 -0.073196 -0.469869
v 0.682274 -0.122252 -0.422135
v 0.763642 -0.149144 -0.418182
v 0.855993 -0.150671 -0.421312
v 0.945649 -0.155239 -0.421464
v 1.040874 -0.156720 -0.428496
v 1.138039 -0.159824 -0.432775
v 1.227053 -0.156618 -0.434210
v 1.313624 -0.154667 -0.436918
v 1.398932 -0.151990 -0.445564
v 1.480599 -0.151616 -0.456665
v 1.567355 -0.157494 -0.471272
v 1.235876 -0.206083 -0.475323
v 1.315601 -0.205197 -0.468619
v 1.397650 -0.208162 -0.469065
v 1.477306 -0.214207 -0.478203
v 1.055043 0.233633 -0.534644
v 1.141537 0.263434 -0.534480
v 1.223199 0.272142 -0.533327
v 1.308857 0.275258 -0.534753
v 1.399119 0.283191 -0.536229
v 1.487888 0.286999 -0.536318
v 1.575337 0.283179 -0.544604
v 1.659398 0.275330 -0.558596
v 1.745729 0.274979 -0.569981
v 0.881963 0.161555 -0.505076
v 0.961789 0.204398 -0.525165
v 1.395355 0.188209 -0.494359
v 1.485627 0.194730 -0.499349
v 1.575145 0.196653 -0.512044
v 1.662174 0.193477 -0.531374
v 1.747625 0.191067 -0.552077
v 0.780014 0.093280 -0.511689
v 1.570987 0.103721 -0.488261
v 1.665412 0.108303 -0.505012
v 1.752052 0.106024 -0.532946
v 1.838996 0.103645 -0.556558
v 0.697838 0.014875 -0.508165
v 1.662744 0.015270 -0.495137
v 1.753936 0.015639 -0.518490
v 1.834875 0.012621 -0.543041
v 1.917079 0.010972 -0.570825
v 0.655657 -0.068064 -0.511054
v 1.662378 -0.073276 -0.491687
v 1.756136 -0.072676 -0.507774
v 1.838385 -0.071370 -0.533070
v 1.916250 -0.069814 -0.572109
v 0.690349 -0.137260 -0.510161
v 0.767407 -0.165121 -0.511972
v 0.858949 -0.172239 -0.513935
v 0.951314 -0.173706 -0.515204
v 1.047597 -0.185701 -0.514822
v 1.663962 -0.157550 -0.497426
v 1.755145 -0.156245 -0.520669
v 1.838530 -0.152988 -0.557304
v 1.159794 -0.202208 -0.508439
v 1.236699 -0.214076 -0.523290
v 1.314146 -0.226252 -0.521240
v 1.398502 -0.242951 -0.518328
v 1.482289 -0.250699 -0.518481
v 1.560320 -0.240164 -0.507944
v 1.666837 -0.234170 -0.531000
v 1.753978 -0.224557 -0.554523
v 1.589602 0.536876 -0.662869
v 1.668545 0.538283 -0.663307
v 1.328366 0.411806 -0.642364
v 1.410864 0.450025 -0.637832
v 1.494575 0.461622 -0.630113
v 1.582759 0.457777 -0.627279
v 1.666090 0.459666 -0.624864
v 1.752314 0.462967 -0.634883
v 1.840602 0.464449 -0.647899
v 1.152600 0.314987 -0.616900
v 1.245018 0.356747 -0.617147
v 1.320784 0.359145 -0.596748
v 1.403018 0.372098 -0.588203
v 1.489157 0.376317 -0.584684
v 1.577559 0.372041 -0.591710
v 1.664044 0.373151 -0.587730
v 1.749864 0.370838 -0.601761
v 1.837872 0.372865 -0.620878
v 1.921844 0.372966 -0.655801
v 1.060187 0.260420 -0.611760
v 1.836128 0.280886 -0.601519
v 1.924229 0.282618 -0.637865
v 0.876401 0.146643 -0.595310
v 0.959371 0.208470 -0.602446
v 1.838894 0.193760 -0.580191
v 1.926525 0.193604 -0.611717
v 1.996563 0.189574 -0.652246
v 0.794119 0.075529 -0.590119
v 1.923354 0.101274 -0.589023
v 1.997263 0.102174 -0.636191
v 0.732209 0.008593 -0.589210
v 1.999798 0.013535 -0.623792
v 0.706264 -0.067364 -0.594209
v 1.997246 -0.069144 -0.624162
v 0.728388 -0.126551 -0.590952
v 0.784246 -0.145543 -0.592662
v 0.862995 -0.163785 -0.603428
v 0.952539 -0.171280 -0.605210
v 1.047735 -0.185838 -0.601589
v 1.919309 -0.148020 -0.591958
v 1.974685 -0.144457 -0.635409
v 1.149595 -0.198557 -0.593354
v 1.238621 -0.203564 -0.591510
v 1.316439 -0.220982 -0.596632
v 1.400991 -0.236999 -0.600298
v 1.490162 -0.252042 -0.600867
v 1.578514 -0.262128 -0.600997
v 1.669401 -0.267606 -0.604147
v 1.756213 -0.255969 -0.607649
v 1.831228 -0.226809 -0.601680
v 1.920816 -0.198121 -0.628939
v 1.515310 0.583586 -0.728022
v 1.591411 0.611243 -0.717962
v 1.669527 0.631977 -0.709555
v 1.756047 0.638166 -0.717602
v 1.841017 0.639340 -0.724314
v 1.918921 0.631220 -0.748489
v 1.434206 0.518729 -0.709373
v 1.506987 0.537910 -0.678778
v 1.753965 0.549396 -0.671244
v 1.841567 0.554217 -0.683379
v 1.927110 0.552996 -0.715406
v 1.328935 0.442584 -0.704912
v 1.926711 0.464600 -0.679159
v 1.991822 0.461987 -0.733277
v 1.154279 0.314935 -0.691689
v 1.236141 0.373541 -0.696656
v 1.996813 0.374457 -0.710367
v 1.060725 0.249622 -0.686653
v 2.009981 0.272019 -0.692258
v 0.966272 0.181954 -0.680607
v 2.037620 0.192498 -0.701956
v 0.884371 0.107456 -0.674049
v 2.053935 0.106097 -0.695815
v 0.805445 0.022843 -0.664005
v 2.056176 0.014778 -0.694817
v 0.790838 -0.063297 -0.674950
v 2.047082 -0.073754 -0.695126
v 0.806805 -0.120817 -0.658596
v 0.876757 -0.139987 -0.677349
v 0.956431 -0.151009 -0.689602
v 1.046106 -0.164462 -0.690501
v 1.142938 -0.182580 -0.684385
v 2.005143 -0.154689 -0.694851
v 1.236639 -0.194917 -0.678720
v 1.317414 -0.206270 -0.682531
v 1.403649 -0.209388 -0.685079
v 1.494902 -0.224709 -0.684348
v 1.582313 -0.235556 -0.684935
v 1.669210 -0.251691 -0.687882
v 1.758779 -0.252511 -0.687257
v 1.844165 -0.243842 -0.686575
v 1.922988 -0.209328 -0.690472
v 1.669494 0.693678 -0.789171
v 1.757491 0.715455 -0.788152
v 1.844972 0.718562 -0.788100
v 1.923025 0.690446 -0.797995
v 1.512420 0.603983 -0.785045
v 1.586774 0.655570 -0.787327
v 1.972782 0.632211 -0.797048
v 1.428851 0.526516 -0.779864
v 2.004503 0.544059 -0.775728
v 1.333871 0.442559 -0.776568
v 2.023410 0.465267 -0.789600
v 1.240034 0.358690 -0.773630
v 2.032517 0.378068 -0.786784
v 1.155021 0.279584 -0.768710
v 2.047354 0.287508 -0.784499
v 0.995186 0.142784 -0.753370
v 1.069173 0.207428 -0.759710
v 2.055823 0.197956 -0.783944
v 0.922540 0.083174 -0.739798
v 0.979335 0.086714 -0.794482
v 2.058643 0.108128 -0.782446
v 0.890984 0.010688 -0.754818
v 2.054264 0.017253 -0.780708
v 0.884782 -0.060875 -0.757409
v 2.038795 -0.070859 -0.777973
v 0.886241 -0.113174 -0.726452
v 0.966894 -0.122062 -0.764246
v 1.051640 -0.139264 -0.773928
v 1.138438 -0.154551 -0.775407
v 1.228774 -0.165533 -0.774289
v 1.313009 -0.173522 -0.776464
v 1.402993 -0.185056 -0.776220
v 1.985706 -0.141962 -0.765550
v 1.498306 -0.191467 -0.766935
v 1.584098 -0.205123 -0.767025
v 1.668969 -0.212269 -0.769106
v 1.755842 -0.213740 -0.768223
v 1.840368 -0.207664 -0.764573
v 1.917555 -0.186490 -0.758606
v 1.669075 0.715237 -0.870947
v 1.757110 0.750586 -0.871469
v 1.848128 0.755215 -0.871569
v 1.933902 0.717868 -0.872233
v 1.516284 0.583617 -0.853216
v 1.588935 0.653369 -0.863570
v 1.991516 0.640246 -0.870477
v 1.430629 0.503874 -0.850448
v 2.012265 0.554385 -0.868044
v 1.341920 0.414330 -0.849685
v 2.025411 0.467987 -0.870504
v 1.248932 0.326200 -0.848958
v 2.033415 0.377758 -0.873746
v 1.161584 0.243888 -0.843829
v 2.035647 0.287919 -0.874185
v 1.086188 0.167100 -0.828838
v 2.032804 0.200681 -0.870512
v 1.063488 0.094956 -0.866654
v 2.019000 0.115125 -0.863669
v 0.976007 0.014608 -0.831536
v 2.002085 0.028161 -0.858817
v 0.987511 -0.065321 -0.835958
v 1.977394 -0.051998 -0.848489
v 1.067829 -0.097373 -0.844769
v 1.143631 -0.122325 -0.858258
v 1.229784 -0.134567 -0.859279
v 1.313453 -0.142284 -0.864472
v 1.401747 -0.151060 -0.866986
v 1.492009 -0.164579 -0.866099
v 1.578669 -0.165199 -0.864197
v 1.664421 -0.160680 -0.861787
v 1.749963 -0.150070 -0.855710
v 1.838109 -0.139080 -0.851527
v 1.928648 -0.122199 -0.833984
v 1.678191 0.687991 -0.949578
v 1.761624 0.729085 -0.950891
v 1.846100 0.739934 -0.956230
v 1.926462 0.701476 -0.950149
v 1.594679 0.610984 -0.944260
v 1.967781 0.632652 -0.941984
v 1.512853 0.528051 -0.938949
v 1.985876 0.551430 -0.948429
v 1.424938 0.442036 -0.941317
v 1.990012 0.464526 -0.953790
v 1.340006 0.348531 -0.938851
v 1.996274 0.375599 -0.958440
v 1.254543 0.260454 -0.930810
v 1.998540 0.288551 -0.959100
v 1.174614 0.182997 -0.918175
v 1.991969 0.204135 -0.954001
v 1.144173 0.101576 -0.952065
v 1.969710 0.123688 -0.942814
v 1.064073 0.019590 -0.901141
v 1.140095 0.021377 -0.968589
v 1.938575 0.040939 -0.937163
v 1.069953 -0.050458 -0.898904
v 1.160199 -0.061510 -0.941119
v 1.824901 -0.073638 -0.935363
v 1.900757 -0.042941 -0.920513
v 1.239098 -0.099901 -0.940226
v 1.320063 -0.117367 -0.947902
v 1.405818 -0.128153 -0.949666
v 1.488652 -0.134380 -0.950492
v 1.573107 -0.132261 -0.951148
v 1.659307 -0.122174 -0.951180
v 1.742214 -0.101533 -0.945225
v 1.766153 0.684444 -1.010839
v 1.836198 0.685003 -1.008733
v 1.696537 0.622225 -1.028018
v 1.763856 0.633324 -1.053583
v 1.834642 0.634078 -1.047353
v 1.904385 0.643092 -1.005071
v 1.599076 0.536287 -1.028111
v 1.918906 0.550454 -1.030063
v 1.513813 0.459006 -1.029742
v 1.933259 0.462865 -1.046042
v 1.433360 0.378906 -1.034738
v 1.942405 0.373832 -1.044427
v 1.355441 0.286267 -1.029527
v 1.938895 0.289705 -1.042035
v 1.261613 0.192128 -1.015921
v 1.927456 0.204054 -1.042118
v 1.232947 0.102739 -1.040720
v 1.905677 0.124331 -1.031083
v 1.227249 0.024394 -1.047947
v 1.869222 0.050162 -1.020382
v 1.252481 -0.047783 -1.017944
v 1.329085 -0.077113 -1.028745
v 1.658172 -0.085349 -1.040499
v 1.736921 -0.062127 -1.031605
v 1.815424 -0.024153 -1.008197
v 1.411883 -0.097367 -1.030954
v 1.489967 -0.103388 -1.029342
v 1.572429 -0.104032 -1.035335
v 1.683816 0.511146 -1.108797
v 1.757463 0.542524 -1.115824
v 1.839185 0.550209 -1.092721
v 1.532784 0.403890 -1.108849
v 1.601639 0.455558 -1.114391
v 1.850720 0.454674 -1.116777
v 1.477198 0.351564 -1.116654
v 1.875324 0.367664 -1.116753
v 1.417112 0.268779 -1.121808
v 1.875412 0.289161 -1.115083
v 1.350602 0.184939 -1.122926
v 1.857229 0.204403 -1.124652
v 1.319647 0.105755 -1.134630
v 1.830002 0.122695 -1.123797
v 1.319329 0.028340 -1.127182
v 1.798365 0.049812 -1.109389
v 1.330524 -0.033584 -1.088004
v 1.413763 -0.042958 -1.118218
v 1.492844 -0.053347 -1.128729
v 1.573465 -0.059653 -1.129977
v 1.656409 -0.042390 -1.129822
v 1.741935 -0.012000 -1.100035
v 1.678497 0.428593 -1.191039
v 1.765117 0.437395 -1.184150
v 1.531134 0.346169 -1.170458
v 1.606049 0.372494 -1.210583
v 1.672522 0.362370 -1.238262
v 1.747847 0.362575 -1.223309
v 1.805986 0.359654 -1.183171
v 1.493017 0.260061 -1.215859
v 1.751917 0.281691 -1.246558
v 1.816525 0.284657 -1.190300
v 1.427714 0.189105 -1.208158
v 1.496746 0.192933 -1.252255
v 1.744786 0.202484 -1.243467
v 1.801381 0.204864 -1.199049
v 1.405506 0.108775 -1.212258
v 1.489963 0.111189 -1.256387
v 1.752224 0.133390 -1.213045
v 1.407794 0.024700 -1.187096
v 1.505825 0.015796 -1.216836
v 1.574714 0.049509 -1.246196
v 1.639473 0.029593 -1.209057
v 1.730770 0.046835 -1.170863
v 1.574301 -0.015495 -1.193627
v 1.588267 0.270747 -1.262356
v 1.666187 0.275084 -1.269828
v 1.579650 0.195704 -1.278713
v 1.658138 0.199130 -1.275018
v 1.573874 0.119126 -1.274784
v 1.653835 0.122784 -1.264530
vn -0.1561 0.3640 0.9182
vn -0.0242 0.2961 0.9548
vn -0.3768 -0.0642 0.9241
vn -0.0922 -0.1505 0.9843
vn 0.0205 -0.1824 0.9830
vn 0.0829 -0.1568 0.9841
vn -0.1389 0.6808 0.7192
vn -0.0824 0.6086 0.7892
vn -0.0345 0.5342 0.8447
vn 0.0289 0.4714 0.8815
vn 0.0722 0.4190 0.9051
vn -0.4228 0.7067 0.5673
vn -0.2086 0.6455 0.7347
vn -0.0423 0.5180 0.8543
vn 0.0119 0.4201 0.9074
vn 0.0449 0.3573 0.9329
vn 0.0811 0.3141 0.9459
vn 0.1207 0.2899 0.9494
vn 0.1181 0.2656 0.9568
vn 0.1272 0.2198 0.9672
vn -0.6353 0.5158 0.5748
vn 0.0611 0.2482 0.9668
vn 0.0794 0.1980 0.9770
vn 0.0903 0.1560 0.9836
vn 0.0987 0.1386 0.9854
vn 0.1150 0.1536 0.9814
vn 0.1494 0.1548 0.9766
vn 0.1750 0.1215 0.9770
vn 0.1973 0.0909 0.9761
vn -0.9542 0.0384 0.2967
vn 0.0995 -0.1275 0.9868
vn 0.0909 -0.1027 0.9906
vn 0.0789 -0.0667 0.9946
vn 0.0875 -0.0351 0.9955
vn 0.1513 -0.0110 0.9884
vn 0.1851 0.0093 0.9827
vn 0.2106 0.0136 0.9775
vn -0.6160 -0.6070 0.5021
vn -0.1449 -0.8112 0.5665
vn -0.0112 -0.7970 0.6039
vn 0.0141 -0.7653 0.6435
vn 0.0055 -0.7101 0.7041
vn -0.0178 -0.6170 0.7868
vn -0.0049 -0.4606 0.8876
vn 0.0476 -0.3392 0.9395
vn 0.1093 -0.2613 0.9591
vn 0.1573 -0.2136 0.9642
vn 0.2090 -0.2173 0.9535
vn -0.0839 -0.8584 0.5060
vn -0.0395 -0.7527 0.6572
vn 0.0043 -0.6408 0.7677
vn 0.0712 -0.5681 0.8199
vn -0.2710 0.8200 0.5041
vn -0.2088 0.7381 0.6416
vn -0.0930 0.6473 0.7565
vn -0.0366 0.5550 0.8310
vn -0.0251 0.4754 0.8794
vn 0.0439 0.4288 0.9023
vn 0.1205 0.3848 0.9151
vn 0.1498 0.3160 0.9368
vn 0.2184 0.2562 0.9416
vn -0.4437 0.8449 0.2986
vn -0.3493 0.8627 0.3657
vn 0.0599 0.3690 0.9275
vn 0.0791 0.3268 0.9418
vn 0.1628 0.3044 0.9385
vn 0.2097 0.2801 0.9368
vn 0.2539 0.2453 0.9356
vn -0.6132 0.7891 0.0350
vn 0.1767 0.1900 0.9657
vn 0.2286 0.1917 0.9545
vn 0.2737 0.1913 0.9426
vn 0.3080 0.1868 0.9328
vn -0.7835 0.6057 -0.1389
vn 0.2155 0.0921 0.9722
vn 0.2632 0.1182 0.9575
vn 0.3227 0.1165 0.9393
vn 0.4481 0.0771 0.8907
vn -0.9673 0.0085 -0.2534
vn 0.2153 -0.0021 0.9765
vn 0.2660 -0.0282 0.9636
vn 0.3638 -0.0655 0.9292
vn 0.4784 -0.1080 0.8715
vn -0.6448 -0.7449 -0.1714
vn -0.2189 -0.9752 -0.0332
vn -0.0721 -0.9966 0.0399
vn -0.0702 -0.9928 0.0968
vn -0.1078 -0.9820 0.1551
vn 0.2352 -0.2410 0.9416
vn 0.3081 -0.2972 0.9038
vn 0.3956 -0.3592 0.8453
vn -0.1181 -0.9679 0.2218
vn -0.1266 -0.9906 0.0525
vn -0.1481 -0.9780 0.1469
vn -0.1208 -0.9569 0.2640
vn -0.0442 -0.9367 0.3473
vn 0.1093 -0.7667 0.6326
vn 0.1851 -0.7096 0.6799
vn 0.2963 -0.6538 0.6963
vn -0.1087 0.5189 0.8479
vn -0.0089 0.4515 0.8922
vn -0.3881 0.7301 0.5624
vn -0.2948 0.6501 0.7003
vn -0.1192 0.5298 0.8397
vn -0.0261 0.4317 0.9017
vn 0.0328 0.3971 0.9172
vn 0.1176 0.3621 0.9247
vn 0.2419 0.3161 0.9174
vn -0.4247 0.8636 0.2717
vn -0.3385 0.8023 0.4917
vn -0.1640 0.6172 0.7695
vn -0.1258 0.5391 0.8328
vn -0.0024 0.4754 0.8798
vn 0.0423 0.4157 0.9085
vn 0.0749 0.3545 0.9320
vn 0.1748 0.3002 0.9377
vn 0.2861 0.2442 0.9266
vn 0.4705 0.2068 0.8578
vn -0.4712 0.8790 0.0731
vn 0.3163 0.2290 0.9206
vn 0.4536 0.2293 0.8612
vn -0.6073 0.7519 -0.2567
vn -0.5225 0.8461 -0.1059
vn 0.3144 0.2336 0.9201
vn 0.4340 0.2330 0.8702
vn 0.6252 0.2044 0.7533
vn -0.6447 0.6734 -0.3619
vn 0.4357 0.1698 0.8839
vn 0.6388 0.1329 0.7578
vn -0.7338 0.4623 -0.4978
vn 0.6652 0.0322 0.7460
vn -0.8000 -0.0221 -0.5996
vn 0.6905 -0.1674 0.7037
vn -0.5778 -0.6393 -0.5074
vn -0.2666 -0.9114 -0.3136
vn -0.1649 -0.9586 -0.2322
vn -0.1155 -0.9819 -0.1504
vn -0.1383 -0.9837 -0.1149
vn 0.4822 -0.3698 0.7942
vn 0.6651 -0.4740 0.5770
vn -0.1168 -0.9879 -0.1021
vn -0.1429 -0.9830 -0.1152
vn -0.1704 -0.9754 -0.1397
vn -0.1493 -0.9743 -0.1685
vn -0.1020 -0.9860 -0.1318
vn -0.0492 -0.9986 -0.0175
vn 0.0405 -0.9934 0.1074
vn 0.1876 -0.9552 0.2287
vn 0.3626 -0.7857 0.5012
vn 0.4955 -0.7205 0.4852
vn -0.4469 0.7513 0.4857
vn -0.2774 0.6976 0.6607
vn -0.1216 0.6345 0.7633
vn 0.0089 0.5819 0.8132
vn 0.1772 0.5330 0.8273
vn 0.4469 0.4737 0.7589
vn -0.5139 0.7620 0.3940
vn -0.2614 0.6303 0.7310
vn 0.0746 0.4208 0.9041
vn 0.2120 0.3971 0.8930
vn 0.4761 0.3594 0.8026
vn -0.5729 0.7982 0.1861
vn 0.4775 0.2729 0.8352
vn 0.7450 0.2018 0.6358
vn -0.5727 0.8058 -0.1504
vn -0.5807 0.8139 0.0155
vn 0.7520 0.1840 0.6330
vn -0.5587 0.7713 -0.3048
vn 0.7612 0.2120 0.6129
vn -0.5772 0.7025 -0.4163
vn 0.8842 0.1625 0.4380
vn -0.6271 0.5954 -0.5022
vn 0.9180 0.0851 0.3874
vn -0.6776 0.3988 -0.6179
vn 0.9469 -0.0370 0.3193
vn -0.6765 -0.0832 -0.7317
vn 0.9298 -0.2930 0.2229
vn -0.4839 -0.6453 -0.5911
vn -0.2532 -0.8808 -0.4002
vn -0.1779 -0.9287 -0.3255
vn -0.1572 -0.9513 -0.2651
vn -0.1250 -0.9658 -0.2273
vn 0.7528 -0.6526 0.0859
vn -0.1265 -0.9692 -0.2111
vn -0.1263 -0.9619 -0.2425
vn -0.1122 -0.9502 -0.2908
vn -0.1243 -0.9376 -0.3247
vn -0.1267 -0.9364 -0.3274
vn -0.0524 -0.9524 -0.3003
vn 0.0954 -0.9700 -0.2235
vn 0.2658 -0.9567 -0.1187
vn 0.4751 -0.8789 -0.0437
vn -0.3140 0.8500 0.4229
vn -0.1083 0.8298 0.5474
vn 0.1629 0.7932 0.5867
vn 0.5129 0.6811 0.5225
vn -0.6116 0.7879 0.0722
vn -0.4958 0.8323 0.2477
vn 0.7665 0.4557 0.4526
vn -0.6576 0.7502 -0.0690
vn 0.8480 0.2830 0.4481
vn -0.6476 0.7411 -0.1771
vn 0.9585 0.1392 0.2489
vn -0.6388 0.7179 -0.2767
vn 0.9687 0.1289 0.2121
vn -0.6237 0.6876 -0.3717
vn 0.9846 0.1227 0.1243
vn -0.5818 0.5997 -0.5494
vn -0.5928 0.6557 -0.4675
vn 0.9977 0.0636 -0.0234
vn -0.6173 0.5007 -0.6068
vn -0.6122 0.4694 -0.6363
vn 0.9826 -0.0242 -0.1840
vn -0.6614 0.2544 -0.7056
vn 0.9429 -0.1306 -0.3064
vn -0.6220 -0.2095 -0.7545
vn 0.8396 -0.3732 -0.3947
vn -0.4349 -0.6648 -0.6074
vn -0.3216 -0.7788 -0.5386
vn -0.2273 -0.8751 -0.4272
vn -0.1641 -0.9238 -0.3460
vn -0.1138 -0.9408 -0.3191
vn -0.1050 -0.9422 -0.3183
vn -0.0927 -0.9458 -0.3113
vn 0.6136 -0.6639 -0.4276
vn -0.0962 -0.9412 -0.3239
vn -0.0888 -0.9215 -0.3781
vn -0.0221 -0.8914 -0.4528
vn 0.0630 -0.8612 -0.5043
vn 0.1924 -0.8409 -0.5058
vn 0.3759 -0.8071 -0.4553
vn -0.4742 0.8780 -0.0654
vn -0.2143 0.9756 0.0480
vn 0.1705 0.9811 0.0914
vn 0.6201 0.7825 0.0556
vn -0.6577 0.6930 -0.2952
vn -0.6226 0.7568 -0.1992
vn 0.9007 0.4337 -0.0258
vn -0.6552 0.6746 -0.3401
vn 0.9714 0.2141 -0.1025
vn -0.6511 0.6551 -0.3832
vn 0.9780 0.1226 -0.1688
vn -0.6338 0.6389 -0.4361
vn 0.9733 0.0780 -0.2157
vn -0.6380 0.6033 -0.4784
vn 0.9617 0.0184 -0.2735
vn -0.6310 0.5634 -0.5333
vn 0.9265 -0.0899 -0.3655
vn -0.6404 0.4177 -0.6445
vn 0.8575 -0.1718 -0.4850
vn -0.6359 0.1778 -0.7510
vn 0.7642 -0.2419 -0.5979
vn -0.5192 -0.4016 -0.7544
vn 0.6430 -0.4077 -0.6484
vn -0.3124 -0.7625 -0.5666
vn -0.2502 -0.8357 -0.4888
vn -0.1621 -0.9050 -0.3933
vn -0.1249 -0.9362 -0.3285
vn -0.1049 -0.9462 -0.3062
vn -0.0633 -0.9463 -0.3171
vn 0.0016 -0.9294 -0.3691
vn 0.0838 -0.8889 -0.4503
vn 0.1489 -0.8295 -0.5383
vn 0.2316 -0.7580 -0.6097
vn 0.4229 -0.6499 -0.6315
vn -0.4974 0.7280 -0.4718
vn -0.2418 0.8574 -0.4542
vn 0.1671 0.8658 -0.4717
vn 0.5995 0.6483 -0.4694
vn -0.6117 0.6349 -0.4719
vn 0.8194 0.3455 -0.4574
vn -0.6240 0.6368 -0.4530
vn 0.8598 0.1853 -0.4759
vn -0.6422 0.6230 -0.4467
vn 0.8773 0.1100 -0.4672
vn -0.6512 0.5929 -0.4738
vn 0.8798 0.0467 -0.4731
vn -0.6293 0.5822 -0.5147
vn 0.8685 -0.0401 -0.4940
vn -0.6463 0.5159 -0.5623
vn 0.8386 -0.1741 -0.5162
vn -0.6805 0.3369 -0.6507
vn 0.7811 -0.2863 -0.5550
vn -0.6342 0.0727 -0.7697
vn -0.6480 -0.0780 -0.7576
vn 0.6945 -0.3662 -0.6193
vn -0.5013 -0.4271 -0.7525
vn -0.4400 -0.5968 -0.6710
vn 0.3445 -0.7525 -0.5613
vn 0.5229 -0.5501 -0.6511
vn -0.2669 -0.8327 -0.4851
vn -0.1918 -0.8997 -0.3922
vn -0.1174 -0.9332 -0.3396
vn -0.0439 -0.9402 -0.3379
vn 0.0576 -0.9334 -0.3543
vn 0.1741 -0.9040 -0.3906
vn 0.2800 -0.8385 -0.4674
vn -0.1975 0.6887 -0.6976
vn 0.1725 0.6481 -0.7418
vn -0.4364 0.6084 -0.6629
vn -0.1336 0.5922 -0.7947
vn 0.2770 0.5191 -0.8086
vn 0.5548 0.4178 -0.7195
vn -0.5320 0.6071 -0.5903
vn 0.6715 0.2588 -0.6943
vn -0.5736 0.6245 -0.5301
vn 0.7390 0.1563 -0.6553
vn -0.6320 0.5837 -0.5098
vn 0.7823 0.0415 -0.6215
vn -0.6526 0.5509 -0.5203
vn 0.7861 -0.0602 -0.6152
vn -0.6622 0.4900 -0.5670
vn 0.7719 -0.1902 -0.6066
vn -0.6957 0.2518 -0.6727
vn 0.7379 -0.3377 -0.5844
vn -0.6508 -0.1956 -0.7336
vn 0.6687 -0.4602 -0.5840
vn -0.4525 -0.6346 -0.6265
vn -0.2712 -0.8180 -0.5072
vn 0.2437 -0.8785 -0.4109
vn 0.3879 -0.8007 -0.4565
vn 0.5301 -0.6521 -0.5420
vn -0.1516 -0.8794 -0.4512
vn -0.0618 -0.9116 -0.4064
vn 0.0629 -0.9189 -0.3894
vn -0.3366 0.6170 -0.7113
vn -0.0042 0.5514 -0.8342
vn 0.4108 0.3996 -0.8195
vn -0.5356 0.6277 -0.5649
vn -0.4720 0.6377 -0.6088
vn 0.5690 0.2690 -0.7771
vn -0.5948 0.5744 -0.5623
vn 0.6988 0.0991 -0.7085
vn -0.6411 0.5275 -0.5574
vn 0.7572 -0.0355 -0.6522
vn -0.6691 0.4322 -0.6046
vn 0.7589 -0.1920 -0.6223
vn -0.6883 0.1357 -0.7126
vn 0.7048 -0.3644 -0.6087
vn -0.5867 -0.3212 -0.7434
vn 0.6355 -0.5092 -0.5804
vn -0.4023 -0.6629 -0.6314
vn -0.2533 -0.7600 -0.5986
vn -0.1317 -0.8251 -0.5494
vn 0.0631 -0.8471 -0.5277
vn 0.3106 -0.7738 -0.5521
vn 0.4873 -0.6800 -0.5479
vn -0.1847 0.6181 -0.7641
vn 0.2703 0.4589 -0.8464
vn -0.5334 0.5706 -0.6244
vn -0.3780 0.5657 -0.7328
vn -0.0309 0.4508 -0.8921
vn 0.3541 0.3468 -0.8685
vn 0.6353 0.1967 -0.7468
vn -0.5274 0.4656 -0.7107
vn 0.4517 0.1119 -0.8851
vn 0.7076 0.0302 -0.7059
vn -0.6046 0.3466 -0.7172
vn -0.4113 0.2171 -0.8853
vn 0.4855 -0.1447 -0.8622
vn 0.7039 -0.1846 -0.6859
vn -0.5643 -0.0212 -0.8253
vn -0.3393 -0.1511 -0.9285
vn 0.5586 -0.3655 -0.7446
vn -0.4184 -0.4738 -0.7749
vn -0.1736 -0.5904 -0.7882
vn 0.0520 -0.5017 -0.8635
vn 0.3022 -0.5974 -0.7428
vn 0.5058 -0.5448 -0.6688
vn 0.0834 -0.7310 -0.6773
vn -0.2750 0.3570 -0.8927
vn 0.0742 0.2131 -0.9742
vn -0.1488 0.1029 -0.9835
vn 0.1943 -0.0506 -0.9796
vn -0.0365 -0.2331 -0.9718
vn 0.2947 -0.3275 -0.8977
vt 0.151110 0.914670
vt 0.147500 0.932210
vt 0.134780 0.926770
vt 0.133570 0.913930
vt 0.156910 0.892860
vt 0.132230 0.892700
vt 0.131540 0.864710
vt 0.163480 0.863680
vt 0.230460 0.867580
vt 0.227900 0.904520
vt 0.189350 0.897960
vt 0.198880 0.865220
vt 0.239470 0.830190
vt 0.204910 0.828530
vt 0.245840 0.792050
vt 0.208570 0.790250
vt 0.248700 0.753670
vt 0.210910 0.750930
vt 0.252340 0.712740
vt 0.212730 0.710760
vt 0.214350 0.669290
vt 0.257750 0.668760
vt 0.170980 0.922270
vt 0.168300 0.827210
vt 0.170950 0.788160
vt 0.172890 0.748370
vt 0.174260 0.708000
vt 0.174630 0.667620
vt 0.214840 0.628850
vt 0.173890 0.629210
vt 0.174850 0.590290
vt 0.217070 0.587420
vt 0.134740 0.939200
vt 0.125440 0.934110
vt 0.130870 0.827590
vt 0.130450 0.787150
vt 0.131230 0.746410
vt 0.132720 0.705660
vt 0.134430 0.665230
vt 0.135800 0.627330
vt 0.136820 0.589250
vt 0.115050 0.920350
vt 0.105400 0.895770
vt 0.098290 0.865410
vt 0.092210 0.827480
vt 0.088800 0.784310
vt 0.090570 0.743130
vt 0.093630 0.702740
vt 0.096820 0.663250
vt 0.099290 0.625580
vt 0.099090 0.585700
vt 0.047870 0.773970
vt 0.060900 0.736360
vt 0.065880 0.699120
vt 0.068740 0.660680
vt 0.069080 0.623580
vt 0.057710 0.582690
vt 0.257810 0.876050
vt 0.280760 0.835000
vt 0.296430 0.792840
vt 0.302360 0.752840
vt 0.304910 0.710380
vt 0.307950 0.665730
vt 0.307580 0.622390
vt 0.260330 0.625910
vt 0.304350 0.580240
vt 0.261050 0.583700
vt 0.299420 0.539870
vt 0.259260 0.542650
vt 0.295700 0.499280
vt 0.256880 0.503060
vt 0.193390 0.940810
vt 0.219210 0.544420
vt 0.218590 0.504630
vt 0.216490 0.466680
vt 0.255480 0.461100
vt 0.156440 0.955200
vt 0.178000 0.545870
vt 0.179420 0.505240
vt 0.179030 0.470430
vt 0.178920 0.436710
vt 0.213850 0.430380
vt 0.131370 0.953640
vt 0.139050 0.544590
vt 0.141940 0.503790
vt 0.145110 0.468570
vt 0.148740 0.435640
vt 0.112890 0.948260
vt 0.101560 0.540760
vt 0.105970 0.499330
vt 0.111230 0.460510
vt 0.120210 0.427090
vt 0.093060 0.934940
vt 0.073640 0.907830
vt 0.059930 0.871640
vt 0.051240 0.828440
vt 0.064010 0.532400
vt 0.072670 0.491030
vt 0.073610 0.447370
vt 0.037750 0.736430
vt 0.038310 0.697830
vt 0.040800 0.656240
vt 0.044720 0.617160
vt 0.931090 0.554560
vt 0.923720 0.519420
vt 0.963280 0.506840
vt 0.970570 0.549020
vt 0.930120 0.588040
vt 0.970410 0.589950
vt 0.960820 0.632260
vt 0.918950 0.622440
vt 0.393180 0.700140
vt 0.363040 0.743890
vt 0.357410 0.704030
vt 0.406240 0.654900
vt 0.359260 0.661550
vt 0.406240 0.611080
vt 0.357460 0.618070
vt 0.399460 0.566180
vt 0.353020 0.573930
vt 0.394360 0.523640
vt 0.347850 0.531570
vt 0.390330 0.479350
vt 0.342580 0.489490
vt 0.383570 0.434280
vt 0.337920 0.446270
vt 0.331690 0.403240
vt 0.375830 0.388410
vt 0.321300 0.843830
vt 0.345780 0.793500
vt 0.294930 0.455300
vt 0.290320 0.412500
vt 0.291200 0.894870
vt 0.257610 0.938340
vt 0.251360 0.421790
vt 0.245650 0.389100
vt 0.278560 0.368830
vt 0.211700 0.973080
vt 0.211830 0.396800
vt 0.166980 0.992880
vt 0.179760 0.401170
vt 0.121240 0.995890
vt 0.151640 0.402030
vt 0.089500 0.978270
vt 0.125250 0.402720
vt 0.063700 0.958590
vt 0.036480 0.925790
vt 0.019670 0.883920
vt 0.009400 0.836250
vt 0.005790 0.783480
vt 0.100660 0.414120
vt 0.003010 0.737660
vt 0.000130 0.696660
vt 0.000260 0.652110
vt 0.006050 0.606040
vt 0.015460 0.561760
vt 0.027870 0.517230
vt 0.046350 0.477310
vt 0.896660 0.525610
vt 0.914840 0.484950
vt 0.894310 0.556960
vt 0.890160 0.585710
vt 0.882540 0.614070
vt 0.872380 0.639760
vt 0.903080 0.654880
vt 0.857550 0.660670
vt 0.879040 0.683070
vt 0.926420 0.426420
vt 0.959470 0.421950
vt 0.958120 0.466160
vt 0.943450 0.674010
vt 0.913910 0.711740
vt 0.875440 0.736910
vt 0.845310 0.703520
vt 0.936390 0.371980
vt 0.943000 0.323340
vt 0.979550 0.325130
vt 0.975970 0.374570
vt 0.325590 0.359820
vt 0.367610 0.346470
vt 0.949130 0.267760
vt 0.985810 0.272770
vt 0.954600 0.211480
vt 0.956650 0.157940
vt 0.998790 0.166890
vt 0.994440 0.217670
vt 0.243550 0.363210
vt 0.956780 0.101870
vt 0.999870 0.113330
vt 0.209970 0.366490
vt 0.996050 0.068520
vt 0.178450 0.370260
vt 0.980590 0.032100
vt 0.934610 0.065700
vt 0.150230 0.374460
vt 0.957860 0.010870
vt 0.917330 0.041250
vt 0.123160 0.381150
vt 0.929100 0.007160
vt 0.881510 0.045470
vt 0.888960 0.007890
vt 0.842620 0.049620
vt 0.844610 0.007210
vt 0.798740 0.048920
vt 0.797190 0.004260
vt 0.751000 0.045200
vt 0.746630 0.000130
vt 0.705000 0.042940
vt 0.702770 0.000130
vt 0.090730 0.392360
vt 0.665350 0.045640
vt 0.663620 0.003080
vt 0.623570 0.049550
vt 0.621330 0.005940
vt 0.578540 0.050810
vt 0.576900 0.007820
vt 0.535630 0.053640
vt 0.533300 0.010500
vt 0.492630 0.056990
vt 0.488880 0.015550
vt 0.449260 0.061430
vt 0.446240 0.022390
vt 0.407610 0.067650
vt 0.406500 0.024470
vt 0.055170 0.407000
vt 0.865250 0.555260
vt 0.873250 0.524010
vt 0.857840 0.583180
vt 0.851710 0.608210
vt 0.845380 0.630020
vt 0.838680 0.649930
vt 0.837520 0.671220
vt 0.884090 0.479530
vt 0.893220 0.424130
vt 0.839960 0.742690
vt 0.899570 0.365890
vt 0.903920 0.310690
vt 0.364470 0.314260
vt 0.322100 0.320090
vt 0.909400 0.256700
vt 0.280410 0.324870
vt 0.912480 0.209330
vt 0.242200 0.329040
vt 0.918840 0.164360
vt 0.207190 0.334490
vt 0.903430 0.129230
vt 0.174580 0.341090
vt 0.885710 0.100020
vt 0.145960 0.349100
vt 0.877940 0.072240
vt 0.117330 0.357270
vt 0.838570 0.088010
vt 0.797250 0.090970
vt 0.755060 0.091040
vt 0.711440 0.091030
vt 0.670980 0.093340
vt 0.627540 0.094900
vt 0.581370 0.093910
vt 0.087090 0.363600
vt 0.539340 0.096210
vt 0.498050 0.100600
vt 0.455800 0.104850
vt 0.414380 0.109520
vt 0.050240 0.363730
vt 0.829170 0.604580
vt 0.833710 0.580720
vt 0.824480 0.624560
vt 0.820290 0.644740
vt 0.840250 0.550550
vt 0.847790 0.515690
vt 0.815910 0.668330
vt 0.854350 0.469610
vt 0.809600 0.697120
vt 0.858720 0.415080
vt 0.798020 0.735240
vt 0.862060 0.356770
vt 0.360170 0.274220
vt 0.316860 0.279510
vt 0.865500 0.300740
vt 0.276300 0.285140
vt 0.870690 0.249410
vt 0.238750 0.291810
vt 0.887920 0.185720
vt 0.845590 0.217720
vt 0.203070 0.298910
vt 0.859000 0.160410
vt 0.815760 0.191600
vt 0.168040 0.306360
vt 0.833680 0.131980
vt 0.136170 0.316060
vt 0.792650 0.130630
vt 0.102920 0.325850
vt 0.754500 0.133400
vt 0.713490 0.133970
vt 0.674000 0.137640
vt 0.632350 0.140630
vt 0.589340 0.142440
vt 0.548140 0.146330
vt 0.506800 0.151730
vt 0.464750 0.157340
vt 0.421290 0.163770
vt 0.062290 0.308940
vt 0.809360 0.601350
vt 0.810550 0.576620
vt 0.806420 0.621070
vt 0.802470 0.640520
vt 0.811010 0.540670
vt 0.812790 0.497620
vt 0.795520 0.660940
vt 0.813560 0.447230
vt 0.780230 0.684050
vt 0.814740 0.392170
vt 0.756060 0.715100
vt 0.818000 0.336730
vt 0.352060 0.229910
vt 0.309160 0.236780
vt 0.822790 0.285200
vt 0.269650 0.244230
vt 0.232870 0.252000
vt 0.799180 0.248620
vt 0.196630 0.259350
vt 0.775430 0.218300
vt 0.158050 0.264740
vt 0.796460 0.164360
vt 0.117480 0.275550
vt 0.752580 0.182500
vt 0.711840 0.175540
vt 0.475600 0.206410
vt 0.433310 0.215260
vt 0.081710 0.258780
vt 0.673440 0.178260
vt 0.633870 0.180570
vt 0.595750 0.183930
vt 0.556790 0.189780
vt 0.516280 0.197950
vt 0.789770 0.598620
vt 0.778500 0.571510
vt 0.787990 0.617740
vt 0.781040 0.638790
vt 0.772570 0.525260
vt 0.770390 0.478790
vt 0.751570 0.655090
vt 0.767920 0.430390
vt 0.717160 0.676480
vt 0.767690 0.377240
vt 0.299020 0.189900
vt 0.340580 0.177380
vt 0.772210 0.317720
vt 0.260540 0.198320
vt 0.221240 0.204390
vt 0.750480 0.279580
vt 0.183810 0.212050
vt 0.730840 0.249870
vt 0.145200 0.216670
vt 0.709890 0.219030
vt 0.100370 0.219040
vt 0.672560 0.219240
vt 0.634800 0.219770
vt 0.563560 0.230280
vt 0.525040 0.243050
vt 0.486650 0.251330
vt 0.442990 0.257920
vt 0.600010 0.222320
vt 0.770210 0.594270
vt 0.769350 0.616900
vt 0.730710 0.550730
vt 0.726550 0.507970
vt 0.730850 0.584260
vt 0.735610 0.618390
vt 0.728930 0.469870
vt 0.692410 0.627430
vt 0.725860 0.436090
vt 0.285310 0.144860
vt 0.324860 0.125810
vt 0.720150 0.391260
vt 0.249500 0.154560
vt 0.716740 0.344700
vt 0.208590 0.155950
vt 0.703200 0.310160
vt 0.168060 0.158370
vt 0.687520 0.280830
vt 0.129940 0.164600
vt 0.675690 0.251240
vt 0.088830 0.161440
vt 0.639680 0.264150
vt 0.605850 0.270780
vt 0.571240 0.276110
vt 0.535350 0.287630
vt 0.489990 0.292850
vt 0.680320 0.532590
vt 0.670750 0.486930
vt 0.674690 0.575270
vt 0.695160 0.451900
vt 0.269770 0.101840
vt 0.303300 0.075770
vt 0.670450 0.411460
vt 0.236020 0.112370
vt 0.674140 0.369590
vt 0.198450 0.114020
vt 0.662660 0.336730
vt 0.158220 0.101540
vt 0.649090 0.303390
vt 0.113990 0.122730
vt 0.609410 0.318410
vt 0.577520 0.308880
vt 0.552070 0.334070
vt 0.503650 0.337490
vt 0.262130 0.000130
vt 0.294700 0.033230
vt 0.255450 0.034370
vt 0.262410 0.069560
vt 0.632330 0.444390
vt 0.212480 0.037430
vt 0.205020 0.000300
vt 0.224540 0.075600
vt 0.644670 0.389260
vt 0.611650 0.412370
vt 0.177040 0.040690
vt 0.189090 0.082120
vt 0.629020 0.357620
vt 0.595130 0.378300
vt 0.140300 0.049100
vt 0.585430 0.344360
vt 0.555440 0.386700
vt 0.499730 0.386600
vt 0.166490 0.003910
vt 0.128830 0.010620
s 1
usemtl defaultMat.002
f 1/1/1 21/2/21 3/3/3 4/4/4
f 2/5/2 1/1/1 4/4/4 5/6/5
f 6/7/6 22/8/22 2/5/2 5/6/5
f 7/9/7 62/10/62 13/11/13 14/12/14
f 8/13/8 7/9/7 14/12/14 15/14/15
f 9/15/9 8/13/8 15/14/15 16/16/16
f 10/17/10 9/15/9 16/16/16 17/18/17
f 11/19/11 10/17/10 17/18/17 18/20/18
f 19/21/19 64/22/64 11/19/11 18/20/18
f 1/1/1 12/23/12 21/2/21
f 1/1/1 2/5/2 13/11/13 12/23/12
f 22/8/22 14/12/14 13/11/13 2/5/2
f 15/14/15 14/12/14 22/8/22 23/24/23
f 16/16/16 15/14/15 23/24/23 24/25/24
f 17/18/17 16/16/16 24/25/24 25/26/25
f 18/20/18 17/18/17 25/26/25 26/27/26
f 19/21/19 18/20/18 26/27/26 27/28/27
f 20/29/20 19/21/19 27/28/27 28/30/28
f 29/31/29 70/32/70 20/29/20 28/30/28
f 3/3/3 21/2/21 30/33/30 38/34/38
f 31/35/31 23/24/23 22/8/22 6/7/6
f 24/25/24 23/24/23 31/35/31 32/36/32
f 25/26/25 24/25/24 32/36/32 33/37/33
f 26/27/26 25/26/25 33/37/33 34/38/34
f 27/28/27 26/27/26 34/38/34 35/39/35
f 28/30/28 27/28/27 35/39/35 36/40/36
f 29/31/29 28/30/28 36/40/36 37/41/37
f 4/4/4 3/3/3 38/34/38 39/42/39
f 5/6/5 4/4/4 39/42/39 40/43/40
f 6/7/6 5/6/5 40/43/40 41/44/41
f 41/44/41 42/45/42 31/35/31 6/7/6
f 32/36/32 31/35/31 42/45/42 43/46/43
f 33/37/33 32/36/32 43/46/43 44/47/44
f 34/38/34 33/37/33 44/47/44 45/48/45
f 35/39/35 34/38/34 45/48/45 46/49/46
f 36/40/36 35/39/35 46/49/46 47/50/47
f 37/41/37 36/40/36 47/50/47 48/51/48
f 43/46/43 92/52/92 49/53/49 44/47/44
f 45/48/45 44/47/44 49/53/49 50/54/50
f 46/49/46 45/48/45 50/54/50 51/55/51
f 47/50/47 46/49/46 51/55/51 52/56/52
f 52/56/52 97/57/97 48/51/48 47/50/47
f 62/10/62 7/9/7 63/58/63
f 63/58/63 7/9/7 8/13/8 53/59/53
f 8/13/8 9/15/9 54/60/54 53/59/53
f 9/15/9 10/17/10 55/61/55 54/60/54
f 10/17/10 11/19/11 56/62/56 55/61/55
f 64/22/64 57/63/57 56/62/56 11/19/11
f 58/64/58 57/63/57 64/22/64 65/65/65
f 59/66/59 58/64/58 65/65/65 66/67/66
f 60/68/60 59/66/59 66/67/66 67/69/67
f 61/70/61 60/68/60 67/69/67 68/71/68
f 69/72/69 12/23/12 13/11/13 62/10/62
f 19/21/19 20/29/20 65/65/65 64/22/64
f 70/32/70 66/67/66 65/65/65 20/29/20
f 67/69/67 66/67/66 70/32/70 71/73/71
f 68/71/68 67/69/67 71/73/71 72/74/72
f 73/75/73 124/76/124 68/71/68 72/74/72
f 74/77/74 21/2/21 12/23/12 69/72/69
f 75/78/75 71/73/71 70/32/70 29/31/29
f 72/74/72 71/73/71 75/78/75 76/79/76
f 73/75/73 72/74/72 76/79/76 77/80/77
f 78/81/78 128/82/128 73/75/73 77/80/77
f 21/2/21 74/77/74 79/83/79 30/33/30
f 29/31/29 37/41/37 80/84/80 75/78/75
f 76/79/76 75/78/75 80/84/80 81/85/81
f 77/80/77 76/79/76 81/85/81 82/86/82
f 78/81/78 77/80/77 82/86/82 83/87/83
f 30/33/30 79/83/79 84/88/84 38/34/38
f 37/41/37 48/51/48 89/89/89 80/84/80
f 81/85/81 80/84/80 89/89/89 90/90/90
f 82/86/82 81/85/81 90/90/90 91/91/91
f 91/91/91 139/92/139 83/87/83 82/86/82
f 84/88/84 85/93/85 39/42/39 38/34/38
f 85/93/85 86/94/86 40/43/40 39/42/39
f 86/94/86 87/95/87 41/44/41 40/43/40
f 87/95/87 88/96/88 42/45/42 41/44/41
f 43/46/43 42/45/42 88/96/88 92/52/92
f 97/57/97 98/97/98 89/89/89 48/51/48
f 90/90/90 89/89/89 98/97/98 99/98/99
f 99/98/99 149/99/149 91/91/91 90/90/90
f 49/53/49 92/52/92 93/100/93
f 93/100/93 94/101/94 50/54/50 49/53/49
f 94/101/94 95/102/95 51/55/51 50/54/50
f 95/102/95 96/103/96 52/56/52 51/55/51
f 97/57/97 52/56/52 96/103/96
f 100/104/100 158/105/158 104/106/104 105/107/105
f 101/108/101 100/104/100 105/107/105 106/109/106
f 107/110/107 159/111/159 101/108/101 106/109/106
f 102/112/102 110/113/110 111/114/111
f 103/115/103 102/112/102 111/114/111 112/116/112
f 104/117/104 103/115/103 112/116/112 113/118/113
f 105/119/105 104/117/104 113/118/113 114/120/114
f 106/121/106 105/119/105 114/120/114 115/122/115
f 107/123/107 106/121/106 115/122/115 116/124/116
f 108/125/108 107/123/107 116/124/116 117/126/117
f 118/127/118 163/128/163 108/125/108 117/126/117
f 119/129/119 53/59/53 54/60/54 109/130/109
f 54/60/54 55/61/55 110/113/110 109/130/109
f 55/61/55 56/62/56 111/114/111 110/113/110
f 56/62/56 57/63/57 112/116/112 111/114/111
f 57/63/57 58/64/58 113/118/113 112/116/112
f 58/64/58 59/66/59 114/120/114 113/118/113
f 59/66/59 60/68/60 115/122/115 114/120/114
f 60/68/60 61/70/61 116/124/116 115/122/115
f 120/131/120 117/126/117 116/124/116 61/70/61
f 118/127/118 117/126/117 120/131/120 121/132/121
f 123/133/123 122/134/122 62/10/62 63/58/63
f 123/133/123 63/58/63 53/59/53 119/129/119
f 61/70/61 68/71/68 124/76/124 120/131/120
f 121/132/121 120/131/120 124/76/124 125/135/125
f 126/136/126 169/137/169 121/132/121 125/135/125
f 127/138/127 69/72/69 62/10/62 122/134/122
f 128/82/128 125/135/125 124/76/124 73/75/73
f 126/136/126 125/135/125 128/82/128 129/139/129
f 130/140/130 74/77/74 69/72/69 127/138/127
f 131/141/131 129/139/129 128/82/128 78/81/78
f 74/77/74 130/140/130 132/142/132 79/83/79
f 78/81/78 83/87/83 133/143/133 131/141/131
f 79/83/79 132/142/132 134/144/134 84/88/84
f 139/92/139 140/145/140 133/143/133 83/87/83
f 134/144/134 135/146/135 85/93/85 84/88/84
f 135/146/135 136/147/136 86/94/86 85/93/85
f 136/147/136 137/148/137 87/95/87 86/94/86
f 137/148/137 138/149/138 88/96/88 87/95/87
f 88/96/88 138/149/138 141/150/141 92/52/92
f 149/99/149 150/151/150 139/92/139 91/91/91
f 150/151/150 140/145/140 139/92/139
f 141/150/141 142/152/142 93/100/93 92/52/92
f 142/152/142 143/153/143 94/101/94 93/100/93
f 143/153/143 144/154/144 95/102/95 94/101/94
f 144/154/144 145/155/145 96/103/96 95/102/95
f 145/155/145 146/156/146 97/57/97 96/103/96
f 146/156/146 147/157/147 98/97/98 97/57/97
f 147/157/147 148/158/148 99/98/99 98/97/98
f 149/99/149 99/98/99 148/158/148
f 151/159/151 157/160/157 158/105/158
f 152/161/152 151/159/151 158/105/158 100/104/100
f 100/104/100 101/108/101 153/162/153 152/161/152
f 159/111/159 154/163/154 153/162/153 101/108/101
f 155/164/155 154/163/154 159/111/159 160/165/160
f 156/166/156 155/164/155 160/165/160 161/167/161
f 162/168/162 102/169/102 103/170/103 157/160/157
f 103/170/103 104/106/104 158/105/158 157/160/157
f 107/110/107 108/171/108 160/165/160 159/111/159
f 163/172/163 161/167/161 160/165/160 108/171/108
f 164/173/164 201/174/201 161/167/161 163/172/163
f 166/175/166 165/176/165 109/177/109 110/178/110
f 166/175/166 110/178/110 102/169/102 162/168/162
f 167/179/167 164/180/164 163/128/163 118/127/118
f 168/181/168 119/182/119 109/177/109 165/176/165
f 118/127/118 121/132/121 169/137/169 167/179/167
f 170/183/170 172/184/172 122/185/122 123/186/123
f 170/183/170 123/186/123 119/182/119 168/181/168
f 169/137/169 126/136/126 171/187/171
f 122/185/122 172/184/172 174/188/174 127/189/127
f 171/187/171 126/136/126 129/139/129 173/190/173
f 127/189/127 174/188/174 130/191/130
f 173/190/173 129/139/129 131/141/131 175/192/175
f 132/193/132 130/191/130 174/188/174 176/194/176
f 175/192/175 131/141/131 133/143/133 177/195/177
f 134/196/134 132/193/132 176/194/176 178/197/178
f 177/195/177 133/143/133 140/145/140 183/198/183
f 134/196/134 178/197/178 135/199/135
f 178/197/178 179/200/179 136/201/136 135/199/135
f 179/200/179 180/202/180 137/203/137 136/201/136
f 180/202/180 181/204/181 138/205/138 137/203/137
f 138/205/138 181/204/181 182/206/182 141/207/141
f 141/207/141 182/206/182 184/208/184 142/209/142
f 150/151/150 192/210/192 183/198/183 140/145/140
f 184/208/184 185/211/185 143/212/143 142/209/142
f 185/211/185 186/213/186 144/214/144 143/212/143
f 186/213/186 187/215/187 145/216/145 144/214/144
f 187/215/187 188/217/188 146/218/146 145/216/145
f 188/217/188 189/219/189 147/220/147 146/218/146
f 189/219/189 190/221/190 148/222/148 147/220/147
f 190/221/190 191/223/191 149/224/149 148/222/148
f 191/225/191 192/210/192 150/151/150 149/99/149
f 198/226/198 197/227/197 151/159/151 152/161/152
f 198/226/198 152/161/152 153/162/153 193/228/193
f 153/162/153 154/163/154 194/229/194 193/228/193
f 154/163/154 155/164/155 195/230/195 194/229/194
f 155/164/155 156/166/156 196/231/196 195/230/195
f 156/166/156 199/232/199 196/231/196
f 200/233/200 157/160/157 151/159/151 197/227/197
f 156/166/156 161/167/161 201/174/201 199/232/199
f 202/234/202 162/168/162 157/160/157 200/233/200
f 201/174/201 164/173/164 203/235/203
f 204/236/204 206/237/206 165/176/165 166/175/166
f 204/236/204 166/175/166 162/168/162 202/234/202
f 203/238/203 164/180/164 167/179/167 205/239/205
f 165/176/165 206/237/206 209/240/209 168/181/168
f 205/239/205 167/179/167 169/137/169 207/241/207
f 209/240/209 208/242/208 170/183/170 168/181/168
f 207/241/207 169/137/169 171/187/171 210/243/210
f 211/244/211 172/184/172 170/183/170 208/242/208
f 210/243/210 171/187/171 173/190/173 213/245/213
f 172/184/172 211/244/211 214/246/214 174/188/174
f 213/245/213 173/190/173 175/192/175 215/247/215
f 176/194/176 174/188/174 214/246/214 216/248/216
f 215/247/215 175/192/175 177/195/177 217/249/217
f 178/197/178 176/194/176 216/248/216 218/250/218
f 217/249/217 177/195/177 183/198/183 225/251/225
f 178/197/178 218/250/218 179/200/179
f 218/250/218 219/252/219 180/202/180 179/200/179
f 219/252/219 220/253/220 181/204/181 180/202/180
f 220/253/220 221/254/221 182/206/182 181/204/181
f 182/206/182 221/254/221 222/255/222 184/208/184
f 222/255/222 223/256/223 185/211/185 184/208/184
f 223/256/223 224/257/224 186/213/186 185/211/185
f 186/213/186 224/257/224 226/258/226 187/215/187
f 192/210/192 231/259/231 225/251/225 183/198/183
f 226/258/226 227/260/227 188/217/188 187/215/187
f 227/260/227 228/261/228 189/219/189 188/217/188
f 228/261/228 229/262/229 190/221/190 189/219/189
f 229/262/229 230/263/230 191/223/191 190/221/190
f 230/264/230 231/259/231 192/210/192 191/225/191
f 233/265/233 232/266/232 193/228/193 194/229/194
f 234/267/234 233/265/233 194/229/194 195/230/195
f 235/268/235 234/267/234 195/230/195 196/231/196
f 237/269/237 236/270/236 197/227/197 198/226/198
f 237/269/237 198/226/198 193/228/193 232/266/232
f 199/232/199 238/271/238 235/268/235 196/231/196
f 239/272/239 200/233/200 197/227/197 236/270/236
f 238/271/238 199/232/199 201/174/201 240/273/240
f 241/274/241 202/234/202 200/233/200 239/272/239
f 240/273/240 201/174/201 203/235/203 242/275/242
f 243/276/243 204/236/204 202/234/202 241/274/241
f 242/277/242 203/238/203 205/239/205 244/278/244
f 245/279/245 206/237/206 204/236/204 243/276/243
f 244/278/244 205/239/205 207/241/207 246/280/246
f 247/281/247 208/242/208 209/240/209
f 247/281/247 209/240/209 206/237/206 245/279/245
f 246/280/246 207/241/207 210/243/210 248/282/248
f 211/244/211 208/242/208 212/283/212
f 212/283/212 208/242/208 247/281/247 249/284/249
f 248/282/248 210/243/210 213/245/213 250/285/250
f 214/246/214 211/244/211 212/283/212 251/286/251
f 251/286/251 212/283/212 249/284/249 284/287/284
f 250/285/250 213/245/213 215/247/215 252/288/252
f 216/248/216 214/246/214 251/286/251 253/289/253
f 252/288/252 215/247/215 217/249/217 254/290/254
f 219/252/219 218/250/218 216/248/216 253/289/253
f 219/252/219 253/289/253 255/291/255 220/253/220
f 265/292/265 254/290/254 217/249/217 225/251/225
f 255/291/255 256/293/256 221/254/221 220/253/220
f 256/293/256 257/294/257 222/255/222 221/254/221
f 257/294/257 258/295/258 223/256/223 222/255/222
f 258/295/258 259/296/259 224/257/224 223/256/223
f 224/257/224 259/296/259 260/297/260 226/258/226
f 260/297/260 261/298/261 227/260/227 226/258/226
f 261/298/261 262/299/262 228/261/228 227/260/227
f 262/299/262 263/300/263 229/262/229 228/261/228
f 263/300/263 264/301/264 230/263/230 229/262/229
f 264/302/264 265/292/265 231/259/231 230/264/230
f 231/259/231 265/292/265 225/251/225
f 267/303/267 266/304/266 232/266/232 233/265/233
f 268/305/268 267/303/267 233/265/233 234/267/234
f 269/306/269 268/305/268 234/267/234 235/268/235
f 270/307/270 272/308/272 236/270/236 237/269/237
f 270/307/270 237/269/237 232/266/232 266/304/266
f 238/271/238 271/309/271 269/306/269 235/268/235
f 236/270/236 272/308/272 274/310/274 239/272/239
f 271/309/271 238/271/238 240/273/240 273/311/273
f 239/272/239 274/310/274 276/312/276 241/274/241
f 273/311/273 240/273/240 242/275/242 275/313/275
f 241/274/241 276/312/276 278/314/278 243/276/243
f 275/315/275 242/277/242 244/278/244 277/316/277
f 243/276/243 278/314/278 280/317/280 245/279/245
f 277/316/277 244/278/244 246/280/246 279/318/279
f 245/279/245 280/317/280 247/281/247
f 279/318/279 246/280/246 248/282/248 281/319/281
f 249/284/249 247/281/247 280/317/280 282/320/282
f 281/319/281 248/282/248 250/285/250 283/321/283
f 284/287/284 249/284/249 282/320/282 285/322/285
f 286/323/286 283/321/283 250/285/250 252/288/252
f 253/289/253 251/286/251 284/287/284 287/324/287
f 290/325/290 286/323/286 252/288/252 254/290/254
f 287/324/287 255/291/255 253/289/253
f 287/324/287 288/326/288 256/293/256 255/291/255
f 256/293/256 288/326/288 291/327/291 257/294/257
f 297/328/297 289/329/289 264/301/264 263/300/263
f 289/330/289 290/325/290 265/292/265 264/302/264
f 265/292/265 290/325/290 254/290/254
f 291/327/291 292/331/292 258/295/258 257/294/257
f 292/331/292 293/332/293 259/296/259 258/295/258
f 293/332/293 294/333/294 260/297/260 259/296/259
f 294/333/294 295/334/295 261/298/261 260/297/260
f 295/334/295 296/335/296 262/299/262 261/298/261
f 296/335/296 297/328/297 263/300/263 262/299/262
f 298/336/298 300/337/300 266/304/266 267/303/267
f 299/338/299 298/336/298 267/303/267 268/305/268
f 269/306/269 303/339/303 299/338/299 268/305/268
f 266/304/266 300/337/300 304/340/304 270/307/270
f 271/309/271 303/339/303 269/306/269
f 270/307/270 304/340/304 306/341/306 272/308/272
f 305/342/305 303/339/303 271/309/271 273/311/273
f 272/308/272 306/341/306 308/343/308 274/310/274
f 307/344/307 305/342/305 273/311/273 275/313/275
f 274/310/274 308/343/308 310/345/310 276/312/276
f 309/346/309 307/347/307 275/315/275 277/316/277
f 276/312/276 310/345/310 312/348/312 278/314/278
f 311/349/311 309/346/309 277/316/277 279/318/279
f 278/314/278 312/348/312 280/317/280
f 313/350/313 311/349/311 279/318/279 281/319/281
f 282/320/282 280/317/280 312/348/312 314/351/314
f 315/352/315 313/350/313 281/319/281 283/321/283
f 285/322/285 282/320/282 314/351/314 316/353/316
f 286/323/286 317/354/317 315/352/315 283/321/283
f 284/287/284 285/322/285 288/326/288 287/324/287
f 288/326/288 285/322/285 316/353/316 318/355/318
f 322/356/322 317/354/317 286/323/286 290/325/290
f 318/355/318 291/327/291 288/326/288
f 318/355/318 319/357/319 292/331/292 291/327/291
f 292/331/292 319/357/319 323/358/323 293/332/293
f 325/359/325 320/360/320 296/335/296 295/334/295
f 320/360/320 321/361/321 297/328/297 296/335/296
f 321/361/321 322/362/322 289/329/289 297/328/297
f 322/356/322 290/325/290 289/330/289
f 323/358/323 324/363/324 294/333/294 293/332/293
f 324/363/324 325/359/325 295/334/295 294/333/294
f 300/337/300 298/336/298 301/364/301
f 298/336/298 299/338/299 302/365/302 301/364/301
f 299/338/299 303/339/303 302/365/302
f 300/337/300 326/366/326 330/367/330 304/340/304
f 327/368/327 326/366/326 300/337/300 301/364/301
f 328/369/328 327/368/327 301/364/301 302/365/302
f 302/365/302 303/339/303 305/342/305 328/369/328
f 330/367/330 329/370/329 306/341/306 304/340/304
f 331/371/331 328/369/328 305/342/305 307/344/307
f 306/341/306 329/370/329 332/372/332 308/343/308
f 333/373/333 331/374/331 307/347/307 309/346/309
f 308/343/308 332/372/332 334/375/334 310/345/310
f 333/373/333 309/346/309 311/349/311 335/376/335
f 310/345/310 334/375/334 336/377/336 312/348/312
f 337/378/337 335/376/335 311/349/311 313/350/313
f 314/351/314 312/348/312 336/377/336 338/379/338
f 339/380/339 337/378/337 313/350/313 315/352/315
f 316/353/316 314/351/314 338/379/338 340/381/340
f 341/382/341 339/380/339 315/352/315 317/354/317
f 318/355/318 316/353/316 340/381/340 342/383/342
f 347/384/347 341/382/341 317/354/317 322/356/322
f 318/355/318 342/383/342 319/357/319
f 319/357/319 342/383/342 343/385/343 323/358/323
f 343/385/343 344/386/344 324/363/324 323/358/323
f 344/386/344 345/387/345 325/359/325 324/363/324
f 345/387/345 346/388/346 320/360/320 325/359/325
f 346/388/346 347/389/347 321/361/321 320/360/320
f 347/389/347 322/362/322 321/361/321
f 326/366/326 348/390/348 351/391/351 330/367/330
f 349/392/349 348/390/348 326/366/326 327/368/327
f 327/368/327 328/369/328 331/371/331 349/392/349
f 329/370/329 350/393/350 332/372/332
f 351/391/351 350/393/350 329/370/329 330/367/330
f 354/394/354 349/395/349 331/374/331 333/373/333
f 332/372/332 350/393/350 355/396/355 334/375/334
f 357/397/357 354/394/354 333/373/333 335/376/335
f 334/375/334 355/396/355 358/398/358 336/377/336
f 337/378/337 361/399/361 357/397/357 335/376/335
f 338/379/338 336/377/336 358/398/358 362/400/362
f 364/401/364 361/399/361 337/378/337 339/380/339
f 340/381/340 338/379/338 362/400/362 365/402/365
f 369/403/369 364/401/364 339/380/339 341/382/341
f 343/385/343 342/383/342 340/381/340 365/402/365
f 365/402/365 366/404/366 344/386/344 343/385/343
f 344/386/344 366/404/366 370/405/370 345/387/345
f 370/405/370 368/406/368 346/388/346 345/387/345
f 368/406/368 369/407/369 347/389/347 346/388/346
f 347/384/347 369/403/369 341/382/341
f 351/408/351 348/409/348 352/410/352
f 348/409/348 349/395/349 353/411/353 352/410/352
f 349/395/349 354/394/354 353/411/353
f 355/396/355 350/393/350 351/391/351 371/412/371
f 372/413/372 371/414/371 351/408/351 352/410/352
f 352/410/352 353/411/353 356/415/356 372/413/372
f 353/411/353 354/394/354 357/397/357 356/415/356
f 358/398/358 355/396/355 359/416/359
f 359/416/359 355/396/355 371/412/371 373/417/373
f 374/418/374 372/413/372 356/415/356 360/419/360
f 356/415/356 357/397/357 361/399/361 360/419/360
f 358/398/358 359/416/359 363/420/363 362/400/362
f 363/420/363 359/416/359 373/417/373 375/421/375
f 376/422/376 374/418/374 360/419/360 364/401/364
f 361/399/361 364/401/364 360/419/360
f 362/400/362 363/420/363 366/404/366 365/402/365
f 367/423/367 366/404/366 363/420/363 375/421/375
f 375/421/375 376/424/376 368/406/368 367/423/367
f 364/425/364 369/407/369 368/406/368 376/424/376
f 370/405/370 366/404/366 367/423/367 368/406/368
f 371/414/371 372/413/372 374/418/374 373/426/373
f 373/426/373 374/418/374 376/422/376 375/427/375
