# 3ds Max Wavefront OBJ Exporter v0.99 - (c)2007 guruware
# File Created: 07.03.2025 17:34:37

#
# object statue001
#

v  -4.151201 0.000000 -26.184643
v  0.236224 0.000000 -26.184643
v  -4.151201 0.000000 -21.249290
v  0.236224 0.000000 -21.249290
v  -4.151201 4.246970 -26.184643
v  0.236224 4.246970 -26.184643
v  -4.151201 4.246970 -21.249290
v  0.236224 4.246970 -21.249290
v  -4.151201 -4.711299 -26.184643
v  -4.151201 -4.711299 -21.249290
v  0.236224 -4.711299 -21.249290
v  0.236224 -4.711299 -26.184643
v  16.221914 -4.936423 -26.184643
v  16.221914 -4.936423 -21.249290
v  15.714041 -0.681644 -21.249290
v  15.714041 -0.681644 -26.184643
v  20.435555 -4.786525 -26.184643
v  20.435555 -4.786525 -21.249290
v  22.012430 -0.539555 -21.249290
v  22.012430 -0.539555 -26.184643
v  10.795065 6.255133 -21.249290
v  10.795065 6.255133 -26.184643
v  18.050615 6.397222 -26.184643
v  18.050615 6.397222 -21.249290
v  10.795065 14.447206 -21.249290
v  10.795065 14.447206 -26.184643
v  18.050615 14.858521 -26.184643
v  18.050615 14.858521 -21.249290
v  25.971462 4.771706 -26.184643
v  25.971462 4.771706 -21.249290
v  25.971462 10.611663 -21.249290
v  25.971462 10.611663 -26.184643
v  34.851238 2.719931 -26.184643
v  34.851238 2.719931 -21.249290
v  34.851238 8.290663 -21.249290
v  34.851238 8.290663 -26.184643
v  39.796852 1.560187 -25.321587
v  39.796852 1.560187 -22.112347
v  39.796852 6.265893 -22.112347
v  39.796852 6.265893 -25.321587
v  44.267475 1.030708 -25.321587
v  44.267475 1.030708 -22.112347
v  43.406178 5.736414 -22.112347
v  43.406178 5.736414 -25.321587
v  36.251766 -3.362386 -25.321587
v  36.251766 -3.362386 -22.112347
v  40.722389 -3.473164 -22.112347
v  40.722389 -3.473164 -25.321587
v  36.318230 -4.940386 -25.321587
v  36.318230 -4.940386 -22.112347
v  39.854511 -5.565100 -22.112347
v  39.854511 -5.565100 -25.321587
v  48.778137 -4.126118 -22.112347
v  48.778137 -4.126118 -25.321587
v  48.724834 -5.680684 -25.321587
v  48.724834 -5.680684 -22.112347
v  51.215527 -4.012172 -21.424082
v  51.215527 -4.012172 -26.009853
v  51.154411 -5.794631 -26.009853
v  51.154411 -5.794631 -21.424082
v  52.467854 -4.196813 -21.279900
v  52.467854 -4.196813 -26.154036
v  52.405102 -6.027012 -26.154036
v  52.405102 -6.027012 -21.279900
v  18.050615 6.397222 -19.668968
v  10.795065 6.255133 -19.668968
v  10.795065 14.447206 -19.668968
v  18.050615 14.858521 -19.668968
v  25.971462 10.611663 -19.668968
v  34.851238 8.290663 -19.668968
v  39.796852 6.265893 -20.532024
v  43.406178 5.736414 -20.532024
v  44.267475 1.030708 -20.532024
v  39.796852 1.560187 -20.532024
v  34.851238 2.719931 -19.668968
v  25.971462 4.771706 -19.668968
v  45.490658 3.767890 -25.321587
v  45.490658 3.789619 -22.112347
v  45.490658 3.789619 -20.532024
v  44.250278 6.459223 -20.532024
v  44.250278 6.459223 -22.112347
v  44.250278 6.437494 -25.321587
v  46.640141 2.679685 -25.851435
v  46.640141 2.701414 -21.793213
v  46.640141 2.701414 -20.647636
v  44.894066 9.271547 -20.647633
v  44.894066 9.271547 -21.793213
v  44.894066 9.307889 -25.851435
v  48.367149 2.363531 -25.851435
v  65.845963 0.725654 -22.242619
v  50.807167 17.095940 -22.307909
v  48.335938 9.376003 -26.036493
v  47.253384 1.662980 -25.851435
v  47.253384 1.684708 -21.793213
v  47.253384 1.684708 -20.647635
v  48.121902 0.919425 -20.647635
v  48.121902 0.919425 -21.793213
v  48.121902 0.897697 -25.851435
v  55.030231 10.752954 -21.012489
v  55.030231 10.752954 -21.793213
v  55.030231 10.660275 -25.851435
v  53.377235 1.506144 -25.851435
v  53.131989 0.027396 -25.851435
v  53.131989 0.049124 -21.793213
v  53.131989 0.049124 -21.012491
v  47.506729 12.687742 -20.647633
v  47.506729 12.687742 -21.630926
v  47.506729 12.673392 -26.097242
v  50.364517 12.729948 -26.097242
v  53.650345 12.682158 -26.097242
v  53.650345 12.696640 -21.630926
v  53.650345 12.696640 -20.778194
v  49.495949 15.817116 -20.778194
v  49.495949 15.817116 -22.162786
v  49.495949 15.756330 -23.308529
v  50.806286 15.775648 -23.308529
v  52.122250 15.749153 -23.308529
v  52.122250 15.809830 -22.162786
v  52.122250 15.809830 -20.778194
v  50.806286 15.836723 -20.778194
v  58.370850 8.654409 -21.012489
v  58.370850 8.654409 -21.874365
v  58.370850 8.632681 -25.293056
v  57.791553 0.512777 -25.293056
v  57.573704 -0.741309 -25.293056
v  57.573704 -0.719581 -21.874365
v  57.573704 -0.719581 -21.012491
v  49.977741 16.211464 -21.417786
v  49.977741 16.211464 -22.293831
v  49.977741 16.189735 -23.308527
v  50.806805 16.202143 -23.308527
v  51.639431 16.185127 -23.308527
v  51.639431 16.206856 -22.293831
v  51.639431 16.206856 -21.417786
v  50.806805 16.223871 -21.417786
v  60.576294 7.519176 -21.012487
v  60.576294 7.497448 -21.951334
v  60.576294 7.497448 -24.763462
v  60.066101 0.346183 -24.763462
v  59.874237 -0.758301 -24.763462
v  59.874237 -0.736572 -21.951334
v  59.874237 -0.736572 -21.012487
v  62.701111 5.855087 -21.012487
v  62.701111 5.833359 -22.079163
v  62.701111 5.833359 -23.883904
v  62.305679 0.290817 -23.883904
v  62.156982 -0.565206 -23.883904
v  62.156982 -0.543478 -22.079163
v  62.156982 -0.543478 -21.012484
v  65.845963 0.747382 -21.012487
v  63.804382 4.232874 -21.012487
v  63.804382 4.211146 -22.242619
v  63.804382 4.211146 -23.229687
v  65.845963 0.725654 -22.759228
v  65.752457 0.187334 -22.759228
v  65.752457 0.209062 -22.242619
v  65.752457 0.209062 -21.012489
v  -4.151201 0.000000 -13.033808
v  0.236224 0.000000 -13.033808
v  -4.151201 0.000000 -17.969158
v  0.236224 0.000000 -17.969158
v  -4.151201 4.246970 -13.033808
v  0.236224 4.246970 -13.033808
v  -4.151201 4.246970 -17.969158
v  0.236224 4.246970 -17.969158
v  -4.151201 -4.711299 -13.033808
v  -4.151201 -4.711299 -17.969158
v  0.236224 -4.711299 -17.969158
v  0.236224 -4.711299 -13.033808
v  16.221914 -4.936423 -13.033808
v  16.221914 -4.936423 -17.969158
v  15.714041 -0.681644 -17.969158
v  15.714041 -0.681644 -13.033808
v  20.435555 -4.786525 -13.033808
v  20.435555 -4.786525 -17.969158
v  22.012430 -0.539555 -17.969158
v  22.012430 -0.539555 -13.033808
v  10.795065 6.255133 -17.969158
v  10.795065 6.255133 -13.033808
v  18.050615 6.397222 -13.033808
v  18.050615 6.397222 -17.969158
v  10.795065 14.447206 -17.969158
v  10.795065 14.447206 -13.033808
v  18.050615 14.858521 -13.033808
v  18.050615 14.858521 -17.969158
v  25.971462 4.771706 -13.033808
v  25.971462 4.771706 -17.969158
v  25.971462 10.611663 -17.969158
v  25.971462 10.611663 -13.033808
v  34.851238 2.719931 -13.033808
v  34.851238 2.719931 -17.969158
v  34.851238 8.290663 -17.969158
v  34.851238 8.290663 -13.033808
v  39.796852 1.560187 -13.896864
v  39.796852 1.560187 -17.106102
v  39.796852 6.265893 -17.106102
v  39.796852 6.265893 -13.896864
v  44.267475 1.030708 -13.896864
v  44.267475 1.030708 -17.106102
v  43.406178 5.736414 -17.106102
v  43.406178 5.736414 -13.896864
v  36.251766 -3.362386 -13.896864
v  36.251766 -3.362386 -17.106102
v  40.722389 -3.473164 -17.106102
v  40.722389 -3.473164 -13.896864
v  36.318230 -4.940386 -13.896864
v  36.318230 -4.940386 -17.106102
v  39.854511 -5.565100 -17.106102
v  39.854511 -5.565100 -13.896864
v  48.778137 -4.126118 -17.106102
v  48.778137 -4.126118 -13.896864
v  48.724834 -5.680684 -13.896864
v  48.724834 -5.680684 -17.106102
v  51.215527 -4.012172 -17.794369
v  51.215527 -4.012172 -13.208597
v  51.154411 -5.794631 -13.208597
v  51.154411 -5.794631 -17.794369
v  52.467854 -4.196813 -17.938549
v  52.467854 -4.196813 -13.064413
v  52.405102 -6.027012 -13.064413
v  52.405102 -6.027012 -17.938549
v  18.050615 6.397222 -19.549480
v  10.795065 6.255133 -19.549480
v  10.795065 14.447206 -19.549480
v  18.050615 14.858521 -19.549480
v  25.971462 10.611663 -19.549480
v  34.851238 8.290663 -19.549480
v  39.796852 6.265893 -18.686424
v  43.406178 5.736414 -18.686424
v  44.267475 1.030708 -18.686424
v  39.796852 1.560187 -18.686424
v  34.851238 2.719931 -19.549480
v  25.971462 4.771706 -19.549480
v  45.490658 3.767890 -13.896864
v  45.490658 3.789619 -17.106102
v  45.490658 3.789619 -18.686424
v  44.250278 6.459223 -18.686424
v  44.250278 6.459223 -17.106102
v  44.250278 6.437494 -13.896864
v  46.640141 2.679685 -13.367015
v  46.640141 2.701414 -17.425236
v  46.640141 2.701414 -18.570812
v  44.894066 9.271547 -18.570816
v  44.894066 9.271547 -17.425236
v  44.894066 9.307889 -13.367015
v  48.367149 2.363531 -13.367015
v  65.845963 0.725654 -16.975832
v  50.807091 17.107895 -16.913471
v  48.335938 9.376003 -13.181956
v  47.253384 1.662980 -13.367015
v  47.253384 1.684708 -17.425236
v  47.253384 1.684708 -18.570816
v  48.121902 0.919425 -18.570816
v  48.121902 0.919425 -17.425236
v  48.121902 0.897697 -13.367015
v  55.030231 10.752954 -18.205959
v  55.030231 10.752954 -17.425236
v  55.030231 10.660275 -13.367015
v  53.377235 1.506144 -13.367015
v  53.131989 0.027396 -13.367015
v  53.131989 0.049124 -17.425236
v  53.131989 0.049124 -18.205959
v  47.506729 12.687742 -18.570816
v  47.506729 12.687742 -17.587523
v  47.506729 12.673392 -13.121207
v  50.364517 12.729948 -13.121207
v  53.650345 12.682158 -13.121207
v  53.650345 12.696640 -17.587523
v  53.650345 12.696640 -18.440254
v  49.495949 15.817116 -18.440254
v  49.495949 15.817116 -17.055664
v  49.495949 15.756330 -15.909922
v  50.806286 15.775648 -15.909922
v  52.122250 15.749153 -15.909922
v  52.122250 15.809830 -17.055664
v  52.122250 15.809830 -18.440254
v  50.806286 15.836723 -18.440254
v  58.370850 8.654409 -18.205959
v  58.370850 8.654409 -17.344086
v  58.370850 8.632681 -13.925392
v  57.791553 0.512777 -13.925392
v  57.573704 -0.741309 -13.925392
v  57.573704 -0.719581 -17.344086
v  57.573704 -0.719581 -18.205959
v  49.841160 16.212578 -17.953302
v  49.841160 16.212578 -16.933168
v  49.841160 16.187275 -15.751581
v  50.806583 16.201723 -15.751581
v  51.776154 16.181910 -15.751581
v  51.776154 16.207212 -16.933168
v  51.776154 16.207212 -17.953302
v  50.806583 16.227026 -17.953302
v  60.576294 7.519176 -18.205961
v  60.576294 7.497448 -17.267117
v  60.576294 7.497448 -14.454988
v  60.066101 0.346183 -14.454988
v  59.874237 -0.758301 -14.454988
v  59.874237 -0.736572 -17.267117
v  59.874237 -0.736572 -18.205961
v  62.701111 5.855087 -18.205963
v  62.701111 5.833359 -17.139286
v  62.701111 5.833359 -15.334545
v  62.305679 0.290817 -15.334545
v  62.156982 -0.565206 -15.334545
v  62.156982 -0.543478 -17.139286
v  62.156982 -0.543478 -18.205967
v  65.845963 0.747382 -18.205963
v  63.804382 4.232874 -18.205963
v  63.804382 4.211146 -16.975832
v  63.804382 4.211146 -15.988762
v  65.845963 0.725654 -16.459221
v  65.752457 0.187334 -16.459221
v  65.752457 0.209062 -16.975832
v  65.752457 0.209062 -18.205959
v  50.244659 17.096916 -16.913471
v  50.244659 17.096916 -17.507772
v  50.807091 17.105331 -17.507772
v  51.371937 17.093788 -17.507772
v  51.371937 17.093788 -16.913471
v  51.371937 17.079048 -16.225109
v  50.807091 17.090591 -16.225109
v  50.244659 17.082174 -16.225109
v  50.314793 17.086329 -21.787634
v  50.314793 17.086329 -22.307909
v  50.314793 17.073421 -22.910526
v  50.807167 17.080791 -22.910526
v  51.301655 17.070686 -22.910526
v  51.301655 17.083591 -22.307909
v  51.301655 17.083591 -21.787634
v  50.807167 17.093697 -21.787634
# 330 vertices

vn -0.577350 -0.577350 -0.577350
vn -0.577350 -0.577350 0.577350
vn 0.577350 -0.577350 0.577350
vn 0.577350 -0.577350 -0.577350
vn -0.577350 0.577350 -0.577350
vn 0.113417 0.729892 -0.674088
vn 0.113381 0.729823 0.674168
vn -0.577350 0.577350 0.577350
vn -0.707107 0.000000 -0.707107
vn 0.207066 -0.280656 -0.937207
vn 0.113417 0.729892 -0.674088
vn -0.577350 0.577350 -0.577350
vn 0.468020 -0.648117 -0.600751
vn 0.468020 -0.648117 0.600751
vn 0.779559 0.063834 0.623068
vn 0.779559 0.063834 -0.623068
vn 0.207066 -0.280656 0.937207
vn -0.707107 0.000000 0.707107
vn -0.577350 0.577350 0.577350
vn 0.113381 0.729823 0.674168
vn -0.707107 0.000000 0.707107
vn -0.707107 0.000000 -0.707107
vn -0.577350 0.577350 -0.577350
vn -0.577350 0.577350 0.577350
vn -0.707107 0.000000 -0.707107
vn -0.707107 0.000000 0.707107
vn -0.577350 -0.577350 0.577350
vn -0.577350 -0.577350 -0.577350
vn -0.707107 0.000000 0.707107
vn 0.207066 -0.280656 0.937207
vn 0.577350 -0.577350 0.577350
vn -0.577350 -0.577350 0.577350
vn 0.207066 -0.280656 0.937207
vn 0.207066 -0.280656 -0.937207
vn 0.577350 -0.577350 -0.577350
vn 0.577350 -0.577350 0.577350
vn 0.207066 -0.280656 -0.937207
vn -0.707107 0.000000 -0.707107
vn -0.577350 -0.577350 -0.577350
vn 0.577350 -0.577350 -0.577350
vn 0.207066 -0.280656 -0.937207
vn 0.207066 -0.280656 0.937207
vn -0.097520 -0.734624 0.671429
vn -0.097520 -0.734624 -0.671429
vn 0.207066 -0.280656 0.937207
vn 0.113381 0.729823 0.674168
vn -0.140535 0.102710 0.984734
vn -0.097520 -0.734624 0.671429
vn 0.113381 0.729823 0.674168
vn 0.113417 0.729892 -0.674088
vn -0.140595 0.102753 -0.984721
vn -0.140535 0.102710 0.984734
vn 0.113417 0.729892 -0.674088
vn 0.207066 -0.280656 -0.937207
vn -0.097520 -0.734624 -0.671429
vn -0.140595 0.102753 -0.984721
vn -0.097520 -0.734624 -0.671429
vn -0.097520 -0.734624 0.671429
vn 0.468020 -0.648117 0.600751
vn 0.468020 -0.648117 -0.600751
vn -0.097520 -0.734624 0.671429
vn -0.140535 0.102710 0.984734
vn 0.779559 0.063834 0.623068
vn 0.468020 -0.648117 0.600751
vn -0.726913 0.686729 -0.000000
vn -0.591933 0.559211 -0.580429
vn 0.164030 0.741195 -0.650941
vn 0.216077 0.976376 -0.000000
vn -0.140595 0.102753 -0.984721
vn -0.097520 -0.734624 -0.671429
vn 0.468020 -0.648117 -0.600751
vn 0.779559 0.063834 -0.623068
vn -0.140535 0.102710 0.984734
vn -0.140595 0.102753 -0.984721
vn -0.728310 -0.231993 -0.644782
vn -0.855070 -0.482626 0.189545
vn -0.140595 0.102753 -0.984721
vn 0.779559 0.063834 -0.623068
vn 0.187673 -0.135946 -0.972778
vn -0.728310 -0.231993 -0.644782
vn 0.779559 0.063834 -0.623068
vn 0.779559 0.063834 0.623068
vn 0.171413 -0.868633 0.464859
vn 0.187673 -0.135946 -0.972778
vn 0.779559 0.063834 0.623068
vn -0.140535 0.102710 0.984734
vn -0.855070 -0.482626 0.189545
vn 0.171413 -0.868633 0.464859
vn -0.855070 -0.482626 0.189545
vn -0.728310 -0.231993 -0.644782
vn -0.591933 0.559211 -0.580429
vn -0.726913 0.686729 -0.000000
vn -0.728310 -0.231993 -0.644782
vn 0.187673 -0.135946 -0.972778
vn 0.164030 0.741195 -0.650941
vn -0.591933 0.559211 -0.580429
vn 0.842895 0.127678 -0.522711
vn 0.984986 0.172626 -0.001508
vn 0.845334 0.534219 -0.004587
vn 0.852238 0.504169 -0.139661
vn 0.187673 -0.135946 -0.972778
vn 0.171413 -0.868633 0.464859
vn -0.213098 -0.977031 -0.000000
vn -0.150078 -0.688094 -0.709932
vn 0.216077 0.976376 -0.000000
vn 0.164030 0.741195 -0.650941
vn 0.247807 0.631571 -0.734650
vn 0.365257 0.930907 -0.000000
vn 0.164030 0.741195 -0.650941
vn 0.187673 -0.135946 -0.972778
vn -0.150078 -0.688094 -0.709932
vn 0.247807 0.631571 -0.734650
vn -0.150078 -0.688094 -0.709932
vn -0.213098 -0.977031 -0.000000
vn -0.226718 -0.973960 -0.000000
vn -0.085453 -0.678420 -0.729688
vn 0.365257 0.930907 -0.000000
vn 0.247807 0.631571 -0.734650
vn 0.265886 0.661349 -0.701371
vn 0.316583 0.948565 -0.000000
vn 0.247807 0.631571 -0.734650
vn -0.150078 -0.688094 -0.709932
vn -0.085453 -0.678420 -0.729688
vn 0.265886 0.661349 -0.701371
vn -0.085453 -0.678420 -0.729688
vn -0.226718 -0.973960 -0.000000
vn -0.456408 -0.775889 0.435532
vn -0.269490 -0.145005 -0.952023
vn 0.316583 0.948565 -0.000000
vn 0.265886 0.661349 -0.701371
vn 0.256170 0.662780 -0.703633
vn 0.263972 0.964530 -0.000000
vn 0.265886 0.661349 -0.701371
vn -0.085453 -0.678420 -0.729688
vn -0.269490 -0.145005 -0.952023
vn 0.256170 0.662780 -0.703633
vn -0.607669 -0.532007 -0.589667
vn -0.607669 -0.532007 0.589667
vn -0.067953 -0.721225 0.689360
vn -0.067953 -0.721225 -0.689360
vn 0.263972 0.964530 -0.000000
vn 0.256170 0.662780 -0.703633
vn -0.158051 0.562922 -0.811258
vn -0.277598 0.960697 -0.000000
vn 0.256170 0.662780 -0.703633
vn -0.269490 -0.145005 -0.952023
vn 0.627188 -0.378984 -0.680446
vn -0.158051 0.562922 -0.811258
vn -0.269490 -0.145005 -0.952023
vn -0.456408 -0.775889 0.435532
vn -0.735721 0.220397 0.640422
vn -0.735804 0.220361 -0.640339
vn -0.456408 -0.775889 0.435532
vn 0.705515 -0.684436 0.183836
vn 0.247373 0.107909 0.962893
vn -0.735721 0.220397 0.640422
vn 0.705515 -0.684436 0.183836
vn 0.627188 -0.378984 -0.680446
vn 0.247379 0.108033 -0.962877
vn 0.247373 0.107909 0.962893
vn 0.627188 -0.378984 -0.680446
vn -0.269490 -0.145005 -0.952023
vn -0.735804 0.220361 -0.640339
vn 0.247379 0.108033 -0.962877
vn -0.735804 0.220361 -0.640339
vn -0.735721 0.220397 0.640422
vn -0.607669 -0.532007 0.589667
vn -0.607669 -0.532007 -0.589667
vn -0.735721 0.220397 0.640422
vn 0.247373 0.107909 0.962893
vn -0.067953 -0.721225 0.689360
vn -0.607669 -0.532007 0.589667
vn 0.590109 0.517238 0.619868
vn 0.590109 0.517238 -0.619869
vn 0.487008 -0.632046 -0.602778
vn 0.487008 -0.632046 0.602778
vn 0.247379 0.108033 -0.962877
vn -0.735804 0.220361 -0.640339
vn -0.607669 -0.532007 -0.589667
vn -0.067953 -0.721225 -0.689360
vn 0.247373 0.107909 0.962893
vn 0.247379 0.108033 -0.962877
vn -0.086678 0.727486 -0.680626
vn -0.086678 0.727486 0.680626
vn 0.247379 0.108033 -0.962877
vn -0.067953 -0.721225 -0.689360
vn -0.115824 -0.732400 -0.670951
vn -0.086678 0.727486 -0.680626
vn -0.067953 -0.721225 -0.689360
vn -0.067953 -0.721225 0.689360
vn -0.115824 -0.732399 0.670951
vn -0.115824 -0.732400 -0.670951
vn -0.067953 -0.721225 0.689360
vn 0.247373 0.107909 0.962893
vn -0.086678 0.727486 0.680626
vn -0.115824 -0.732399 0.670951
vn -0.086678 0.727486 0.680626
vn -0.086678 0.727486 -0.680626
vn -0.092927 0.715226 -0.692687
vn -0.092927 0.715226 0.692687
vn -0.086678 0.727486 -0.680626
vn -0.115824 -0.732400 -0.670951
vn -0.221843 -0.657316 -0.720223
vn -0.092927 0.715226 -0.692687
vn -0.115824 -0.732400 -0.670951
vn -0.115824 -0.732399 0.670951
vn -0.221842 -0.657316 0.720223
vn -0.221843 -0.657316 -0.720223
vn -0.115824 -0.732399 0.670951
vn -0.086678 0.727486 0.680626
vn -0.092927 0.715226 0.692687
vn -0.221842 -0.657316 0.720223
vn -0.092927 0.715226 0.692687
vn -0.092927 0.715226 -0.692687
vn 0.590109 0.517238 -0.619869
vn 0.590109 0.517238 0.619868
vn -0.092927 0.715226 -0.692687
vn -0.221843 -0.657316 -0.720223
vn 0.487008 -0.632046 -0.602778
vn 0.590109 0.517238 -0.619869
vn -0.221843 -0.657316 -0.720223
vn -0.221842 -0.657316 0.720223
vn 0.487008 -0.632046 0.602778
vn 0.487008 -0.632046 -0.602778
vn -0.221842 -0.657316 0.720223
vn -0.092927 0.715226 0.692687
vn 0.590109 0.517238 0.619868
vn 0.487008 -0.632046 0.602778
vn 0.171413 -0.868633 0.464859
vn -0.855070 -0.482626 0.189545
vn -0.700150 -0.713996 -0.000000
vn -0.091275 -0.995826 -0.000000
vn -0.855070 -0.482626 0.189545
vn -0.726913 0.686729 -0.000000
vn -0.726913 0.686729 -0.000000
vn -0.700150 -0.713996 -0.000000
vn -0.726913 0.686729 -0.000000
vn 0.216077 0.976376 -0.000000
vn 0.216077 0.976376 -0.000000
vn -0.726913 0.686729 -0.000000
vn 0.216077 0.976376 -0.000000
vn 0.365257 0.930907 -0.000000
vn 0.365257 0.930907 -0.000000
vn 0.216077 0.976376 -0.000000
vn 0.365257 0.930907 -0.000000
vn 0.316583 0.948565 -0.000000
vn 0.316583 0.948565 -0.000000
vn 0.365257 0.930907 -0.000000
vn 0.316583 0.948565 -0.000000
vn 0.263972 0.964530 -0.000000
vn 0.263972 0.964530 -0.000000
vn 0.316583 0.948565 -0.000000
vn 0.263972 0.964530 -0.000000
vn -0.277598 0.960697 -0.000000
vn -0.277598 0.960697 -0.000000
vn 0.263972 0.964530 -0.000000
vn 0.845334 0.534219 -0.004587
vn 0.984986 0.172626 -0.001508
vn 0.983695 0.179836 -0.001604
vn 0.845266 0.534325 -0.004720
vn 0.705515 -0.684436 0.183836
vn -0.456408 -0.775889 0.435532
vn -0.173239 -0.984880 -0.000000
vn 0.495038 -0.868871 -0.000000
vn -0.456408 -0.775889 0.435532
vn -0.226718 -0.973960 -0.000000
vn -0.226718 -0.973960 -0.000000
vn -0.173239 -0.984880 -0.000000
vn -0.226718 -0.973960 -0.000000
vn -0.213098 -0.977031 -0.000000
vn -0.213098 -0.977031 -0.000000
vn -0.226718 -0.973960 -0.000000
vn -0.213098 -0.977031 -0.000000
vn 0.171413 -0.868633 0.464859
vn -0.091275 -0.995826 -0.000000
vn -0.213098 -0.977031 -0.000000
vn 0.705515 -0.684436 0.183836
vn 0.495038 -0.868871 -0.000000
vn 0.196444 -0.980515 -0.000000
vn 0.195832 -0.980631 0.003583
vn -0.277598 0.960697 -0.000000
vn -0.277598 0.960697 -0.000000
vn -0.856000 0.516973 -0.001777
vn -0.855725 0.517431 -0.000000
vn -0.158051 0.562922 -0.811258
vn 0.627188 -0.378984 -0.680446
vn -0.280210 -0.526053 -0.802964
vn -0.649548 0.252444 -0.717188
vn 0.195832 -0.980631 0.003583
vn 0.196444 -0.980515 -0.000000
vn -0.778979 -0.627050 -0.000000
vn -0.778969 -0.627061 0.001554
vn -0.855725 0.517431 -0.000000
vn -0.856000 0.516973 -0.001777
vn -0.905466 0.424415 0.001896
vn -0.905190 0.425006 -0.000000
vn -0.567513 -0.474163 -0.673126
vn -0.767775 -0.640717 0.001715
vn -0.432585 -0.901590 0.002415
vn -0.328701 -0.686155 -0.648958
vn -0.767775 -0.640717 0.001715
vn -0.767654 -0.640864 -0.000000
vn -0.432392 -0.901686 -0.000000
vn -0.432585 -0.901590 0.002415
vn -0.551063 -0.392851 -0.736205
vn -0.778969 -0.627061 0.001554
vn -0.767775 -0.640717 0.001715
vn -0.567513 -0.474163 -0.673126
vn -0.778969 -0.627061 0.001554
vn -0.778979 -0.627050 -0.000000
vn -0.767654 -0.640864 -0.000000
vn -0.767775 -0.640717 0.001715
vn -0.002320 -0.013153 -0.999911
vn -0.551063 -0.392851 -0.736205
vn -0.567513 -0.474163 -0.673126
vn -0.328701 -0.686155 -0.648958
vn -0.002320 -0.013153 -0.999911
vn -0.328701 -0.686155 -0.648958
vn -0.074958 -0.692619 -0.717398
vn 0.060251 -0.010449 -0.998129
vn -0.328701 -0.686155 -0.648958
vn -0.432585 -0.901590 0.002415
vn -0.170815 -0.985300 0.002623
vn -0.074958 -0.692619 -0.717398
vn -0.432585 -0.901590 0.002415
vn -0.432392 -0.901686 -0.000000
vn -0.170838 -0.985299 -0.000000
vn -0.170815 -0.985300 0.002623
vn -0.905190 0.425006 -0.000000
vn -0.905466 0.424415 0.001896
vn -0.819940 0.572448 -0.000869
vn -0.819898 0.572510 -0.000000
vn 0.687304 0.726321 -0.008378
vn 0.686862 0.726788 -0.000000
vn 0.859335 0.511414 -0.000000
vn 0.859380 0.511336 -0.000774
vn -0.819898 0.572510 -0.000000
vn -0.819940 0.572448 -0.000869
vn -0.748684 0.662714 -0.016805
vn -0.557455 0.825290 0.090217
vn 0.859380 0.511336 -0.000774
vn 0.859335 0.511414 -0.000000
vn 0.604530 0.791231 0.092177
vn 0.784109 0.620427 -0.015590
vn 0.686862 0.726788 -0.000000
vn 0.687304 0.726321 -0.008378
vn 0.498594 0.866831 -0.002745
vn 0.495257 0.868747 -0.000000
vn -0.170815 -0.985300 0.002623
vn -0.170838 -0.985299 -0.000000
vn -0.089258 -0.996009 -0.000000
vn -0.089192 -0.996009 0.003150
vn -0.557455 0.825290 0.090217
vn -0.748684 0.662714 -0.016805
vn -0.811599 0.584176 -0.006788
vn -0.461722 0.797311 0.388726
vn -0.549003 0.710312 -0.440514
vn 0.001378 0.358627 -0.933480
vn 0.000588 0.213331 -0.976980
vn -0.459545 0.449667 -0.765910
vn 0.001378 0.358627 -0.933480
vn 0.594785 0.676377 -0.434447
vn 0.460755 0.448845 -0.765665
vn 0.000588 0.213331 -0.976980
vn 0.784109 0.620427 -0.015590
vn 0.604530 0.791231 0.092177
vn 0.464323 0.796167 0.387972
vn 0.812255 0.583263 -0.006774
vn 0.604530 0.791231 0.092177
vn 0.002638 0.962970 0.269596
vn 0.001787 0.653073 0.757292
vn 0.464323 0.796167 0.387972
vn 0.002638 0.962970 0.269596
vn -0.557455 0.825290 0.090217
vn -0.461722 0.797311 0.388726
vn 0.001787 0.653073 0.757292
vn 0.454017 0.568210 -0.686299
vn 0.175278 -0.021790 -0.984278
vn 0.297431 -0.036767 -0.954035
vn 0.533810 0.558874 -0.634592
vn 0.175278 -0.021790 -0.984278
vn 0.047944 -0.727844 -0.684065
vn 0.217340 -0.717819 -0.661437
vn 0.297431 -0.036767 -0.954035
vn -0.089192 -0.996009 0.003150
vn -0.089258 -0.996009 -0.000000
vn 0.038492 -0.999259 -0.000000
vn 0.038665 -0.999245 0.003834
vn 0.542755 0.839834 -0.009760
vn 0.533810 0.558874 -0.634592
vn 0.701892 0.445623 -0.555669
vn 0.730626 0.682742 -0.006987
vn 0.533810 0.558874 -0.634592
vn 0.297431 -0.036767 -0.954035
vn 0.334919 -0.041687 -0.941324
vn 0.701892 0.445623 -0.555669
vn 0.297431 -0.036767 -0.954035
vn 0.217340 -0.717819 -0.661437
vn 0.313435 -0.729928 -0.607424
vn 0.334919 -0.041687 -0.941324
vn 0.038665 -0.999245 0.003834
vn 0.038492 -0.999259 -0.000000
vn 0.144844 -0.989454 -0.000000
vn 0.145173 -0.989388 0.005980
vn 0.730626 0.682742 -0.006987
vn 0.701892 0.445623 -0.555669
vn 0.852238 0.504169 -0.139661
vn 0.845334 0.534219 -0.004587
vn 0.334919 -0.041687 -0.941324
vn 0.313435 -0.729928 -0.607424
vn 0.658828 -0.589715 -0.467100
vn 0.842895 0.127678 -0.522711
vn 0.145173 -0.989388 0.005980
vn 0.144844 -0.989454 -0.000000
vn 0.719143 -0.694862 -0.000000
vn 0.720701 -0.693086 0.014913
vn -0.577350 -0.577350 0.577350
vn 0.577350 -0.577350 0.577350
vn 0.577350 -0.577350 -0.577350
vn -0.577350 -0.577350 -0.577350
vn -0.577350 0.577350 0.577350
vn -0.577350 0.577350 -0.577350
vn 0.113381 0.729823 -0.674168
vn 0.113417 0.729892 0.674088
vn -0.707107 0.000000 0.707107
vn -0.577350 0.577350 0.577350
vn 0.113417 0.729892 0.674088
vn 0.207066 -0.280656 0.937207
vn 0.468020 -0.648117 0.600751
vn 0.779559 0.063834 0.623068
vn 0.779559 0.063834 -0.623068
vn 0.468020 -0.648117 -0.600751
vn 0.207066 -0.280656 -0.937207
vn 0.113381 0.729823 -0.674168
vn -0.577350 0.577350 -0.577350
vn -0.707107 0.000000 -0.707107
vn -0.707107 0.000000 -0.707107
vn -0.577350 0.577350 -0.577350
vn -0.577350 0.577350 0.577350
vn -0.707107 0.000000 0.707107
vn -0.707107 0.000000 0.707107
vn -0.577350 -0.577350 0.577350
vn -0.577350 -0.577350 -0.577350
vn -0.707107 0.000000 -0.707107
vn -0.707107 0.000000 -0.707107
vn -0.577350 -0.577350 -0.577350
vn 0.577350 -0.577350 -0.577350
vn 0.207066 -0.280656 -0.937207
vn 0.207066 -0.280656 -0.937207
vn 0.577350 -0.577350 -0.577350
vn 0.577350 -0.577350 0.577350
vn 0.207066 -0.280656 0.937207
vn 0.207066 -0.280656 0.937207
vn 0.577350 -0.577350 0.577350
vn -0.577350 -0.577350 0.577350
vn -0.707107 0.000000 0.707107
vn 0.207066 -0.280656 0.937207
vn -0.097520 -0.734624 0.671429
vn -0.097520 -0.734624 -0.671429
vn 0.207066 -0.280656 -0.937207
vn 0.207066 -0.280656 -0.937207
vn -0.097520 -0.734624 -0.671429
vn -0.140535 0.102710 -0.984734
vn 0.113381 0.729823 -0.674168
vn 0.113381 0.729823 -0.674168
vn -0.140535 0.102710 -0.984734
vn -0.140595 0.102753 0.984721
vn 0.113417 0.729892 0.674088
vn 0.113417 0.729892 0.674088
vn -0.140595 0.102753 0.984721
vn -0.097520 -0.734624 0.671429
vn 0.207066 -0.280656 0.937207
vn -0.097520 -0.734624 0.671429
vn 0.468020 -0.648117 0.600751
vn 0.468020 -0.648117 -0.600751
vn -0.097520 -0.734624 -0.671429
vn -0.097520 -0.734624 -0.671429
vn 0.468020 -0.648117 -0.600751
vn 0.779559 0.063834 -0.623068
vn -0.140535 0.102710 -0.984734
vn -0.726913 0.686729 -0.000000
vn 0.216077 0.976376 -0.000000
vn 0.164030 0.741195 0.650941
vn -0.591933 0.559211 0.580429
vn -0.140595 0.102753 0.984721
vn 0.779559 0.063834 0.623068
vn 0.468020 -0.648117 0.600751
vn -0.097520 -0.734624 0.671429
vn -0.140535 0.102710 -0.984734
vn -0.855070 -0.482626 -0.189545
vn -0.728310 -0.231993 0.644782
vn -0.140595 0.102753 0.984721
vn -0.140595 0.102753 0.984721
vn -0.728310 -0.231993 0.644782
vn 0.187673 -0.135946 0.972778
vn 0.779559 0.063834 0.623068
vn 0.779559 0.063834 0.623068
vn 0.187673 -0.135946 0.972778
vn 0.171413 -0.868633 -0.464859
vn 0.779559 0.063834 -0.623068
vn 0.779559 0.063834 -0.623068
vn 0.171413 -0.868633 -0.464859
vn -0.855070 -0.482626 -0.189545
vn -0.140535 0.102710 -0.984734
vn -0.855070 -0.482626 -0.189545
vn -0.726913 0.686729 -0.000000
vn -0.591933 0.559211 0.580429
vn -0.728310 -0.231993 0.644782
vn -0.728310 -0.231993 0.644782
vn -0.591933 0.559211 0.580429
vn 0.164030 0.741195 0.650941
vn 0.187673 -0.135946 0.972778
vn 0.842895 0.127678 0.522711
vn 0.852238 0.504169 0.139661
vn 0.845334 0.534219 0.004587
vn 0.984986 0.172626 0.001508
vn 0.187673 -0.135946 0.972778
vn -0.150078 -0.688094 0.709932
vn -0.213098 -0.977031 -0.000000
vn 0.171413 -0.868633 -0.464859
vn 0.216077 0.976376 -0.000000
vn 0.365257 0.930907 -0.000000
vn 0.247807 0.631571 0.734650
vn 0.164030 0.741195 0.650941
vn 0.164030 0.741195 0.650941
vn 0.247807 0.631571 0.734650
vn -0.150078 -0.688094 0.709932
vn 0.187673 -0.135946 0.972778
vn -0.150078 -0.688094 0.709932
vn -0.085453 -0.678420 0.729688
vn -0.226718 -0.973960 -0.000000
vn -0.213098 -0.977031 -0.000000
vn 0.365257 0.930907 -0.000000
vn 0.316583 0.948565 -0.000000
vn 0.265886 0.661349 0.701371
vn 0.247807 0.631571 0.734650
vn 0.247807 0.631571 0.734650
vn 0.265886 0.661349 0.701371
vn -0.085453 -0.678420 0.729688
vn -0.150078 -0.688094 0.709932
vn -0.085453 -0.678420 0.729688
vn -0.269490 -0.145005 0.952023
vn -0.456408 -0.775889 -0.435532
vn -0.226718 -0.973960 -0.000000
vn 0.316583 0.948565 -0.000000
vn 0.263972 0.964530 -0.000000
vn 0.256170 0.662780 0.703633
vn 0.265886 0.661349 0.701371
vn 0.265886 0.661349 0.701371
vn 0.256170 0.662780 0.703633
vn -0.269490 -0.145005 0.952023
vn -0.085453 -0.678420 0.729688
vn -0.607669 -0.532007 0.589667
vn -0.067953 -0.721225 0.689360
vn -0.067953 -0.721225 -0.689360
vn -0.607669 -0.532007 -0.589667
vn 0.263972 0.964530 -0.000000
vn -0.277598 0.960697 -0.000000
vn -0.158051 0.562922 0.811258
vn 0.256170 0.662780 0.703633
vn 0.256170 0.662780 0.703633
vn -0.158051 0.562922 0.811258
vn 0.627188 -0.378984 0.680446
vn -0.269490 -0.145005 0.952023
vn -0.269490 -0.145005 0.952023
vn -0.735804 0.220361 0.640339
vn -0.735721 0.220397 -0.640422
vn -0.456408 -0.775889 -0.435532
vn -0.456408 -0.775889 -0.435532
vn -0.735721 0.220397 -0.640422
vn 0.247373 0.107909 -0.962893
vn 0.705515 -0.684436 -0.183836
vn 0.705515 -0.684436 -0.183836
vn 0.247373 0.107909 -0.962893
vn 0.247379 0.108033 0.962877
vn 0.627188 -0.378984 0.680446
vn 0.627188 -0.378984 0.680446
vn 0.247379 0.108033 0.962877
vn -0.735804 0.220361 0.640339
vn -0.269490 -0.145005 0.952023
vn -0.735804 0.220361 0.640339
vn -0.607669 -0.532007 0.589667
vn -0.607669 -0.532007 -0.589667
vn -0.735721 0.220397 -0.640422
vn -0.735721 0.220397 -0.640422
vn -0.607669 -0.532007 -0.589667
vn -0.067953 -0.721225 -0.689360
vn 0.247373 0.107909 -0.962893
vn 0.590109 0.517238 -0.619868
vn 0.487008 -0.632046 -0.602778
vn 0.487008 -0.632046 0.602778
vn 0.590108 0.517238 0.619869
vn 0.247379 0.108033 0.962877
vn -0.067953 -0.721225 0.689360
vn -0.607669 -0.532007 0.589667
vn -0.735804 0.220361 0.640339
vn 0.247373 0.107909 -0.962893
vn -0.086678 0.727486 -0.680626
vn -0.086678 0.727486 0.680626
vn 0.247379 0.108033 0.962877
vn 0.247379 0.108033 0.962877
vn -0.086678 0.727486 0.680626
vn -0.115824 -0.732400 0.670951
vn -0.067953 -0.721225 0.689360
vn -0.067953 -0.721225 0.689360
vn -0.115824 -0.732400 0.670951
vn -0.115824 -0.732399 -0.670951
vn -0.067953 -0.721225 -0.689360
vn -0.067953 -0.721225 -0.689360
vn -0.115824 -0.732399 -0.670951
vn -0.086678 0.727486 -0.680626
vn 0.247373 0.107909 -0.962893
vn -0.086678 0.727486 -0.680626
vn -0.092927 0.715226 -0.692687
vn -0.092927 0.715227 0.692687
vn -0.086678 0.727486 0.680626
vn -0.086678 0.727486 0.680626
vn -0.092927 0.715227 0.692687
vn -0.221843 -0.657316 0.720223
vn -0.115824 -0.732400 0.670951
vn -0.115824 -0.732400 0.670951
vn -0.221843 -0.657316 0.720223
vn -0.221842 -0.657316 -0.720223
vn -0.115824 -0.732399 -0.670951
vn -0.115824 -0.732399 -0.670951
vn -0.221842 -0.657316 -0.720223
vn -0.092927 0.715226 -0.692687
vn -0.086678 0.727486 -0.680626
vn -0.092927 0.715226 -0.692687
vn 0.590109 0.517238 -0.619868
vn 0.590108 0.517238 0.619869
vn -0.092927 0.715227 0.692687
vn -0.092927 0.715227 0.692687
vn 0.590108 0.517238 0.619869
vn 0.487008 -0.632046 0.602778
vn -0.221843 -0.657316 0.720223
vn -0.221843 -0.657316 0.720223
vn 0.487008 -0.632046 0.602778
vn 0.487008 -0.632046 -0.602778
vn -0.221842 -0.657316 -0.720223
vn -0.221842 -0.657316 -0.720223
vn 0.487008 -0.632046 -0.602778
vn 0.590109 0.517238 -0.619868
vn -0.092927 0.715226 -0.692687
vn 0.171413 -0.868633 -0.464859
vn -0.091275 -0.995826 -0.000000
vn -0.700150 -0.713996 -0.000000
vn -0.855070 -0.482626 -0.189545
vn -0.855070 -0.482626 -0.189545
vn -0.700150 -0.713996 -0.000000
vn -0.726913 0.686729 -0.000000
vn -0.726913 0.686729 -0.000000
vn -0.726913 0.686729 -0.000000
vn -0.726913 0.686729 -0.000000
vn 0.216077 0.976376 -0.000000
vn 0.216077 0.976376 -0.000000
vn 0.216077 0.976376 -0.000000
vn 0.216077 0.976376 -0.000000
vn 0.365257 0.930907 -0.000000
vn 0.365257 0.930907 -0.000000
vn 0.365257 0.930907 -0.000000
vn 0.365257 0.930907 -0.000000
vn 0.316583 0.948565 -0.000000
vn 0.316583 0.948565 -0.000000
vn 0.316583 0.948565 -0.000000
vn 0.316583 0.948565 -0.000000
vn 0.263972 0.964530 -0.000000
vn 0.263972 0.964530 -0.000000
vn 0.263972 0.964530 -0.000000
vn 0.263972 0.964530 -0.000000
vn -0.277598 0.960697 -0.000000
vn -0.277598 0.960697 -0.000000
vn 0.845334 0.534219 0.004587
vn 0.845266 0.534325 0.004720
vn 0.983695 0.179836 0.001604
vn 0.984986 0.172626 0.001508
vn 0.705515 -0.684436 -0.183836
vn 0.495038 -0.868871 -0.000000
vn -0.173239 -0.984880 -0.000000
vn -0.456408 -0.775889 -0.435532
vn -0.456408 -0.775889 -0.435532
vn -0.173239 -0.984880 -0.000000
vn -0.226718 -0.973960 -0.000000
vn -0.226718 -0.973960 -0.000000
vn -0.226718 -0.973960 -0.000000
vn -0.226718 -0.973960 -0.000000
vn -0.213098 -0.977031 -0.000000
vn -0.213098 -0.977031 -0.000000
vn -0.213098 -0.977031 -0.000000
vn -0.213098 -0.977031 -0.000000
vn -0.091275 -0.995826 -0.000000
vn 0.171413 -0.868633 -0.464859
vn 0.705515 -0.684436 -0.183836
vn 0.195832 -0.980631 -0.003583
vn 0.196444 -0.980515 -0.000000
vn 0.495038 -0.868871 -0.000000
vn -0.277598 0.960697 -0.000000
vn -0.855725 0.517431 -0.000000
vn -0.856000 0.516973 0.001777
vn -0.277598 0.960697 -0.000000
vn -0.158051 0.562922 0.811258
vn -0.649548 0.252444 0.717188
vn -0.280210 -0.526053 0.802964
vn 0.627188 -0.378984 0.680446
vn 0.195832 -0.980631 -0.003583
vn -0.778969 -0.627061 -0.001554
vn -0.778979 -0.627050 -0.000000
vn 0.196444 -0.980515 -0.000000
vn -0.855725 0.517431 -0.000000
vn -0.905190 0.425006 -0.000000
vn -0.905466 0.424415 -0.001896
vn -0.856000 0.516973 0.001777
vn -0.567513 -0.474163 0.673126
vn -0.328701 -0.686155 0.648958
vn -0.432585 -0.901590 -0.002415
vn -0.767775 -0.640717 -0.001715
vn -0.767775 -0.640717 -0.001715
vn -0.432585 -0.901590 -0.002415
vn -0.432392 -0.901686 -0.000000
vn -0.767654 -0.640864 -0.000000
vn -0.551063 -0.392851 0.736205
vn -0.567513 -0.474163 0.673126
vn -0.767775 -0.640717 -0.001715
vn -0.778969 -0.627061 -0.001554
vn -0.778969 -0.627061 -0.001554
vn -0.767775 -0.640717 -0.001715
vn -0.767654 -0.640864 -0.000000
vn -0.778979 -0.627050 -0.000000
vn -0.002320 -0.013153 0.999911
vn -0.328701 -0.686155 0.648958
vn -0.567513 -0.474163 0.673126
vn -0.551063 -0.392851 0.736205
vn -0.002320 -0.013153 0.999911
vn 0.060251 -0.010449 0.998129
vn -0.074958 -0.692619 0.717398
vn -0.328701 -0.686155 0.648958
vn -0.328701 -0.686155 0.648958
vn -0.074958 -0.692619 0.717398
vn -0.170815 -0.985300 -0.002623
vn -0.432585 -0.901590 -0.002415
vn -0.432585 -0.901590 -0.002415
vn -0.170815 -0.985300 -0.002623
vn -0.170838 -0.985299 -0.000000
vn -0.432392 -0.901686 -0.000000
vn -0.905190 0.425006 -0.000000
vn -0.819898 0.572510 -0.000000
vn -0.819940 0.572448 0.000869
vn -0.905466 0.424415 -0.001896
vn 0.687304 0.726321 0.008378
vn 0.859381 0.511336 0.000774
vn 0.859335 0.511414 -0.000000
vn 0.686862 0.726788 -0.000000
vn -0.819898 0.572510 -0.000000
vn -0.577922 0.807855 -0.115659
vn -0.801936 0.597218 0.015158
vn -0.819940 0.572448 0.000869
vn 0.859381 0.511336 0.000774
vn 0.833346 0.552577 0.013887
vn 0.624220 0.772298 -0.117919
vn 0.859335 0.511414 -0.000000
vn 0.686862 0.726788 -0.000000
vn 0.495257 0.868747 -0.000000
vn 0.498594 0.866831 0.002745
vn 0.687304 0.726321 0.008378
vn -0.170815 -0.985300 -0.002623
vn -0.089192 -0.996009 -0.003150
vn -0.089258 -0.996009 -0.000000
vn -0.170838 -0.985299 -0.000000
vn -0.577922 0.807855 -0.115659
vn -0.508483 0.749688 -0.423572
vn -0.841316 0.540507 0.006265
vn -0.801936 0.597218 0.015158
vn -0.615683 0.639061 0.461016
vn -0.519671 0.269187 0.810852
vn 0.000205 0.071388 0.997449
vn 0.000946 0.185870 0.982574
vn 0.000946 0.185870 0.982574
vn 0.000205 0.071388 0.997449
vn 0.520017 0.268170 0.810967
vn 0.658362 0.601125 0.452999
vn 0.833346 0.552577 0.013887
vn 0.841693 0.539921 0.006256
vn 0.510479 0.748703 -0.422912
vn 0.624220 0.772298 -0.117919
vn 0.624220 0.772298 -0.117919
vn 0.510479 0.748703 -0.422912
vn 0.001720 0.629128 -0.777300
vn 0.002586 0.943058 -0.332617
vn 0.002586 0.943058 -0.332617
vn 0.001720 0.629128 -0.777300
vn -0.508483 0.749688 -0.423572
vn -0.577922 0.807855 -0.115659
vn 0.454017 0.568210 0.686299
vn 0.533810 0.558874 0.634592
vn 0.297430 -0.036767 0.954035
vn 0.175279 -0.021790 0.984278
vn 0.175279 -0.021790 0.984278
vn 0.297430 -0.036767 0.954035
vn 0.217340 -0.717819 0.661437
vn 0.047945 -0.727843 0.684065
vn -0.089192 -0.996009 -0.003150
vn 0.038665 -0.999245 -0.003834
vn 0.038492 -0.999259 -0.000000
vn -0.089258 -0.996009 -0.000000
vn 0.542755 0.839834 0.009760
vn 0.730626 0.682742 0.006987
vn 0.701892 0.445623 0.555669
vn 0.533810 0.558874 0.634592
vn 0.533810 0.558874 0.634592
vn 0.701892 0.445623 0.555669
vn 0.334919 -0.041687 0.941324
vn 0.297430 -0.036767 0.954035
vn 0.297430 -0.036767 0.954035
vn 0.334919 -0.041687 0.941324
vn 0.313435 -0.729928 0.607424
vn 0.217340 -0.717819 0.661437
vn 0.038665 -0.999245 -0.003834
vn 0.145173 -0.989388 -0.005980
vn 0.144844 -0.989454 -0.000000
vn 0.038492 -0.999259 -0.000000
vn 0.730626 0.682742 0.006987
vn 0.845334 0.534219 0.004587
vn 0.852238 0.504169 0.139661
vn 0.701892 0.445623 0.555669
vn 0.334919 -0.041687 0.941324
vn 0.842895 0.127678 0.522711
vn 0.658828 -0.589715 0.467100
vn 0.313435 -0.729928 0.607424
vn 0.145173 -0.989388 -0.005980
vn 0.720701 -0.693086 -0.014913
vn 0.719143 -0.694862 -0.000000
vn 0.144844 -0.989454 -0.000000
vn 0.316583 0.948565 -0.000000
vn 0.365257 0.930907 -0.000000
vn 0.365257 0.930907 -0.000000
vn 0.316583 0.948565 -0.000000
vn 0.263972 0.964530 -0.000000
vn 0.316583 0.948565 -0.000000
vn 0.316583 0.948565 -0.000000
vn 0.263972 0.964530 -0.000000
vn -0.277598 0.960697 -0.000000
vn 0.263972 0.964530 -0.000000
vn 0.263972 0.964530 -0.000000
vn -0.277598 0.960697 -0.000000
vn -0.855725 0.517431 -0.000000
vn -0.277598 0.960697 -0.000000
vn -0.277598 0.960697 -0.000000
vn -0.855725 0.517431 -0.000000
vn -0.905190 0.425006 -0.000000
vn -0.855725 0.517431 -0.000000
vn -0.855725 0.517431 -0.000000
vn -0.905190 0.425006 -0.000000
vn -0.819898 0.572510 -0.000000
vn -0.905190 0.425006 -0.000000
vn -0.905190 0.425006 -0.000000
vn -0.819898 0.572510 -0.000000
vn -0.577922 0.807855 -0.115659
vn -0.819898 0.572510 -0.000000
vn -0.819898 0.572510 -0.000000
vn -0.557455 0.825290 0.090217
vn 0.002586 0.943058 -0.332617
vn -0.577922 0.807855 -0.115659
vn -0.557455 0.825290 0.090217
vn 0.002638 0.962970 0.269596
vn 0.624220 0.772298 -0.117919
vn 0.002586 0.943058 -0.332617
vn 0.002638 0.962970 0.269596
vn 0.604530 0.791231 0.092177
vn 0.859335 0.511414 -0.000000
vn 0.624220 0.772298 -0.117919
vn 0.604530 0.791231 0.092177
vn 0.859335 0.511414 -0.000000
vn 0.686862 0.726788 -0.000000
vn 0.859335 0.511414 -0.000000
vn 0.859335 0.511414 -0.000000
vn 0.686862 0.726788 -0.000000
vn 0.495257 0.868747 -0.000000
vn 0.686862 0.726788 -0.000000
vn 0.686862 0.726788 -0.000000
vn 0.495257 0.868747 -0.000000
vn 0.539188 0.842129 0.009741
vn 0.495257 0.868747 -0.000000
vn 0.495257 0.868747 -0.000000
vn 0.539188 0.842129 -0.009741
vn 0.729923 0.683494 0.006961
vn 0.539188 0.842129 0.009741
vn 0.539188 0.842129 -0.009741
vn 0.729923 0.683494 -0.006961
vn 0.845266 0.534325 0.004720
vn 0.729923 0.683494 0.006961
vn 0.729923 0.683494 -0.006961
vn 0.845266 0.534325 -0.004720
vn 0.983695 0.179836 0.001604
vn 0.845266 0.534325 0.004720
vn 0.845266 0.534325 -0.004720
vn 0.983695 0.179836 -0.001604
vn 0.719143 -0.694862 -0.000000
vn 0.983695 0.179836 0.001604
vn 0.983695 0.179836 -0.001604
vn 0.719143 -0.694862 -0.000000
vn 0.144844 -0.989454 -0.000000
vn 0.719143 -0.694862 -0.000000
vn 0.719143 -0.694862 -0.000000
vn 0.144844 -0.989454 -0.000000
vn 0.038492 -0.999259 -0.000000
vn 0.144844 -0.989454 -0.000000
vn 0.144844 -0.989454 -0.000000
vn 0.038492 -0.999259 -0.000000
vn -0.089258 -0.996009 -0.000000
vn 0.038492 -0.999259 -0.000000
vn 0.038492 -0.999259 -0.000000
vn -0.089258 -0.996009 -0.000000
vn -0.170838 -0.985299 -0.000000
vn -0.089258 -0.996009 -0.000000
vn -0.089258 -0.996009 -0.000000
vn -0.170838 -0.985299 -0.000000
vn -0.432392 -0.901686 -0.000000
vn -0.170838 -0.985299 -0.000000
vn -0.170838 -0.985299 -0.000000
vn -0.432392 -0.901686 -0.000000
vn -0.767654 -0.640864 -0.000000
vn -0.432392 -0.901686 -0.000000
vn -0.432392 -0.901686 -0.000000
vn -0.767654 -0.640864 -0.000000
vn -0.778979 -0.627050 -0.000000
vn -0.767654 -0.640864 -0.000000
vn -0.767654 -0.640864 -0.000000
vn -0.778979 -0.627050 -0.000000
vn 0.196444 -0.980515 -0.000000
vn -0.778979 -0.627050 -0.000000
vn -0.778979 -0.627050 -0.000000
vn 0.196444 -0.980515 -0.000000
vn 0.495038 -0.868871 -0.000000
vn 0.196444 -0.980515 -0.000000
vn 0.196444 -0.980515 -0.000000
vn 0.495038 -0.868871 -0.000000
vn -0.173239 -0.984880 -0.000000
vn 0.495038 -0.868871 -0.000000
vn 0.495038 -0.868871 -0.000000
vn -0.173239 -0.984880 -0.000000
vn -0.226718 -0.973960 -0.000000
vn -0.173239 -0.984880 -0.000000
vn -0.173239 -0.984880 -0.000000
vn -0.226718 -0.973960 -0.000000
vn -0.213098 -0.977031 -0.000000
vn -0.226718 -0.973960 -0.000000
vn -0.226718 -0.973960 -0.000000
vn -0.213098 -0.977031 -0.000000
vn -0.091275 -0.995826 -0.000000
vn -0.213098 -0.977031 -0.000000
vn -0.213098 -0.977031 -0.000000
vn -0.091275 -0.995826 -0.000000
vn -0.700150 -0.713996 -0.000000
vn -0.091275 -0.995826 -0.000000
vn -0.091275 -0.995826 -0.000000
vn -0.700150 -0.713996 -0.000000
vn -0.726913 0.686729 -0.000000
vn -0.700150 -0.713996 -0.000000
vn -0.700150 -0.713996 -0.000000
vn -0.726913 0.686729 -0.000000
vn 0.216077 0.976376 -0.000000
vn -0.726913 0.686729 -0.000000
vn -0.726913 0.686729 -0.000000
vn 0.216077 0.976376 -0.000000
vn 0.365257 0.930907 -0.000000
vn 0.216077 0.976376 -0.000000
vn 0.216077 0.976376 -0.000000
vn 0.365257 0.930907 -0.000000
vn -0.841316 0.540507 0.006265
vn -0.508483 0.749688 -0.423572
vn -0.445441 0.789794 -0.421673
vn -0.547334 0.836866 0.008978
vn -0.508483 0.749688 -0.423572
vn 0.001720 0.629128 -0.777300
vn 0.002326 0.852650 -0.522477
vn -0.445441 0.789794 -0.421673
vn 0.001720 0.629128 -0.777300
vn 0.510479 0.748703 -0.422912
vn 0.447608 0.788493 -0.421812
vn 0.002326 0.852650 -0.522477
vn 0.510479 0.748703 -0.422912
vn 0.841693 0.539921 0.006256
vn 0.549731 0.835293 0.008961
vn 0.447608 0.788493 -0.421812
vn 0.841693 0.539921 0.006256
vn 0.520017 0.268170 0.810967
vn 0.449399 0.787548 0.421674
vn 0.549731 0.835293 0.008961
vn 0.520017 0.268170 0.810967
vn 0.000205 0.071388 0.997449
vn 0.002325 0.852384 0.522911
vn 0.449399 0.787548 0.421674
vn 0.000205 0.071388 0.997449
vn -0.519671 0.269187 0.810852
vn -0.447214 0.788861 0.421541
vn 0.002325 0.852384 0.522911
vn -0.519671 0.269187 0.810852
vn -0.841316 0.540507 0.006265
vn -0.547334 0.836866 0.008978
vn -0.447214 0.788861 0.421541
vn 0.627188 -0.378984 -0.680446
vn 0.705515 -0.684436 0.183836
vn 0.195832 -0.980631 0.003583
vn -0.280210 -0.526053 -0.802964
vn -0.277598 0.960697 -0.000000
vn -0.158051 0.562922 -0.811258
vn -0.649548 0.252444 -0.717188
vn -0.856000 0.516973 -0.001777
vn -0.280210 -0.526053 -0.802964
vn 0.195832 -0.980631 0.003583
vn -0.778969 -0.627061 0.001554
vn -0.551063 -0.392851 -0.736205
vn -0.856000 0.516973 -0.001777
vn -0.649548 0.252444 -0.717188
vn -0.706788 0.291575 -0.644542
vn -0.905466 0.424415 0.001896
vn -0.706788 0.291575 -0.644542
vn -0.551063 -0.392851 -0.736205
vn -0.002320 -0.013153 -0.999911
vn -0.017694 -0.014221 -0.999742
vn 0.983695 0.179836 -0.001604
vn 0.984986 0.172626 -0.001508
vn 0.720701 -0.693086 0.014913
vn 0.719143 -0.694862 -0.000000
vn 0.984986 0.172626 -0.001508
vn 0.842895 0.127678 -0.522711
vn 0.658828 -0.589715 -0.467100
vn 0.720701 -0.693086 0.014913
vn -0.017694 -0.014221 -0.999742
vn -0.002320 -0.013153 -0.999911
vn 0.060251 -0.010449 -0.998129
vn 0.500102 0.422947 -0.755655
vn -0.905466 0.424415 0.001896
vn -0.706788 0.291575 -0.644542
vn -0.475080 0.482684 -0.735741
vn -0.819940 0.572448 -0.000869
vn -0.706788 0.291575 -0.644542
vn -0.017694 -0.014221 -0.999742
vn -0.001435 0.357483 -0.933919
vn -0.475080 0.482684 -0.735741
vn 0.500102 0.422947 -0.755655
vn 0.687304 0.726321 -0.008378
vn 0.859380 0.511336 -0.000774
vn 0.495377 0.436075 -0.751292
vn -0.819940 0.572448 -0.000869
vn -0.475080 0.482684 -0.735741
vn -0.549003 0.710312 -0.440514
vn -0.748684 0.662714 -0.016805
vn 0.495377 0.436075 -0.751292
vn 0.859380 0.511336 -0.000774
vn 0.784109 0.620427 -0.015590
vn 0.594785 0.676377 -0.434447
vn 0.687304 0.726321 -0.008378
vn 0.500102 0.422947 -0.755655
vn 0.454017 0.568210 -0.686299
vn 0.498594 0.866831 -0.002745
vn 0.060251 -0.010449 -0.998129
vn -0.074958 -0.692619 -0.717398
vn 0.047944 -0.727844 -0.684065
vn 0.175278 -0.021790 -0.984278
vn -0.074958 -0.692619 -0.717398
vn -0.170815 -0.985300 0.002623
vn -0.089192 -0.996009 0.003150
vn 0.047944 -0.727844 -0.684065
vn -0.748684 0.662714 -0.016805
vn -0.549003 0.710312 -0.440514
vn -0.459545 0.449667 -0.765910
vn -0.811599 0.584176 -0.006788
vn 0.594785 0.676377 -0.434447
vn 0.784109 0.620427 -0.015590
vn 0.812255 0.583263 -0.006774
vn 0.460755 0.448845 -0.765665
vn 0.495257 0.868747 -0.000000
vn 0.498594 0.866831 -0.002745
vn 0.542755 0.839834 -0.009760
vn 0.539188 0.842129 -0.009741
vn 0.498594 0.866831 -0.002745
vn 0.454017 0.568210 -0.686299
vn 0.533810 0.558874 -0.634592
vn 0.542755 0.839834 -0.009760
vn 0.047944 -0.727844 -0.684065
vn -0.089192 -0.996009 0.003150
vn 0.038665 -0.999245 0.003834
vn 0.217340 -0.717819 -0.661437
vn 0.539188 0.842129 -0.009741
vn 0.542755 0.839834 -0.009760
vn 0.730626 0.682742 -0.006987
vn 0.729923 0.683494 -0.006961
vn 0.217340 -0.717819 -0.661437
vn 0.038665 -0.999245 0.003834
vn 0.145173 -0.989388 0.005980
vn 0.313435 -0.729928 -0.607424
vn -0.649548 0.252444 -0.717188
vn -0.280210 -0.526053 -0.802964
vn -0.551063 -0.392851 -0.736205
vn -0.706788 0.291575 -0.644542
vn 0.500102 0.422947 -0.755655
vn 0.060251 -0.010449 -0.998129
vn 0.175278 -0.021790 -0.984278
vn 0.454017 0.568210 -0.686299
vn -0.467038 0.762897 0.447061
vn -0.572165 0.820092 -0.008790
vn 0.002723 0.999942 -0.010408
vn 0.002277 0.834731 0.550653
vn -0.572165 0.820092 -0.008790
vn -0.468897 0.762682 -0.445479
vn 0.002278 0.835348 -0.549717
vn 0.002723 0.999942 -0.010408
vn 0.002277 0.834731 0.550653
vn 0.002723 0.999942 -0.010408
vn 0.574413 0.818518 -0.008773
vn 0.469022 0.761575 0.447238
vn 0.002723 0.999942 -0.010408
vn 0.002278 0.835348 -0.549717
vn 0.470884 0.761368 -0.445631
vn 0.574413 0.818518 -0.008773
vn -0.475080 0.482684 -0.735741
vn -0.001435 0.357483 -0.933919
vn 0.001378 0.358627 -0.933480
vn -0.549003 0.710312 -0.440514
vn -0.017694 -0.014221 -0.999742
vn 0.500102 0.422947 -0.755655
vn 0.495377 0.436075 -0.751292
vn -0.001435 0.357483 -0.933919
vn -0.001435 0.357483 -0.933919
vn 0.495377 0.436075 -0.751292
vn 0.594785 0.676377 -0.434447
vn 0.001378 0.358627 -0.933480
vn 0.729923 0.683494 -0.006961
vn 0.730626 0.682742 -0.006987
vn 0.845334 0.534219 -0.004587
vn 0.845266 0.534325 -0.004720
vn 0.701892 0.445623 -0.555669
vn 0.334919 -0.041687 -0.941324
vn 0.842895 0.127678 -0.522711
vn 0.852238 0.504169 -0.139661
vn 0.313435 -0.729928 -0.607424
vn 0.145173 -0.989388 0.005980
vn 0.720701 -0.693086 0.014913
vn 0.658828 -0.589715 -0.467100
vn 0.627188 -0.378984 0.680446
vn -0.280210 -0.526053 0.802964
vn 0.195832 -0.980631 -0.003583
vn 0.705515 -0.684436 -0.183836
vn -0.277598 0.960697 -0.000000
vn -0.856000 0.516973 0.001777
vn -0.649548 0.252444 0.717188
vn -0.158051 0.562922 0.811258
vn -0.280210 -0.526053 0.802964
vn -0.551063 -0.392851 0.736205
vn -0.778969 -0.627061 -0.001554
vn 0.195832 -0.980631 -0.003583
vn -0.856000 0.516973 0.001777
vn -0.905466 0.424415 -0.001896
vn -0.706788 0.291575 0.644542
vn -0.649548 0.252444 0.717188
vn -0.706788 0.291575 0.644542
vn -0.017694 -0.014221 0.999742
vn -0.002320 -0.013153 0.999911
vn -0.551063 -0.392851 0.736205
vn 0.983695 0.179836 0.001604
vn 0.719143 -0.694862 -0.000000
vn 0.720701 -0.693086 -0.014913
vn 0.984986 0.172626 0.001508
vn 0.984986 0.172626 0.001508
vn 0.720701 -0.693086 -0.014913
vn 0.658828 -0.589715 0.467100
vn 0.842895 0.127678 0.522711
vn -0.017694 -0.014221 0.999742
vn 0.500102 0.422947 0.755655
vn 0.060251 -0.010449 0.998129
vn -0.002320 -0.013153 0.999911
vn -0.905466 0.424415 -0.001896
vn -0.819940 0.572448 0.000869
vn -0.475080 0.482684 0.735741
vn -0.706788 0.291575 0.644542
vn -0.706788 0.291575 0.644542
vn -0.475080 0.482684 0.735741
vn -0.001435 0.357483 0.933919
vn -0.017694 -0.014221 0.999742
vn 0.500102 0.422947 0.755655
vn 0.495377 0.436075 0.751292
vn 0.859381 0.511336 0.000774
vn 0.687304 0.726321 0.008378
vn -0.819940 0.572448 0.000869
vn -0.801936 0.597218 0.015158
vn -0.615683 0.639061 0.461016
vn -0.475080 0.482684 0.735741
vn 0.495377 0.436075 0.751292
vn 0.658362 0.601125 0.452999
vn 0.833346 0.552577 0.013887
vn 0.859381 0.511336 0.000774
vn 0.687304 0.726321 0.008378
vn 0.498594 0.866831 0.002745
vn 0.454017 0.568210 0.686299
vn 0.500102 0.422947 0.755655
vn 0.060251 -0.010449 0.998129
vn 0.175279 -0.021790 0.984278
vn 0.047945 -0.727843 0.684065
vn -0.074958 -0.692619 0.717398
vn -0.074958 -0.692619 0.717398
vn 0.047945 -0.727843 0.684065
vn -0.089192 -0.996009 -0.003150
vn -0.170815 -0.985300 -0.002623
vn -0.801936 0.597218 0.015158
vn -0.841316 0.540507 0.006265
vn -0.519671 0.269187 0.810852
vn -0.615683 0.639061 0.461016
vn 0.658362 0.601125 0.452999
vn 0.520017 0.268170 0.810967
vn 0.841693 0.539921 0.006256
vn 0.833346 0.552577 0.013887
vn 0.495257 0.868747 -0.000000
vn 0.539188 0.842129 0.009741
vn 0.542755 0.839834 0.009760
vn 0.498594 0.866831 0.002745
vn 0.498594 0.866831 0.002745
vn 0.542755 0.839834 0.009760
vn 0.533810 0.558874 0.634592
vn 0.454017 0.568210 0.686299
vn 0.047945 -0.727843 0.684065
vn 0.217340 -0.717819 0.661437
vn 0.038665 -0.999245 -0.003834
vn -0.089192 -0.996009 -0.003150
vn 0.539188 0.842129 0.009741
vn 0.729923 0.683494 0.006961
vn 0.730626 0.682742 0.006987
vn 0.542755 0.839834 0.009760
vn 0.217340 -0.717819 0.661437
vn 0.313435 -0.729928 0.607424
vn 0.145173 -0.989388 -0.005980
vn 0.038665 -0.999245 -0.003834
vn -0.649548 0.252444 0.717188
vn -0.706788 0.291575 0.644542
vn -0.551063 -0.392851 0.736205
vn -0.280210 -0.526053 0.802964
vn 0.500102 0.422947 0.755655
vn 0.454017 0.568210 0.686299
vn 0.175279 -0.021790 0.984278
vn 0.060251 -0.010449 0.998129
vn -0.445441 0.789794 -0.421673
vn 0.002326 0.852650 -0.522477
vn 0.002725 0.999942 0.010406
vn -0.547334 0.836866 0.008978
vn -0.547334 0.836866 0.008978
vn 0.002725 0.999942 0.010406
vn 0.002325 0.852384 0.522911
vn -0.447214 0.788861 0.421541
vn 0.002326 0.852650 -0.522477
vn 0.447608 0.788493 -0.421812
vn 0.549731 0.835293 0.008961
vn 0.002725 0.999942 0.010406
vn 0.002725 0.999942 0.010406
vn 0.549731 0.835293 0.008961
vn 0.449399 0.787548 0.421674
vn 0.002325 0.852384 0.522911
vn -0.475080 0.482684 0.735741
vn -0.615683 0.639061 0.461016
vn 0.000946 0.185870 0.982574
vn -0.001435 0.357483 0.933919
vn -0.017694 -0.014221 0.999742
vn -0.001435 0.357483 0.933919
vn 0.495377 0.436075 0.751292
vn 0.500102 0.422947 0.755655
vn -0.001435 0.357483 0.933919
vn 0.000946 0.185870 0.982574
vn 0.658362 0.601125 0.452999
vn 0.495377 0.436075 0.751292
vn 0.729923 0.683494 0.006961
vn 0.845266 0.534325 0.004720
vn 0.845334 0.534219 0.004587
vn 0.730626 0.682742 0.006987
vn 0.701892 0.445623 0.555669
vn 0.852238 0.504169 0.139661
vn 0.842895 0.127678 0.522711
vn 0.334919 -0.041687 0.941324
vn 0.313435 -0.729928 0.607424
vn 0.658828 -0.589715 0.467100
vn 0.720701 -0.693086 -0.014913
vn 0.145173 -0.989388 -0.005980
vn -0.461722 0.797311 0.388726
vn -0.811599 0.584176 -0.006788
vn -0.572165 0.820092 -0.008790
vn -0.467038 0.762897 0.447061
vn -0.811599 0.584176 -0.006788
vn -0.459545 0.449667 -0.765910
vn -0.468897 0.762682 -0.445479
vn -0.572165 0.820092 -0.008790
vn -0.459545 0.449667 -0.765910
vn 0.000588 0.213331 -0.976980
vn 0.002278 0.835348 -0.549717
vn -0.468897 0.762682 -0.445479
vn 0.000588 0.213331 -0.976980
vn 0.460755 0.448845 -0.765665
vn 0.470884 0.761368 -0.445631
vn 0.002278 0.835348 -0.549717
vn 0.460755 0.448845 -0.765665
vn 0.812255 0.583263 -0.006774
vn 0.574413 0.818518 -0.008773
vn 0.470884 0.761368 -0.445631
vn 0.812255 0.583263 -0.006774
vn 0.464323 0.796167 0.387972
vn 0.469022 0.761575 0.447238
vn 0.574413 0.818518 -0.008773
vn 0.464323 0.796167 0.387972
vn 0.001787 0.653073 0.757292
vn 0.002277 0.834731 0.550653
vn 0.469022 0.761575 0.447238
vn 0.001787 0.653073 0.757292
vn -0.461722 0.797311 0.388726
vn -0.467038 0.762897 0.447061
vn 0.002277 0.834731 0.550653
# 1312 vertex normals

vt 1.000000 0.000000 0.000000
vt 0.000000 0.000000 0.000000
vt 1.000000 1.000000 0.000000
vt 0.000000 1.000000 0.000000
vt 0.000000 0.000000 0.000000
vt 1.000000 0.000000 0.000000
vt 0.000000 1.000000 0.000000
vt 1.000000 1.000000 0.000000
vt 0.000000 0.000000 0.000000
vt 1.000000 0.000000 0.000000
vt 0.000000 1.000000 0.000000
vt 1.000000 1.000000 0.000000
vt 0.000000 0.000000 0.000000
vt 1.000000 0.000000 0.000000
vt 0.000000 1.000000 0.000000
vt 1.000000 1.000000 0.000000
vt 0.000000 0.000000 0.000000
vt 1.000000 0.000000 0.000000
vt 0.000000 1.000000 0.000000
vt 1.000000 1.000000 0.000000
vt 0.000000 0.000000 0.000000
vt 1.000000 0.000000 0.000000
vt 0.000000 1.000000 0.000000
vt 1.000000 1.000000 0.000000
vt 1.000000 0.000000 0.000000
vt 1.000000 1.000000 0.000000
vt 0.000000 1.000000 0.000000
vt 0.000000 0.000000 0.000000
vt 0.000000 0.000000 0.000000
vt 1.000000 0.000000 0.000000
vt 1.000000 1.000000 0.000000
vt 0.000000 1.000000 0.000000
vt 0.000000 0.000000 0.000000
vt 1.000000 0.000000 0.000000
vt 1.000000 1.000000 0.000000
vt 0.000000 1.000000 0.000000
vt 1.000000 1.000000 0.000000
vt 0.000000 1.000000 0.000000
vt 0.000000 1.000000 0.000000
vt 1.000000 1.000000 0.000000
vt 1.000000 1.000000 0.000000
vt 0.000000 1.000000 0.000000
vt 0.000000 1.000000 0.000000
vt 1.000000 1.000000 0.000000
vt 0.000000 1.000000 0.000000
vt 1.000000 1.000000 0.000000
vt 1.000000 1.000000 0.000000
vt 0.000000 1.000000 0.000000
vt 0.000000 1.000000 0.000000
vt 1.000000 1.000000 0.000000
vt 1.000000 1.000000 0.000000
vt 0.000000 1.000000 0.000000
vt 0.000000 1.000000 0.000000
vt 1.000000 1.000000 0.000000
vt 1.000000 1.000000 0.000000
vt 0.000000 1.000000 0.000000
vt 0.000000 1.000000 0.000000
vt 1.000000 1.000000 0.000000
vt 1.000000 1.000000 0.000000
vt 0.000000 1.000000 0.000000
vt 0.000000 1.000000 0.000000
vt 1.000000 1.000000 0.000000
vt 1.000000 1.000000 0.000000
vt 0.000000 1.000000 0.000000
vt 0.000000 1.000000 0.000000
vt 1.000000 1.000000 0.000000
vt 1.000000 1.000000 0.000000
vt 0.000000 1.000000 0.000000
vt 1.000000 1.000000 0.000000
vt 0.000000 1.000000 0.000000
vt 0.000000 1.000000 0.000000
vt 1.000000 1.000000 0.000000
vt 1.000000 1.000000 0.000000
vt 0.000000 1.000000 0.000000
vt 0.000000 1.000000 0.000000
vt 1.000000 1.000000 0.000000
vt 1.000000 1.000000 0.000000
vt 0.000000 1.000000 0.000000
vt 0.000000 1.000000 0.000000
vt 1.000000 1.000000 0.000000
vt 1.000000 1.000000 0.000000
vt 1.000000 1.000000 0.000000
vt 1.000000 1.000000 0.000000
vt 1.000000 1.000000 0.000000
vt 1.000000 1.000000 0.000000
vt 1.000000 1.000000 0.000000
vt 1.000000 1.000000 0.000000
vt 1.000000 1.000000 0.000000
vt 1.000000 1.000000 0.000000
vt 1.000000 1.000000 0.000000
vt 1.000000 1.000000 0.000000
vt 1.000000 1.000000 0.000000
vt 0.000000 1.000000 0.000000
vt 1.000000 1.000000 0.000000
vt 1.000000 1.000000 0.000000
vt 1.000000 1.000000 0.000000
vt 1.000000 1.000000 0.000000
vt 0.000000 1.000000 0.000000
vt 0.000000 1.000000 0.000000
vt 1.000000 1.000000 0.000000
vt 1.000000 1.000000 0.000000
vt 1.000000 1.000000 0.000000
vt 1.000000 1.000000 0.000000
vt 0.000000 1.000000 0.000000
vt 0.000000 1.000000 0.000000
vt 1.000000 1.000000 0.000000
vt 1.000000 1.000000 0.000000
vt 0.000000 1.000000 0.000000
vt 0.000000 1.000000 0.000000
vt 1.000000 1.000000 0.000000
vt 1.000000 1.000000 0.000000
vt 1.000000 1.000000 0.000000
vt 1.000000 1.000000 0.000000
vt 0.000000 1.000000 0.000000
vt 1.000000 1.000000 0.000000
vt 1.000000 1.000000 0.000000
vt 0.000000 1.000000 0.000000
vt 0.000000 1.000000 0.000000
vt 0.000000 1.000000 0.000000
vt 1.000000 1.000000 0.000000
vt 1.000000 1.000000 0.000000
vt 1.000000 1.000000 0.000000
vt 1.000000 1.000000 0.000000
vt 0.000000 1.000000 0.000000
vt 0.000000 1.000000 0.000000
vt 0.000000 1.000000 0.000000
vt 1.000000 1.000000 0.000000
vt 1.000000 1.000000 0.000000
vt 1.000000 1.000000 0.000000
vt 1.000000 1.000000 0.000000
vt 0.000000 1.000000 0.000000
vt 0.000000 1.000000 0.000000
vt 0.000000 1.000000 0.000000
vt 1.000000 1.000000 0.000000
vt 1.000000 1.000000 0.000000
vt 1.000000 1.000000 0.000000
vt 1.000000 1.000000 0.000000
vt 1.000000 1.000000 0.000000
vt 0.000000 1.000000 0.000000
vt 0.000000 1.000000 0.000000
vt 0.000000 1.000000 0.000000
vt 1.000000 1.000000 0.000000
vt 1.000000 1.000000 0.000000
vt 1.000000 1.000000 0.000000
vt 1.000000 1.000000 0.000000
vt 0.000000 1.000000 0.000000
vt 0.000000 1.000000 0.000000
vt 0.000000 1.000000 0.000000
vt 1.000000 1.000000 0.000000
vt 1.000000 1.000000 0.000000
vt 1.000000 1.000000 0.000000
vt 1.000000 1.000000 0.000000
vt 1.000000 1.000000 0.000000
vt 0.000000 1.000000 0.000000
vt 0.000000 1.000000 0.000000
vt 0.000000 1.000000 0.000000
vt 1.000000 1.000000 0.000000
vt 1.000000 1.000000 0.000000
vt 1.000000 1.000000 0.000000
vt 1.000000 1.000000 0.000000
vt 0.000000 1.000000 0.000000
vt 0.000000 1.000000 0.000000
vt 0.000000 1.000000 0.000000
vt 1.000000 1.000000 0.000000
vt 1.000000 1.000000 0.000000
vt 1.000000 1.000000 0.000000
vt 1.000000 1.000000 0.000000
vt 1.000000 1.000000 0.000000
vt 0.000000 1.000000 0.000000
vt 0.000000 1.000000 0.000000
vt 0.000000 1.000000 0.000000
vt 1.000000 1.000000 0.000000
vt 1.000000 1.000000 0.000000
vt 1.000000 0.000000 0.000000
vt 0.000000 0.000000 0.000000
vt 1.000000 1.000000 0.000000
vt 0.000000 1.000000 0.000000
vt 0.000000 0.000000 0.000000
vt 1.000000 0.000000 0.000000
vt 0.000000 1.000000 0.000000
vt 1.000000 1.000000 0.000000
vt 0.000000 0.000000 0.000000
vt 1.000000 0.000000 0.000000
vt 0.000000 1.000000 0.000000
vt 1.000000 1.000000 0.000000
vt 0.000000 0.000000 0.000000
vt 1.000000 0.000000 0.000000
vt 0.000000 1.000000 0.000000
vt 1.000000 1.000000 0.000000
vt 0.000000 0.000000 0.000000
vt 1.000000 0.000000 0.000000
vt 0.000000 1.000000 0.000000
vt 1.000000 1.000000 0.000000
vt 0.000000 0.000000 0.000000
vt 1.000000 0.000000 0.000000
vt 0.000000 1.000000 0.000000
vt 1.000000 1.000000 0.000000
vt 1.000000 0.000000 0.000000
vt 1.000000 1.000000 0.000000
vt 0.000000 1.000000 0.000000
vt 0.000000 0.000000 0.000000
vt 0.000000 0.000000 0.000000
vt 1.000000 0.000000 0.000000
vt 1.000000 1.000000 0.000000
vt 0.000000 1.000000 0.000000
vt 0.000000 0.000000 0.000000
vt 1.000000 0.000000 0.000000
vt 1.000000 1.000000 0.000000
vt 0.000000 1.000000 0.000000
vt 1.000000 1.000000 0.000000
vt 0.000000 1.000000 0.000000
vt 0.000000 1.000000 0.000000
vt 1.000000 1.000000 0.000000
vt 1.000000 1.000000 0.000000
vt 0.000000 1.000000 0.000000
vt 0.000000 1.000000 0.000000
vt 1.000000 1.000000 0.000000
vt 0.000000 1.000000 0.000000
vt 1.000000 1.000000 0.000000
vt 1.000000 1.000000 0.000000
vt 0.000000 1.000000 0.000000
vt 0.000000 1.000000 0.000000
vt 1.000000 1.000000 0.000000
vt 1.000000 1.000000 0.000000
vt 0.000000 1.000000 0.000000
vt 0.000000 1.000000 0.000000
vt 1.000000 1.000000 0.000000
vt 1.000000 1.000000 0.000000
vt 0.000000 1.000000 0.000000
vt 0.000000 1.000000 0.000000
vt 1.000000 1.000000 0.000000
vt 1.000000 1.000000 0.000000
vt 0.000000 1.000000 0.000000
vt 0.000000 1.000000 0.000000
vt 1.000000 1.000000 0.000000
vt 1.000000 1.000000 0.000000
vt 0.000000 1.000000 0.000000
vt 0.000000 1.000000 0.000000
vt 1.000000 1.000000 0.000000
vt 1.000000 1.000000 0.000000
vt 0.000000 1.000000 0.000000
vt 1.000000 1.000000 0.000000
vt 0.000000 1.000000 0.000000
vt 0.000000 1.000000 0.000000
vt 1.000000 1.000000 0.000000
vt 1.000000 1.000000 0.000000
vt 0.000000 1.000000 0.000000
vt 0.000000 1.000000 0.000000
vt 1.000000 1.000000 0.000000
vt 1.000000 1.000000 0.000000
vt 0.000000 1.000000 0.000000
vt 0.000000 1.000000 0.000000
vt 1.000000 1.000000 0.000000
vt 1.000000 1.000000 0.000000
vt 1.000000 1.000000 0.000000
vt 1.000000 1.000000 0.000000
vt 1.000000 1.000000 0.000000
vt 1.000000 1.000000 0.000000
vt 1.000000 1.000000 0.000000
vt 1.000000 1.000000 0.000000
vt 1.000000 1.000000 0.000000
vt 1.000000 1.000000 0.000000
vt 1.000000 1.000000 0.000000
vt 1.000000 1.000000 0.000000
vt 1.000000 1.000000 0.000000
vt 0.000000 1.000000 0.000000
vt 1.000000 1.000000 0.000000
vt 1.000000 1.000000 0.000000
vt 1.000000 1.000000 0.000000
vt 1.000000 1.000000 0.000000
vt 0.000000 1.000000 0.000000
vt 0.000000 1.000000 0.000000
vt 1.000000 1.000000 0.000000
vt 1.000000 1.000000 0.000000
vt 1.000000 1.000000 0.000000
vt 1.000000 1.000000 0.000000
vt 0.000000 1.000000 0.000000
vt 0.000000 1.000000 0.000000
vt 1.000000 1.000000 0.000000
vt 1.000000 1.000000 0.000000
vt 0.000000 1.000000 0.000000
vt 0.000000 1.000000 0.000000
vt 1.000000 1.000000 0.000000
vt 1.000000 1.000000 0.000000
vt 1.000000 1.000000 0.000000
vt 1.000000 1.000000 0.000000
vt 0.000000 1.000000 0.000000
vt 1.000000 1.000000 0.000000
vt 1.000000 1.000000 0.000000
vt 0.000000 1.000000 0.000000
vt 0.000000 1.000000 0.000000
vt 0.000000 1.000000 0.000000
vt 1.000000 1.000000 0.000000
vt 1.000000 1.000000 0.000000
vt 1.000000 1.000000 0.000000
vt 1.000000 1.000000 0.000000
vt 0.000000 1.000000 0.000000
vt 0.000000 1.000000 0.000000
vt 0.000000 1.000000 0.000000
vt 1.000000 1.000000 0.000000
vt 1.000000 1.000000 0.000000
vt 1.000000 1.000000 0.000000
vt 1.000000 1.000000 0.000000
vt 0.000000 1.000000 0.000000
vt 0.000000 1.000000 0.000000
vt 0.000000 1.000000 0.000000
vt 1.000000 1.000000 0.000000
vt 1.000000 1.000000 0.000000
vt 1.000000 1.000000 0.000000
vt 1.000000 1.000000 0.000000
vt 1.000000 1.000000 0.000000
vt 0.000000 1.000000 0.000000
vt 0.000000 1.000000 0.000000
vt 0.000000 1.000000 0.000000
vt 1.000000 1.000000 0.000000
vt 1.000000 1.000000 0.000000
vt 1.000000 1.000000 0.000000
vt 1.000000 1.000000 0.000000
vt 0.000000 1.000000 0.000000
vt 0.000000 1.000000 0.000000
vt 0.000000 1.000000 0.000000
vt 1.000000 1.000000 0.000000
vt 1.000000 1.000000 0.000000
vt 1.000000 1.000000 0.000000
vt 1.000000 1.000000 0.000000
vt 1.000000 1.000000 0.000000
vt 0.000000 1.000000 0.000000
vt 0.000000 1.000000 0.000000
vt 0.000000 1.000000 0.000000
vt 1.000000 1.000000 0.000000
vt 1.000000 1.000000 0.000000
vt 1.000000 1.000000 0.000000
vt 1.000000 1.000000 0.000000
vt 0.000000 1.000000 0.000000
vt 0.000000 1.000000 0.000000
vt 0.000000 1.000000 0.000000
vt 1.000000 1.000000 0.000000
vt 1.000000 1.000000 0.000000
vt 1.000000 1.000000 0.000000
vt 1.000000 1.000000 0.000000
vt 1.000000 1.000000 0.000000
vt 0.000000 1.000000 0.000000
vt 0.000000 1.000000 0.000000
vt 0.000000 1.000000 0.000000
vt 1.000000 1.000000 0.000000
vt 1.000000 1.000000 0.000000
vt 1.000000 1.000000 0.000000
vt 1.000000 1.000000 0.000000
vt 1.000000 1.000000 0.000000
vt 1.000000 1.000000 0.000000
vt 1.000000 1.000000 0.000000
vt 0.000000 1.000000 0.000000
vt 0.000000 1.000000 0.000000
vt 0.000000 1.000000 0.000000
vt 1.000000 1.000000 0.000000
vt 1.000000 1.000000 0.000000
vt 0.000000 1.000000 0.000000
vt 0.000000 1.000000 0.000000
vt 0.000000 1.000000 0.000000
vt 1.000000 1.000000 0.000000
vt 1.000000 1.000000 0.000000
vt 1.000000 1.000000 0.000000
# 362 texture coords

o statue001
g statue001
f 12/28/4 11/27/3 10/26/2 9/25/1 
f 7/7/8 8/8/7 6/6/6 5/5/5 
f 5/11/12 6/12/11 2/10/10 1/9/9 
f 20/36/16 19/35/15 18/34/14 17/33/13 
f 8/19/20 7/20/19 3/18/18 4/17/17 
f 7/23/24 5/24/23 1/22/22 3/21/21 
f 9/25/28 10/26/27 3/3/26 1/1/25 
f 10/26/32 11/27/31 4/4/30 3/3/29 
f 11/27/36 12/28/35 2/2/34 4/4/33 
f 12/28/40 9/25/39 1/1/38 2/2/37 
f 13/29/44 14/30/43 4/14/42 2/13/41 
f 14/30/48 15/31/47 8/16/46 4/14/45 
f 15/31/52 16/32/51 6/15/50 8/16/49 
f 16/32/56 13/29/55 2/13/54 6/15/53 
f 17/33/60 18/34/59 14/30/58 13/29/57 
f 18/34/64 19/35/63 15/31/62 14/30/61 
f 28/44/68 27/43/67 26/42/66 25/41/65 
f 20/36/72 17/33/71 13/29/70 16/32/69 
f 21/37/76 22/38/75 16/32/74 15/31/73 
f 22/38/80 23/39/79 20/36/78 16/32/77 
f 23/39/84 24/40/83 19/35/82 20/36/81 
f 24/40/88 21/37/87 15/31/86 19/35/85 
f 25/41/92 26/42/91 22/38/90 21/37/89 
f 26/42/96 27/43/95 23/39/94 22/38/93 
f 153/169/100 152/168/99 90/106/98 154/170/97 
f 29/45/104 30/46/103 24/40/102 23/39/101 
f 31/47/108 32/48/107 27/43/106 28/44/105 
f 32/48/112 29/45/111 23/39/110 27/43/109 
f 33/49/116 34/50/115 30/46/114 29/45/113 
f 35/51/120 36/52/119 32/48/118 31/47/117 
f 36/52/124 33/49/123 29/45/122 32/48/121 
f 37/53/128 38/54/127 34/50/126 33/49/125 
f 39/55/132 40/56/131 36/52/130 35/51/129 
f 40/56/136 37/53/135 33/49/134 36/52/133 
f 52/68/140 51/67/139 50/66/138 49/65/137 
f 43/59/144 44/60/143 40/56/142 39/55/141 
f 44/60/148 41/57/147 37/53/146 40/56/145 
f 45/61/152 46/62/151 38/54/150 37/53/149 
f 46/62/156 47/63/155 42/58/154 38/54/153 
f 47/63/160 48/64/159 41/57/158 42/58/157 
f 48/64/164 45/61/163 37/53/162 41/57/161 
f 49/65/168 50/66/167 46/62/166 45/61/165 
f 50/66/172 51/67/171 47/63/170 46/62/169 
f 64/80/176 63/79/175 62/78/174 61/77/173 
f 52/68/180 49/65/179 45/61/178 48/64/177 
f 53/69/184 54/70/183 48/64/182 47/63/181 
f 54/70/188 55/71/187 52/68/186 48/64/185 
f 55/71/192 56/72/191 51/67/190 52/68/189 
f 56/72/196 53/69/195 47/63/194 51/67/193 
f 57/73/200 58/74/199 54/70/198 53/69/197 
f 58/74/204 59/75/203 55/71/202 54/70/201 
f 59/75/208 60/76/207 56/72/206 55/71/205 
f 60/76/212 57/73/211 53/69/210 56/72/209 
f 61/77/216 62/78/215 58/74/214 57/73/213 
f 62/78/220 63/79/219 59/75/218 58/74/217 
f 63/79/224 64/80/223 60/76/222 59/75/221 
f 64/80/228 61/77/227 57/73/226 60/76/225 
f 65/81/232 66/82/231 21/37/230 24/40/229 
f 66/82/236 67/83/235 25/41/234 21/37/233 
f 67/83/240 68/84/239 28/44/238 25/41/237 
f 68/84/244 69/85/243 31/47/242 28/44/241 
f 69/85/248 70/86/247 35/51/246 31/47/245 
f 70/86/252 71/87/251 39/55/250 35/51/249 
f 71/87/256 72/88/255 43/59/254 39/55/253 
f 151/167/260 150/166/259 90/106/258 152/168/257 
f 73/89/264 74/90/263 38/54/262 42/58/261 
f 74/90/268 75/91/267 34/50/266 38/54/265 
f 75/91/272 76/92/271 30/46/270 34/50/269 
f 76/92/276 65/81/275 24/40/274 30/46/273 
f 78/94/280 79/95/279 73/89/278 42/58/277 
f 80/96/284 81/97/283 43/59/282 72/88/281 
f 82/98/288 77/93/287 41/57/286 44/60/285 
f 84/100/292 85/101/291 79/95/290 78/94/289 
f 86/102/296 87/103/295 81/97/294 80/96/293 
f 98/114/300 97/113/299 94/110/298 93/109/297 
f 97/113/304 96/112/303 95/111/302 94/110/301 
f 93/109/308 94/110/307 84/100/306 83/99/305 
f 94/110/312 95/111/311 85/101/310 84/100/309 
f 98/114/316 93/109/315 83/99/314 89/105/313 
f 102/118/320 103/119/319 98/114/318 89/105/317 
f 103/119/324 104/120/323 97/113/322 98/114/321 
f 104/120/328 105/121/327 96/112/326 97/113/325 
f 106/122/332 107/123/331 87/103/330 86/102/329 
f 111/127/336 112/128/335 99/115/334 100/116/333 
f 113/129/340 114/130/339 107/123/338 106/122/337 
f 118/134/344 119/135/343 112/128/342 111/127/341 
f 121/137/348 122/138/347 100/116/346 99/115/345 
f 126/142/352 127/143/351 105/121/350 104/120/349 
f 128/144/356 129/145/355 114/130/354 113/129/353 
f 130/146/360 131/147/359 116/132/358 115/131/357 
f 131/147/364 132/148/363 117/133/362 116/132/361 
f 133/149/368 134/150/367 119/135/366 118/134/365 
f 134/150/372 135/151/371 120/136/370 119/135/369 
f 135/151/376 128/144/375 113/129/374 120/136/373 
f 138/154/380 139/155/379 124/140/378 123/139/377 
f 139/155/384 140/156/383 125/141/382 124/140/381 
f 141/157/388 142/158/387 127/143/386 126/142/385 
f 144/160/392 145/161/391 138/154/390 137/153/389 
f 145/161/396 146/162/395 139/155/394 138/154/393 
f 146/162/400 147/163/399 140/156/398 139/155/397 
f 148/164/404 149/165/403 142/158/402 141/157/401 
f 152/168/408 153/169/407 145/161/406 144/160/405 
f 154/170/412 155/171/411 147/163/410 146/162/409 
f 156/172/416 157/173/415 149/165/414 148/164/413 
f 167/199/420 168/200/419 169/201/418 166/198/417 
f 163/179/424 165/181/423 164/180/422 162/178/421 
f 159/183/428 163/185/427 162/184/426 158/182/425 
f 175/207/432 176/208/431 177/209/430 174/206/429 
f 160/191/436 164/193/435 165/192/434 161/190/433 
f 158/195/440 162/197/439 164/196/438 160/194/437 
f 160/176/444 167/199/443 166/198/442 158/174/441 
f 161/177/448 168/200/447 167/199/446 160/176/445 
f 159/175/452 169/201/451 168/200/450 161/177/449 
f 158/174/456 166/198/455 169/201/454 159/175/453 
f 161/187/460 171/203/459 170/202/458 159/186/457 
f 165/189/464 172/204/463 171/203/462 161/187/461 
f 163/188/468 173/205/467 172/204/466 165/189/465 
f 159/186/472 170/202/471 173/205/470 163/188/469 
f 171/203/476 175/207/475 174/206/474 170/202/473 
f 172/204/480 176/208/479 175/207/478 171/203/477 
f 183/215/484 184/216/483 185/217/482 182/214/481 
f 170/202/488 174/206/487 177/209/486 173/205/485 
f 173/205/492 179/211/491 178/210/490 172/204/489 
f 177/209/496 180/212/495 179/211/494 173/205/493 
f 176/208/500 181/213/499 180/212/498 177/209/497 
f 172/204/504 178/210/503 181/213/502 176/208/501 
f 179/211/508 183/215/507 182/214/506 178/210/505 
f 180/212/512 184/216/511 183/215/510 179/211/509 
f 247/279/516 309/341/515 310/342/514 311/343/513 
f 181/213/520 187/219/519 186/218/518 180/212/517 
f 184/216/524 189/221/523 188/220/522 185/217/521 
f 180/212/528 186/218/527 189/221/526 184/216/525 
f 187/219/532 191/223/531 190/222/530 186/218/529 
f 189/221/536 193/225/535 192/224/534 188/220/533 
f 186/218/540 190/222/539 193/225/538 189/221/537 
f 191/223/544 195/227/543 194/226/542 190/222/541 
f 193/225/548 197/229/547 196/228/546 192/224/545 
f 190/222/552 194/226/551 197/229/550 193/225/549 
f 207/239/556 208/240/555 209/241/554 206/238/553 
f 197/229/560 201/233/559 200/232/558 196/228/557 
f 194/226/564 198/230/563 201/233/562 197/229/561 
f 195/227/568 203/235/567 202/234/566 194/226/565 
f 199/231/572 204/236/571 203/235/570 195/227/569 
f 198/230/576 205/237/575 204/236/574 199/231/573 
f 194/226/580 202/234/579 205/237/578 198/230/577 
f 203/235/584 207/239/583 206/238/582 202/234/581 
f 204/236/588 208/240/587 207/239/586 203/235/585 
f 219/251/592 220/252/591 221/253/590 218/250/589 
f 202/234/596 206/238/595 209/241/594 205/237/593 
f 205/237/600 211/243/599 210/242/598 204/236/597 
f 209/241/604 212/244/603 211/243/602 205/237/601 
f 208/240/608 213/245/607 212/244/606 209/241/605 
f 204/236/612 210/242/611 213/245/610 208/240/609 
f 211/243/616 215/247/615 214/246/614 210/242/613 
f 212/244/620 216/248/619 215/247/618 211/243/617 
f 213/245/624 217/249/623 216/248/622 212/244/621 
f 210/242/628 214/246/627 217/249/626 213/245/625 
f 215/247/632 219/251/631 218/250/630 214/246/629 
f 216/248/636 220/252/635 219/251/634 215/247/633 
f 217/249/640 221/253/639 220/252/638 216/248/637 
f 214/246/644 218/250/643 221/253/642 217/249/641 
f 178/210/648 223/255/647 222/254/646 181/213/645 
f 182/214/652 224/256/651 223/255/650 178/210/649 
f 185/217/656 225/257/655 224/256/654 182/214/653 
f 188/220/660 226/258/659 225/257/658 185/217/657 
f 192/224/664 227/259/663 226/258/662 188/220/661 
f 196/228/668 228/260/667 227/259/666 192/224/665 
f 200/232/672 229/261/671 228/260/670 196/228/669 
f 247/279/676 307/339/675 308/340/674 309/341/673 
f 195/227/680 231/263/679 230/262/678 199/231/677 
f 191/223/684 232/264/683 231/263/682 195/227/681 
f 187/219/688 233/265/687 232/264/686 191/223/685 
f 181/213/692 222/254/691 233/265/690 187/219/689 
f 230/262/696 236/268/695 235/267/694 199/231/693 
f 200/232/700 238/270/699 237/269/698 229/261/697 
f 198/230/704 234/266/703 239/271/702 201/233/701 
f 236/268/708 242/274/707 241/273/706 235/267/705 
f 238/270/712 244/276/711 243/275/710 237/269/709 
f 251/283/716 254/286/715 255/287/714 250/282/713 
f 252/284/720 253/285/719 254/286/718 251/283/717 
f 241/273/724 251/283/723 250/282/722 240/272/721 
f 242/274/728 252/284/727 251/283/726 241/273/725 
f 240/272/732 250/282/731 255/287/730 246/278/729 
f 255/287/736 260/292/735 259/291/734 246/278/733 
f 254/286/740 261/293/739 260/292/738 255/287/737 
f 253/285/744 262/294/743 261/293/742 254/286/741 
f 244/276/748 264/296/747 263/295/746 243/275/745 
f 256/288/752 269/301/751 268/300/750 257/289/749 
f 264/296/756 271/303/755 270/302/754 263/295/753 
f 269/301/760 276/308/759 275/307/758 268/300/757 
f 257/289/764 279/311/763 278/310/762 256/288/761 
f 262/294/768 284/316/767 283/315/766 261/293/765 
f 271/303/772 286/318/771 285/317/770 270/302/769 
f 273/305/776 288/320/775 287/319/774 272/304/773 
f 274/306/780 289/321/779 288/320/778 273/305/777 
f 276/308/784 291/323/783 290/322/782 275/307/781 
f 277/309/788 292/324/787 291/323/786 276/308/785 
f 270/302/792 285/317/791 292/324/790 277/309/789 
f 281/313/796 296/328/795 295/327/794 280/312/793 
f 282/314/800 297/329/799 296/328/798 281/313/797 
f 284/316/804 299/331/803 298/330/802 283/315/801 
f 295/327/808 302/334/807 301/333/806 294/326/805 
f 296/328/812 303/335/811 302/334/810 295/327/809 
f 297/329/816 304/336/815 303/335/814 296/328/813 
f 299/331/820 306/338/819 305/337/818 298/330/817 
f 302/334/824 310/342/823 309/341/822 301/333/821 
f 304/336/828 312/344/827 311/343/826 303/335/825 
f 306/338/832 314/346/831 313/345/830 305/337/829 
f 70/70/836 69/69/835 226/226/834 227/227/833 
f 71/71/840 70/70/839 227/227/838 228/228/837 
f 72/72/844 71/71/843 228/228/842 229/229/841 
f 80/80/848 72/72/847 229/229/846 237/237/845 
f 86/86/852 80/80/851 237/237/850 243/243/849 
f 106/106/856 86/86/855 243/243/854 263/263/853 
f 113/113/860 106/106/859 263/263/858 270/270/857 
f 120/120/864 113/113/863 270/270/862 277/277/861 
f 119/119/868 120/120/867 277/277/866 276/276/865 
f 112/112/872 119/119/871 276/276/870 269/269/869 
f 99/99/876 112/112/875 269/269/874 256/256/873 
f 121/121/880 99/99/879 256/256/878 278/278/877 
f 136/136/884 121/121/883 278/278/882 293/293/881 
f 143/143/888 136/136/887 293/293/886 300/300/885 
f 151/151/892 143/143/891 300/300/890 308/308/889 
f 150/150/896 151/151/895 308/308/894 307/307/893 
f 157/157/900 150/150/899 307/307/898 314/314/897 
f 149/149/904 157/157/903 314/314/902 306/306/901 
f 142/142/908 149/149/907 306/306/906 299/299/905 
f 127/127/912 142/142/911 299/299/910 284/284/909 
f 105/105/916 127/127/915 284/284/914 262/262/913 
f 96/96/920 105/105/919 262/262/918 253/253/917 
f 95/95/924 96/96/923 253/253/922 252/252/921 
f 85/85/928 95/95/927 252/252/926 242/242/925 
f 79/79/932 85/85/931 242/242/930 236/236/929 
f 73/73/936 79/79/935 236/236/934 230/230/933 
f 74/74/940 73/73/939 230/230/938 231/231/937 
f 75/75/944 74/74/943 231/231/942 232/232/941 
f 76/76/948 75/75/947 232/232/946 233/233/945 
f 65/65/952 76/76/951 233/233/950 222/222/949 
f 66/66/956 65/65/955 222/222/954 223/223/953 
f 67/67/960 66/66/959 223/223/958 224/224/957 
f 68/68/964 67/67/963 224/224/962 225/225/961 
f 69/69/968 68/68/967 225/225/966 226/226/965 
f 315/347/972 316/348/971 285/317/970 286/318/969 
f 316/348/976 317/349/975 292/324/974 285/317/973 
f 317/349/980 318/350/979 291/323/978 292/324/977 
f 318/350/984 319/351/983 290/322/982 291/323/981 
f 319/351/988 320/352/987 289/321/986 290/322/985 
f 320/352/992 321/353/991 288/320/990 289/321/989 
f 321/353/996 322/354/995 287/319/994 288/320/993 
f 322/354/1000 315/347/999 286/318/998 287/319/997 
f 77/93/1004 78/94/1003 42/58/1002 41/57/1001 
f 81/97/1008 82/98/1007 44/60/1006 43/59/1005 
f 83/99/1012 84/100/1011 78/94/1010 77/93/1009 
f 87/103/1016 88/104/1015 82/98/1014 81/97/1013 
f 92/108/1020 89/105/1019 83/99/1018 88/104/1017 
f 157/173/1024 156/172/1023 90/106/1022 150/166/1021 
f 156/172/1028 155/171/1027 154/170/1026 90/106/1025 
f 101/117/1032 102/118/1031 89/105/1030 92/108/1029 
f 107/123/1036 108/124/1035 88/104/1034 87/103/1033 
f 108/124/1040 109/125/1039 92/108/1038 88/104/1037 
f 110/126/1044 111/127/1043 100/116/1042 101/117/1041 
f 114/130/1048 115/131/1047 108/124/1046 107/123/1045 
f 117/133/1052 118/134/1051 111/127/1050 110/126/1049 
f 122/138/1056 123/139/1055 101/117/1054 100/116/1053 
f 124/140/1060 125/141/1059 103/119/1058 102/118/1057 
f 125/141/1064 126/142/1063 104/120/1062 103/119/1061 
f 129/145/1068 130/146/1067 115/131/1066 114/130/1065 
f 132/148/1072 133/149/1071 118/134/1070 117/133/1069 
f 136/152/1076 137/153/1075 122/138/1074 121/137/1073 
f 137/153/1080 138/154/1079 123/139/1078 122/138/1077 
f 140/156/1084 141/157/1083 126/142/1082 125/141/1081 
f 143/159/1088 144/160/1087 137/153/1086 136/152/1085 
f 147/163/1092 148/164/1091 141/157/1090 140/156/1089 
f 88/104/1096 83/99/1095 77/93/1094 82/98/1093 
f 123/139/1100 124/140/1099 102/118/1098 101/117/1097 
f 330/362/1104 91/107/1103 324/356/1102 323/355/1101 
f 91/107/1108 326/358/1107 325/357/1106 324/356/1105 
f 329/361/1112 328/360/1111 91/107/1110 330/362/1109 
f 328/360/1116 327/359/1115 326/358/1114 91/107/1113 
f 115/131/1120 116/132/1119 109/125/1118 108/124/1117 
f 109/125/1124 110/126/1123 101/117/1122 92/108/1121 
f 116/132/1128 117/133/1127 110/126/1126 109/125/1125 
f 151/167/1132 152/168/1131 144/160/1130 143/159/1129 
f 153/169/1136 154/170/1135 146/162/1134 145/161/1133 
f 155/171/1140 156/172/1139 148/164/1138 147/163/1137 
f 199/231/1144 235/267/1143 234/266/1142 198/230/1141 
f 201/233/1148 239/271/1147 238/270/1146 200/232/1145 
f 235/267/1152 241/273/1151 240/272/1150 234/266/1149 
f 239/271/1156 245/277/1155 244/276/1154 238/270/1153 
f 240/272/1160 246/278/1159 249/281/1158 245/277/1157 
f 247/279/1164 313/345/1163 314/346/1162 307/339/1161 
f 311/343/1168 312/344/1167 313/345/1166 247/279/1165 
f 246/278/1172 259/291/1171 258/290/1170 249/281/1169 
f 245/277/1176 265/297/1175 264/296/1174 244/276/1173 
f 249/281/1180 266/298/1179 265/297/1178 245/277/1177 
f 257/289/1184 268/300/1183 267/299/1182 258/290/1181 
f 265/297/1188 272/304/1187 271/303/1186 264/296/1185 
f 268/300/1192 275/307/1191 274/306/1190 267/299/1189 
f 258/290/1196 280/312/1195 279/311/1194 257/289/1193 
f 260/292/1200 282/314/1199 281/313/1198 259/291/1197 
f 261/293/1204 283/315/1203 282/314/1202 260/292/1201 
f 272/304/1208 287/319/1207 286/318/1206 271/303/1205 
f 275/307/1212 290/322/1211 289/321/1210 274/306/1209 
f 279/311/1216 294/326/1215 293/325/1214 278/310/1213 
f 280/312/1220 295/327/1219 294/326/1218 279/311/1217 
f 283/315/1224 298/330/1223 297/329/1222 282/314/1221 
f 294/326/1228 301/333/1227 300/332/1226 293/325/1225 
f 298/330/1232 305/337/1231 304/336/1230 297/329/1229 
f 234/266/1236 240/272/1235 245/277/1234 239/271/1233 
f 259/291/1240 281/313/1239 280/312/1238 258/290/1237 
f 315/347/1244 248/280/1243 317/349/1242 316/348/1241 
f 322/354/1248 321/353/1247 248/280/1246 315/347/1245 
f 248/280/1252 319/351/1251 318/350/1250 317/349/1249 
f 321/353/1256 320/352/1255 319/351/1254 248/280/1253 
f 266/298/1260 273/305/1259 272/304/1258 265/297/1257 
f 258/290/1264 267/299/1263 266/298/1262 249/281/1261 
f 267/299/1268 274/306/1267 273/305/1266 266/298/1265 
f 301/333/1272 309/341/1271 308/340/1270 300/332/1269 
f 303/335/1276 311/343/1275 310/342/1274 302/334/1273 
f 305/337/1280 313/345/1279 312/344/1278 304/336/1277 
f 323/355/1284 324/356/1283 129/145/1282 128/144/1281 
f 324/356/1288 325/357/1287 130/146/1286 129/145/1285 
f 325/357/1292 326/358/1291 131/147/1290 130/146/1289 
f 326/358/1296 327/359/1295 132/148/1294 131/147/1293 
f 327/359/1300 328/360/1299 133/149/1298 132/148/1297 
f 328/360/1304 329/361/1303 134/150/1302 133/149/1301 
f 329/361/1308 330/362/1307 135/151/1306 134/150/1305 
f 330/362/1312 323/355/1311 128/144/1310 135/151/1309 
# 328 polygons

