# 3ds Max Wavefront OBJ Exporter v0.99 - (c)2007 guruware
# File Created: 13.03.2025 20:41:11

#
# object statue
#

v  -21.351641 -5.862511 12.154669
v  13.797529 -5.862511 12.154669
v  -21.351641 -5.862511 -17.845331
v  13.797529 -5.862511 -17.845331
v  13.797529 12.202507 12.154669
v  13.797529 12.202507 -17.845331
v  -13.965831 129.005447 -28.412992
v  -13.965828 129.005447 24.940519
v  21.037851 129.005447 24.940510
v  21.037848 129.005447 -28.412992
v  -6.725508 95.307152 -17.845331
v  13.797529 95.307152 -17.845331
v  13.797529 95.307152 12.154669
v  -6.725508 95.307152 12.154669
v  -23.900980 108.336906 12.154673
v  -23.900980 108.336906 -34.583084
v  30.973005 108.336906 -34.583084
v  30.973005 108.336906 12.154669
v  30.973005 95.307152 12.154669
v  30.973005 95.307152 -34.583084
v  -23.900980 95.307152 -34.583084
v  -23.900980 95.307152 12.154673
v  -23.900980 108.336906 24.940510
v  -23.900980 95.307152 24.940512
v  -6.725508 95.307152 24.940510
v  13.797529 95.307152 24.940510
v  30.973005 95.307152 24.940510
v  30.973005 108.336906 24.940510
v  -5.609651 108.336906 -34.583080
v  12.681677 108.336906 -34.583084
v  12.681675 95.307144 -34.583080
v  -5.609653 95.307144 -34.583084
v  -23.900980 108.336906 -17.845331
v  30.973005 108.336906 -17.845333
v  30.973005 95.307152 -17.845333
v  -23.900980 95.307152 -17.845331
v  -23.900980 112.002525 -17.845329
v  -23.900980 112.002525 12.154673
v  -23.900980 112.002525 24.940510
v  30.973005 112.002525 24.940512
v  30.973005 112.002525 12.154669
v  30.973005 112.002525 -17.845331
v  30.973005 112.002525 -34.583084
v  12.681677 112.002525 -34.583084
v  -5.609651 112.002525 -34.583080
v  -23.900980 112.002525 -34.583084
v  -20.627970 112.002525 -16.130774
v  -20.627970 112.002525 10.290472
v  -20.627970 112.002525 24.940514
v  27.699993 112.002525 24.940512
v  27.699993 112.002525 10.290468
v  27.699993 112.002525 -16.130775
v  27.699993 112.002525 -30.871847
v  11.590673 112.002525 -30.871847
v  -4.518648 112.002525 -30.871845
v  -20.627970 112.002525 -30.871847
v  -20.627970 115.068565 -16.130774
v  -20.627970 115.068565 10.290472
v  -20.627970 115.068565 24.940506
v  27.699993 115.068565 24.940508
v  27.699993 115.068565 10.290468
v  27.699993 115.068565 -16.130775
v  27.699993 115.068565 -30.871847
v  11.590673 115.068565 -30.871847
v  -4.518648 115.068565 -30.871845
v  -20.627970 115.068565 -30.871847
v  -24.368551 115.116241 -18.004755
v  -24.368551 115.116241 12.506497
v  -24.368551 115.116241 24.940506
v  31.440577 115.116241 24.940512
v  31.440577 115.116241 12.506492
v  31.440577 115.116241 -18.004759
v  31.440577 115.116241 -35.027752
v  12.837534 115.116241 -35.027752
v  -5.765508 115.116241 -35.027748
v  -24.368551 115.116241 -35.027752
v  -24.602339 129.005447 -18.212734
v  -24.602339 129.005447 12.554145
v  -24.602339 129.005447 24.940496
v  31.674364 129.005447 24.940508
v  31.674364 129.005447 12.554139
v  31.674364 129.005447 -18.212738
v  31.674364 129.005447 -35.378349
v  14.059839 129.005447 -35.378349
v  -6.987824 129.005447 -35.378345
v  -24.602339 129.005447 -35.378349
v  -13.965830 164.589844 -28.412992
v  -13.965826 164.589844 25.677044
v  21.037851 176.254013 24.940512
v  21.037848 176.254013 -28.412992
v  -13.965830 205.649979 -28.412989
v  -13.965830 205.649979 25.006033
v  19.565763 205.649979 24.657904
v  19.565756 205.649979 -28.412991
v  -13.965830 219.817917 -28.412989
v  -13.965830 219.817917 25.006029
v  19.565763 219.817917 25.858778
v  19.565756 219.817917 -28.412991
v  -39.542465 271.549957 -33.285767
v  -39.542465 271.549957 24.085112
v  24.705317 271.549957 25.322798
v  24.705309 271.549957 -33.285767
v  -39.542465 276.327850 -33.285767
v  -39.542465 276.327850 24.085112
v  24.705317 276.327850 25.322798
v  24.705309 276.327850 -33.285767
v  -44.826042 276.327850 -38.295094
v  -44.826042 276.327850 24.085112
v  29.988892 276.327850 25.322798
v  29.988882 276.327850 -38.295094
v  -40.363640 293.558472 -34.064312
v  -40.363640 293.558472 24.085112
v  -17.296427 293.558472 25.197468
v  -17.296438 293.558472 -34.064312
v  -40.363640 333.607056 -34.064312
v  -40.363640 333.607056 24.085112
v  -17.296427 333.607056 24.085110
v  -17.296438 333.607056 -34.064312
v  -40.363632 333.607056 -3.944939
v  -17.296432 333.607056 -3.944938
v  -17.296432 293.558472 -3.944938
v  29.988886 276.327850 -4.096052
v  24.705313 276.327850 -3.917131
v  24.705313 271.549957 -3.917131
v  19.565760 219.817917 -3.743087
v  19.565760 205.649979 -3.743087
v  21.037849 176.254013 -3.743090
v  21.037849 129.005447 -3.743090
v  31.674364 129.005447 -3.378761
v  31.440577 115.116241 -3.294029
v  27.699993 115.068565 -3.392007
v  27.699993 112.002525 -3.392007
v  30.973005 112.002525 -3.381097
v  30.973005 108.336906 -3.381098
v  30.973005 95.307152 -3.381098
v  13.797529 95.307152 -3.381097
v  13.797529 12.202507 -3.381097
v  13.797529 -5.862511 -3.381098
v  -21.351641 -5.862511 -3.381097
v  -6.725508 95.307144 -3.381098
v  -23.900980 95.307144 -3.381095
v  -23.900980 108.336899 -3.381095
v  -23.900980 112.002518 -3.381095
v  -20.627970 112.002518 -3.392005
v  -20.627970 115.068558 -3.392005
v  -24.368551 115.116241 -3.294026
v  -24.602339 129.005447 -3.378757
v  -13.965828 129.005447 -3.743091
v  -13.965828 164.589844 -3.743091
v  -13.965830 205.649963 -3.743087
v  -13.965830 219.817902 -3.743087
v  -39.542465 271.549957 -3.917132
v  -39.542465 276.327850 -3.917132
v  -44.826042 276.327850 -4.096054
v  -40.363632 293.558472 -3.944939
v  -35.109238 368.785767 24.085112
v  -12.042030 368.785767 24.917244
v  -12.042036 368.785767 -3.944938
v  -35.109238 368.785767 -3.944940
v  -34.644096 203.874268 -35.685947
v  -36.419792 198.547165 -37.461643
v  -29.317013 205.649963 -30.358860
v  -34.644096 203.874237 -4.608233
v  -29.317013 205.649948 -4.385357
v  -36.419792 198.547150 -4.682525
v  24.656694 203.874283 24.657904
v  26.353672 198.547195 24.940512
v  24.656691 203.874283 -3.530426
v  19.565760 205.649979 -3.743086
v  26.353670 198.547195 -3.743090
v  24.656687 203.874283 -35.764660
v  26.353666 198.547195 -37.461639
v  19.565756 205.649979 -30.673727
v  -34.644096 203.874268 25.006035
v  -36.419792 198.547165 25.006035
v  -29.317013 205.649963 25.006035
v  -34.644859 165.761108 -4.608262
v  -36.419792 171.036316 -4.682523
v  -29.320045 164.141052 -4.385482
v  -34.768646 165.759308 -36.758221
v  -29.815195 164.133820 -34.647976
v  -36.419792 171.036316 -37.461636
v  25.024715 177.537476 -3.743090
v  26.353670 182.700485 -3.743090
v  21.037849 176.254013 -3.743090
v  25.024717 177.537476 24.940512
v  26.353672 182.700485 24.940512
v  21.037851 176.254013 24.940512
v  25.455976 177.484222 -35.933582
v  22.762905 176.041031 -31.349405
v  26.353666 182.700485 -37.461639
v  -34.644852 165.761108 25.677046
v  -29.320045 164.141052 25.677046
v  -36.419792 171.036316 25.677044
v  -37.766853 221.821167 -3.905050
v  -39.542465 227.165222 -3.917132
v  -39.098564 224.053513 -3.914112
v  -32.440010 219.994537 -3.868801
v  -35.547333 220.468170 -3.889946
v  -38.323280 221.801743 -32.066952
v  -34.665733 219.916870 -28.410507
v  -36.799301 220.424469 -30.543434
v  -39.542465 227.165222 -33.285767
v  -39.237671 224.048660 -32.981064
v  23.420427 221.777008 -3.873621
v  24.705313 227.165222 -3.917131
v  24.384090 224.042465 -3.906254
v  19.565760 219.817917 -3.743087
v  21.814318 220.368820 -3.819232
v  23.420431 221.777008 25.724779
v  24.705317 227.165222 25.858778
v  24.384096 224.042465 25.724779
v  19.565763 219.817917 25.858778
v  21.814320 220.368820 25.825277
v  23.487036 221.778595 -32.067535
v  19.832220 219.824249 -28.412832
v  21.964193 220.372375 -30.544741
v  24.705309 227.165222 -33.285767
v  24.400740 224.042862 -32.981209
v  -37.766853 221.821167 25.006037
v  -32.440010 219.994537 25.006029
v  -35.547333 220.468170 25.006033
v  -39.542465 227.165222 25.006037
v  -39.098564 224.053513 25.006037
v  -43.710442 288.793213 -4.058275
v  -40.363632 293.558472 -3.944939
v  -44.826042 282.469604 -4.096054
v  -43.744743 288.762573 -37.269920
v  -44.826042 282.469604 -38.295094
v  -40.500862 293.435883 -34.194412
v  28.219461 287.945862 -4.090398
v  22.911207 290.169037 -4.073433
v  29.988886 282.469604 -4.096052
v  28.219467 287.945862 25.197470
v  22.911215 290.169037 25.197470
v  29.988892 282.469604 25.322798
v  28.226458 287.945251 -38.137402
v  29.988882 282.469604 -38.295094
v  22.939169 290.166656 -37.664330
v  -43.710442 288.793213 24.085112
v  -44.826042 282.469604 24.085112
v  -40.363640 293.558472 24.085112
v  6.990353 53.098381 -3.381097
v  7.917032 60.041893 -3.381097
v  7.284340 56.576202 -3.381097
v  7.418494 46.106403 -3.381097
v  7.035070 49.608452 -3.381097
v  6.990353 53.098381 12.154669
v  7.418494 46.106403 12.154669
v  7.035070 49.608452 12.154669
v  7.917032 60.041893 12.154669
v  7.284340 56.576202 12.154669
v  -19.564672 53.048027 -3.381098
v  -17.942480 59.635284 -3.381098
v  -19.056664 56.360302 -3.381098
v  -18.762167 46.311604 -3.381098
v  -19.466509 49.698463 -3.381098
v  -19.564672 53.048031 -17.845331
v  -18.762167 46.311607 -17.845331
v  -19.466509 49.698471 -17.845331
v  -17.942480 59.635284 -17.845331
v  -19.056665 56.360302 -17.845331
v  -19.564672 53.048031 12.154669
v  -18.762167 46.311607 12.154669
v  -19.466509 49.698471 12.154669
v  -17.942480 59.635284 12.154669
v  -19.056665 56.360302 12.154669
v  6.990353 53.098381 -17.845331
v  7.418494 46.106403 -17.845331
v  7.035070 49.608452 -17.845331
v  7.917032 60.041893 -17.845331
v  7.284340 56.576202 -17.845331
v  -7.434143 85.555046 -3.381098
v  -6.725508 92.510300 -3.381098
v  -9.560049 78.894844 -3.381098
v  -7.434143 85.555046 -17.845331
v  -9.560048 78.894844 -17.845331
v  -6.725508 92.510300 -17.845331
v  13.396504 85.453392 12.154669
v  13.797529 92.510300 12.154669
v  12.193438 78.488243 12.154669
v  -7.434143 85.555046 12.154669
v  -9.560048 78.894844 12.154669
v  -6.725508 92.510300 12.154669
v  13.396504 85.453392 -3.381097
v  13.797529 92.510300 -3.381097
v  12.193438 78.488243 -3.381097
v  13.396504 85.453392 -17.845331
v  12.193438 78.488243 -17.845331
v  13.797529 92.510300 -17.845331
v  -8.795595 12.870959 -17.845331
v  -12.618519 8.111158 -17.845331
v  -10.189535 10.323946 -17.845331
v  0.448523 12.202507 -17.845331
v  -9.112844 18.967663 -17.845331
v  -8.436698 15.752199 -17.845331
v  -8.795594 12.870959 -3.381098
v  -9.112844 18.967663 -3.381098
v  -8.436697 15.752198 -3.381098
v  -12.618519 8.111158 -3.381098
v  -10.189535 10.323946 -3.381098
v  -8.795595 12.870959 12.154669
v  -9.112844 18.967663 12.154669
v  -8.436698 15.752199 12.154669
v  0.448523 12.202507 12.154669
v  -12.618519 8.111158 12.154669
v  -10.189535 10.323946 12.154669
v  -21.351637 3.577080 -3.381098
v  -17.220760 4.846334 -3.381098
v  -21.351641 -0.954090 -3.381097
v  -21.351637 3.577080 -17.845331
v  -21.351641 -0.954090 -17.845331
v  -17.220760 4.846334 -17.845331
v  -21.351637 3.577080 12.154669
v  -17.220760 4.846334 12.154669
v  -21.351641 -0.954090 12.154669
v  -21.351641 -5.862511 39.813053
v  13.797529 -5.862511 39.813053
v  -21.351641 -5.862511 69.813057
v  13.797529 -5.862511 69.813057
v  13.797529 12.202507 39.813053
v  13.797529 12.202507 69.813057
v  -13.965831 129.005447 80.380714
v  -13.965828 129.005447 27.027205
v  21.037851 129.005447 27.027214
v  21.037848 129.005447 80.380714
v  -6.725508 95.307152 69.813057
v  13.797529 95.307152 69.813057
v  13.797529 95.307152 39.813053
v  -6.725508 95.307152 39.813053
v  -23.900980 108.336906 39.813049
v  -23.900980 108.336906 86.550804
v  30.973005 108.336906 86.550804
v  30.973005 108.336906 39.813053
v  30.973005 95.307152 39.813053
v  30.973005 95.307152 86.550804
v  -23.900980 95.307152 86.550804
v  -23.900980 95.307152 39.813049
v  -23.900980 108.336906 27.027214
v  -23.900980 95.307152 27.027212
v  -6.725508 95.307152 27.027214
v  13.797529 95.307152 27.027214
v  30.973005 95.307152 27.027214
v  30.973005 108.336906 27.027214
v  -5.609651 108.336906 86.550804
v  12.681677 108.336906 86.550804
v  12.681675 95.307144 86.550804
v  -5.609653 95.307144 86.550804
v  -23.900980 108.336906 69.813057
v  30.973005 108.336906 69.813057
v  30.973005 95.307152 69.813057
v  -23.900980 95.307152 69.813057
v  -23.900980 112.002525 69.813057
v  -23.900980 112.002525 39.813049
v  -23.900980 112.002525 27.027214
v  30.973005 112.002525 27.027212
v  30.973005 112.002525 39.813053
v  30.973005 112.002525 69.813057
v  30.973005 112.002525 86.550804
v  12.681677 112.002525 86.550804
v  -5.609651 112.002525 86.550804
v  -23.900980 112.002525 86.550804
v  -20.627970 112.002525 68.098503
v  -20.627970 112.002525 41.677250
v  -20.627970 112.002525 27.027210
v  27.699993 112.002525 27.027212
v  27.699993 112.002525 41.677254
v  27.699993 112.002525 68.098503
v  27.699993 112.002525 82.839577
v  11.590673 112.002525 82.839577
v  -4.518648 112.002525 82.839569
v  -20.627970 112.002525 82.839577
v  -20.627970 115.068565 68.098503
v  -20.627970 115.068565 41.677250
v  -20.627970 115.068565 27.027218
v  27.699993 115.068565 27.027216
v  27.699993 115.068565 41.677254
v  27.699993 115.068565 68.098503
v  27.699993 115.068565 82.839577
v  11.590673 115.068565 82.839577
v  -4.518648 115.068565 82.839569
v  -20.627970 115.068565 82.839577
v  -24.368551 115.116241 69.972481
v  -24.368551 115.116241 39.461224
v  -24.368551 115.116241 27.027218
v  31.440577 115.116241 27.027212
v  31.440577 115.116241 39.461231
v  31.440577 115.116241 69.972481
v  31.440577 115.116241 86.995476
v  12.837534 115.116241 86.995476
v  -5.765508 115.116241 86.995476
v  -24.368551 115.116241 86.995476
v  -24.602339 129.005447 70.180458
v  -24.602339 129.005447 39.413578
v  -24.602339 129.005447 27.027227
v  31.674364 129.005447 27.027216
v  31.674364 129.005447 39.413582
v  31.674364 129.005447 70.180466
v  31.674364 129.005447 87.346077
v  14.059839 129.005447 87.346077
v  -6.987824 129.005447 87.346069
v  -24.602339 129.005447 87.346077
v  -13.965830 164.589844 80.380714
v  -13.965826 164.589844 26.290680
v  21.037851 176.254013 27.027212
v  21.037848 176.254013 80.380714
v  -13.965830 205.649979 80.380714
v  -13.965830 205.649979 26.961691
v  19.565756 205.649979 80.380714
v  -13.965830 219.817917 80.380714
v  -13.965830 219.817917 26.961695
v  19.565763 219.817917 26.108946
v  19.565756 219.817917 80.380714
v  -39.542465 271.549957 85.253487
v  -39.542465 271.549957 27.882612
v  24.705317 271.549957 26.644926
v  24.705309 271.549957 85.253487
v  -39.542465 276.327850 85.253487
v  -39.542465 276.327850 27.882612
v  24.705317 276.327850 26.644926
v  24.705309 276.327850 85.253487
v  -44.826042 276.327850 90.262817
v  -44.826042 276.327850 27.882612
v  29.988892 276.327850 26.644926
v  29.988882 276.327850 90.262817
v  -40.363640 293.558472 86.032036
v  -40.363640 293.558472 27.882612
v  -17.296427 293.558472 27.882614
v  -17.296438 293.558472 86.032036
v  -40.363640 333.607056 86.032036
v  -40.363640 333.607056 27.882612
v  -17.296427 333.607056 27.882614
v  -17.296438 333.607056 86.032036
v  -40.363632 333.607056 55.912663
v  -17.296432 333.607056 55.912659
v  -17.296432 293.558472 55.912659
v  29.988886 276.327850 56.063774
v  24.705313 276.327850 55.884853
v  24.705313 271.549957 55.884853
v  19.565760 219.817917 55.710808
v  19.565760 205.649979 55.710808
v  21.037849 176.254013 55.710812
v  21.037849 129.005447 55.710812
v  31.674364 129.005447 55.346481
v  31.440577 115.116241 55.261753
v  27.699993 115.068565 55.359730
v  27.699993 112.002525 55.359730
v  30.973005 112.002525 55.348820
v  30.973005 108.336906 55.348820
v  30.973005 95.307152 55.348820
v  13.797529 95.307152 55.348820
v  13.797529 12.202507 55.348820
v  13.797529 -5.862511 55.348820
v  -21.351641 -5.862511 55.348820
v  -6.725508 95.307144 55.348820
v  -23.900980 95.307144 55.348816
v  -23.900980 108.336899 55.348816
v  -23.900980 112.002518 55.348816
v  -20.627970 112.002518 55.359726
v  -20.627970 115.068558 55.359726
v  -24.368551 115.116241 55.261745
v  -24.602339 129.005447 55.346478
v  -13.965828 129.005447 55.710812
v  -13.965828 164.589844 55.710812
v  -13.965830 205.649963 55.710808
v  -13.965830 219.817902 55.710808
v  -39.542465 271.549957 55.884853
v  -39.542465 276.327850 55.884853
v  -44.826042 276.327850 56.063778
v  -40.363632 293.558472 55.912663
v  -35.109238 368.785767 27.882612
v  -12.042030 368.785767 27.050480
v  -12.042036 368.785767 55.912659
v  -35.109238 368.785767 55.912663
v  -34.644096 203.874268 87.653671
v  -36.419792 198.547165 89.429367
v  -29.317013 205.649963 82.326584
v  -34.644096 203.874237 56.575954
v  -29.317013 205.649948 56.353077
v  -36.419792 198.547150 56.650246
v  24.656694 203.874283 27.027208
v  19.565763 205.649979 27.027210
v  26.353672 198.547195 27.027212
v  24.656691 203.874283 55.498150
v  19.565760 205.649979 55.710808
v  26.353670 198.547195 55.710812
v  24.656687 203.874283 87.732384
v  26.353666 198.547195 89.429359
v  19.565756 205.649979 82.641457
v  -34.644096 203.874268 26.961689
v  -36.419792 198.547165 26.961689
v  -29.317013 205.649963 26.961689
v  -34.644859 165.761108 56.575985
v  -36.419792 171.036316 56.650246
v  -29.320045 164.141052 56.353203
v  -34.768646 165.759308 88.725945
v  -29.815195 164.133820 86.615700
v  -36.419792 171.036316 89.429359
v  25.024715 177.537476 55.710812
v  26.353670 182.700485 55.710812
v  21.037849 176.254013 55.710812
v  25.024717 177.537476 27.027212
v  26.353672 182.700485 27.027212
v  21.037851 176.254013 27.027210
v  25.455976 177.484222 87.901306
v  22.762905 176.041031 83.317131
v  26.353666 182.700485 89.429359
v  -34.644852 165.761108 26.290678
v  -29.320045 164.141052 26.290678
v  -36.419792 171.036316 26.290680
v  -37.766853 221.821167 55.872772
v  -39.542465 227.165222 55.884853
v  -39.098564 224.053513 55.881832
v  -32.440010 219.994537 55.836521
v  -35.547333 220.468170 55.857670
v  -38.323280 221.801743 84.034676
v  -34.665733 219.916870 80.378235
v  -36.799301 220.424469 82.511162
v  -39.542465 227.165222 85.253494
v  -39.237671 224.048660 84.948792
v  23.420427 221.777008 55.841343
v  24.705313 227.165222 55.884853
v  24.384090 224.042465 55.873974
v  19.565760 219.817917 55.710808
v  21.814318 220.368820 55.786953
v  23.420431 221.777008 26.242945
v  24.705317 227.165222 26.644926
v  24.384096 224.042465 26.410437
v  19.565763 219.817917 26.108946
v  21.814320 220.368820 26.142447
v  23.487036 221.778595 84.035255
v  19.832220 219.824249 80.380562
v  21.964193 220.372375 82.512466
v  24.705309 227.165222 85.253494
v  24.400740 224.042862 84.948936
v  -37.766853 221.821167 26.961687
v  -32.440010 219.994537 26.961695
v  -35.547333 220.468170 26.961691
v  -39.542465 227.165222 26.961687
v  -39.098564 224.053513 26.961687
v  -43.710442 288.793213 56.025997
v  -40.363632 293.558472 55.912663
v  -44.826042 282.469604 56.063778
v  -43.744743 288.762573 89.237648
v  -44.826042 282.469604 90.262817
v  -40.500862 293.435883 86.162132
v  28.219461 287.945862 56.058121
v  22.911207 290.169037 56.041157
v  29.988886 282.469604 56.063774
v  28.219467 287.945862 26.770254
v  22.911215 290.169037 26.770254
v  29.988892 282.469604 26.644926
v  28.226458 287.945251 90.105125
v  29.988882 282.469604 90.262817
v  22.939169 290.166656 89.632057
v  -43.710442 288.793213 27.882612
v  -44.826042 282.469604 27.882612
v  -40.363640 293.558472 27.882612
v  6.990353 53.098381 55.348820
v  7.917032 60.041893 55.348820
v  7.284340 56.576202 55.348820
v  7.418494 46.106403 55.348820
v  7.035070 49.608452 55.348820
v  6.990353 53.098381 39.813053
v  7.418494 46.106403 39.813053
v  7.035070 49.608452 39.813053
v  7.917032 60.041893 39.813053
v  7.284340 56.576202 39.813053
v  -19.564672 53.048027 55.348820
v  -17.942480 59.635284 55.348820
v  -19.056664 56.360302 55.348820
v  -18.762167 46.311604 55.348820
v  -19.466509 49.698463 55.348820
v  -19.564672 53.048031 69.813057
v  -18.762167 46.311607 69.813057
v  -19.466509 49.698471 69.813057
v  -17.942480 59.635284 69.813057
v  -19.056665 56.360302 69.813057
v  -19.564672 53.048031 39.813053
v  -18.762167 46.311607 39.813053
v  -19.466509 49.698471 39.813053
v  -17.942480 59.635284 39.813053
v  -19.056665 56.360302 39.813053
v  6.990353 53.098381 69.813057
v  7.418494 46.106403 69.813057
v  7.035070 49.608452 69.813057
v  7.917032 60.041893 69.813057
v  7.284340 56.576202 69.813057
v  -7.434143 85.555046 55.348820
v  -6.725508 92.510300 55.348820
v  -9.560049 78.894844 55.348820
v  -7.434143 85.555046 69.813057
v  -9.560048 78.894844 69.813057
v  -6.725508 92.510300 69.813057
v  13.396504 85.453392 39.813053
v  13.797529 92.510300 39.813053
v  12.193438 78.488243 39.813053
v  -7.434143 85.555046 39.813053
v  -9.560048 78.894844 39.813053
v  -6.725508 92.510300 39.813053
v  13.396504 85.453392 55.348820
v  13.797529 92.510300 55.348820
v  12.193438 78.488243 55.348820
v  13.396504 85.453392 69.813057
v  12.193438 78.488243 69.813057
v  13.797529 92.510300 69.813057
v  -8.795595 12.870959 69.813057
v  -12.618519 8.111158 69.813057
v  -10.189535 10.323946 69.813057
v  0.448523 12.202507 69.813057
v  -9.112844 18.967663 69.813057
v  -8.436698 15.752199 69.813057
v  -8.795594 12.870959 55.348820
v  -9.112844 18.967663 55.348820
v  -8.436697 15.752198 55.348820
v  -12.618519 8.111158 55.348820
v  -10.189535 10.323946 55.348820
v  -8.795595 12.870959 39.813053
v  -9.112844 18.967663 39.813053
v  -8.436698 15.752199 39.813053
v  0.448523 12.202507 39.813053
v  -12.618519 8.111158 39.813053
v  -10.189535 10.323946 39.813053
v  -21.351637 3.577080 55.348820
v  -17.220760 4.846334 55.348820
v  -21.351641 -0.954090 55.348820
v  -21.351637 3.577080 69.813057
v  -21.351641 -0.954090 69.813057
v  -17.220760 4.846334 69.813057
v  -21.351637 3.577080 39.813053
v  -17.220760 4.846334 39.813053
v  -21.351641 -0.954090 39.813053
# 632 vertices

vt 1.000000 0.000000 0.000000
vt 0.000000 0.000000 0.000000
vt 1.000000 1.000000 0.000000
vt 0.000000 1.000000 0.000000
vt 0.000000 0.000000 0.000000
vt 1.000000 0.000000 0.000000
vt 0.000000 1.000000 0.000000
vt 1.000000 1.000000 0.000000
vt 0.000000 0.000000 0.000000
vt 1.000000 0.000000 0.000000
vt 0.000000 1.000000 0.000000
vt 1.000000 1.000000 0.000000
vt 0.000000 0.000000 0.000000
vt 1.000000 0.000000 0.000000
vt 0.000000 1.000000 0.000000
vt 1.000000 1.000000 0.000000
vt 0.000000 0.000000 0.000000
vt 1.000000 0.000000 0.000000
vt 0.000000 1.000000 0.000000
vt 1.000000 1.000000 0.000000
vt 0.000000 0.000000 0.000000
vt 1.000000 0.000000 0.000000
vt 0.000000 1.000000 0.000000
vt 1.000000 1.000000 0.000000
vt 1.000000 0.000000 0.000000
vt 1.000000 1.000000 0.000000
vt 0.000000 1.000000 0.000000
vt 0.000000 0.000000 0.000000
vt 0.000000 0.000000 0.000000
vt 0.000000 1.000000 0.000000
vt 0.315899 0.000000 0.000000
vt 0.315899 0.000000 0.000000
vt 0.315899 1.000000 0.000000
vt 0.315899 1.000000 0.000000
vt 0.315899 1.000000 0.000000
vt 0.684101 1.000000 0.000000
vt 0.315899 1.000000 0.000000
vt 0.315899 0.000000 0.000000
vt 1.000000 0.000000 0.000000
vt 1.000000 1.000000 0.000000
vt 0.315899 1.000000 0.000000
vt 0.315899 0.000000 0.000000
vt 1.000000 0.000000 0.000000
vt 1.000000 1.000000 0.000000
vt 0.315899 1.000000 0.000000
vt 1.000000 1.000000 0.000000
vt 1.000000 0.000000 0.000000
vt 0.315899 0.000000 0.000000
vt 0.315899 0.000000 0.000000
vt 0.315899 1.000000 0.000000
vt 1.000000 1.000000 0.000000
vt 1.000000 0.000000 0.000000
vt 1.000000 0.000000 0.000000
vt 1.000000 1.000000 0.000000
vt 0.315899 1.000000 0.000000
vt 0.315899 0.000000 0.000000
vt 0.315899 0.000000 0.000000
vt 0.315899 0.000000 0.000000
vt 0.315899 0.000000 0.000000
vt 1.000000 0.000000 0.000000
vt 1.000000 0.000000 0.000000
vt 1.000000 0.000000 0.000000
vt 0.543932 1.000000 0.000000
vt 0.771966 1.000000 0.000000
vt 0.771966 1.000000 0.000000
vt 0.543932 1.000000 0.000000
vt 0.315899 0.500000 0.000000
vt 1.000000 0.500000 0.000000
vt 1.000000 0.500000 0.000000
vt 0.315899 0.500000 0.000000
vt 0.315899 0.500000 0.000000
vt 0.315899 0.000000 0.000000
vt 0.315899 0.000000 0.000000
vt 1.000000 0.000000 0.000000
vt 1.000000 0.000000 0.000000
vt 1.000000 0.500000 0.000000
vt 1.000000 1.000000 0.000000
vt 0.771966 1.000000 0.000000
vt 0.543932 1.000000 0.000000
vt 0.315899 1.000000 0.000000
vt 0.315899 0.500000 0.000000
vt 0.315899 0.000000 0.000000
vt 0.315899 0.000000 0.000000
vt 1.000000 0.000000 0.000000
vt 1.000000 0.000000 0.000000
vt 1.000000 0.500000 0.000000
vt 1.000000 1.000000 0.000000
vt 0.771966 1.000000 0.000000
vt 0.543932 1.000000 0.000000
vt 0.315899 1.000000 0.000000
vt 0.315899 0.500000 0.000000
vt 0.315899 0.000000 0.000000
vt 0.315899 0.000000 0.000000
vt 1.000000 0.000000 0.000000
vt 1.000000 0.000000 0.000000
vt 1.000000 0.500000 0.000000
vt 1.000000 1.000000 0.000000
vt 0.771966 1.000000 0.000000
vt 0.543932 1.000000 0.000000
vt 0.315899 1.000000 0.000000
vt 0.315899 0.500000 0.000000
vt 0.315899 0.000000 0.000000
vt 0.315899 0.000000 0.000000
vt 1.000000 0.000000 0.000000
vt 1.000000 0.000000 0.000000
vt 1.000000 0.500000 0.000000
vt 1.000000 1.000000 0.000000
vt 0.771966 1.000000 0.000000
vt 0.543932 1.000000 0.000000
vt 0.315899 1.000000 0.000000
vt 0.315899 0.500000 0.000000
vt 0.315899 0.000000 0.000000
vt 0.315899 0.000000 0.000000
vt 1.000000 0.000000 0.000000
vt 1.000000 0.000000 0.000000
vt 1.000000 0.500000 0.000000
vt 1.000000 1.000000 0.000000
vt 0.771966 1.000000 0.000000
vt 0.543932 1.000000 0.000000
vt 0.315899 1.000000 0.000000
vt 0.315899 1.000000 0.000000
vt 0.315899 0.000000 0.000000
vt 1.000000 0.000000 0.000000
vt 1.000000 1.000000 0.000000
vt 0.315899 1.000000 0.000000
vt 0.315899 0.000000 0.000000
vt 1.000000 0.000000 0.000000
vt 1.000000 1.000000 0.000000
vt 0.315899 1.000000 0.000000
vt 0.315899 0.000000 0.000000
vt 1.000000 0.000000 0.000000
vt 1.000000 1.000000 0.000000
vt 0.315899 1.000000 0.000000
vt 0.315899 0.000000 0.000000
vt 1.000000 0.000000 0.000000
vt 1.000000 1.000000 0.000000
vt 0.315899 1.000000 0.000000
vt 0.315899 0.000000 0.000000
vt 1.000000 0.000000 0.000000
vt 1.000000 1.000000 0.000000
vt 0.315899 1.000000 0.000000
vt 0.315899 0.000000 0.000000
vt 1.000000 0.000000 0.000000
vt 1.000000 1.000000 0.000000
vt 0.315899 1.000000 0.000000
vt 0.315899 0.000000 0.000000
vt 1.000000 0.000000 0.000000
vt 1.000000 1.000000 0.000000
vt 0.315899 1.000000 0.000000
vt 0.315899 0.000000 0.000000
vt 1.000000 0.000000 0.000000
vt 1.000000 1.000000 0.000000
vt 0.315899 1.000000 0.000000
vt 0.315899 0.000000 0.000000
vt 1.000000 0.000000 0.000000
vt 1.000000 1.000000 0.000000
vt 0.315899 1.000000 0.000000
vt 0.315899 0.000000 0.000000
vt 1.000000 0.000000 0.000000
vt 1.000000 1.000000 0.000000
vt 0.315899 1.000000 0.000000
vt 0.315899 0.000000 0.000000
vt 1.000000 0.000000 0.000000
vt 1.000000 1.000000 0.000000
vt 0.315899 1.000000 0.000000
vt 0.315899 0.000000 0.000000
vt 1.000000 0.000000 0.000000
vt 1.000000 1.000000 0.000000
vt 0.315899 0.517859 0.000000
vt 1.000000 0.517859 0.000000
vt 1.000000 0.517859 0.000000
vt 1.000000 0.517859 0.000000
vt 1.000000 0.517859 0.000000
vt 1.000000 0.517859 0.000000
vt 1.000000 0.517859 0.000000
vt 1.000000 0.517859 0.000000
vt 1.000000 0.517859 0.000000
vt 1.000000 0.517859 0.000000
vt 1.000000 0.517859 0.000000
vt 1.000000 0.517859 0.000000
vt 1.000000 0.517859 0.000000
vt 1.000000 0.517859 0.000000
vt 1.000000 0.258929 0.000000
vt 1.000000 0.258929 0.000000
vt 1.000000 0.258929 0.000000
vt 1.000000 0.258929 0.000000
vt 1.000000 0.258929 0.000000
vt 1.000000 0.258929 0.000000
vt 1.000000 0.258929 0.000000
vt 1.000000 0.517859 0.000000
vt 1.000000 0.517859 0.000000
vt 1.000000 0.517859 0.000000
vt 1.000000 0.517859 0.000000
vt 0.517859 1.000000 0.000000
vt 0.000000 0.517859 0.000000
vt 0.517859 0.000000 0.000000
vt 1.000000 0.517859 0.000000
vt 0.482141 0.000000 0.000000
vt 0.000000 0.517859 0.000000
vt 0.482141 1.000000 0.000000
vt 0.000000 0.517859 0.000000
vt 0.315899 0.517859 0.000000
vt 0.000000 0.517859 0.000000
vt 0.315899 0.517859 0.000000
vt 0.315899 0.517859 0.000000
vt 0.315899 0.258929 0.000000
vt 0.315899 0.258929 0.000000
vt 0.315899 0.258929 0.000000
vt 0.315899 0.258929 0.000000
vt 0.315899 0.258929 0.000000
vt 0.315899 0.258929 0.000000
vt 0.315899 0.258929 0.000000
vt 0.315899 0.517859 0.000000
vt 0.315899 0.517859 0.000000
vt 0.315899 0.517859 0.000000
vt 0.315899 0.517859 0.000000
vt 0.315899 0.517859 0.000000
vt 0.315899 0.517859 0.000000
vt 0.315899 0.517859 0.000000
vt 0.315899 0.517859 0.000000
vt 0.315899 0.517859 0.000000
vt 0.315899 0.517859 0.000000
vt 0.315899 0.517859 0.000000
vt 0.315899 0.517859 0.000000
vt 0.315899 0.000000 0.000000
vt 1.000000 0.000000 0.000000
vt 1.000000 0.517859 0.000000
vt 0.315899 0.517859 0.000000
vt 0.315899 1.000000 0.000000
vt 0.315899 1.000000 0.000000
vt 0.315899 0.517859 0.000000
vt 0.315899 0.517859 0.000000
vt 1.000000 0.000000 0.000000
vt 1.000000 0.517859 0.000000
vt 1.000000 0.517859 0.000000
vt 1.000000 1.000000 0.000000
vt 1.000000 1.000000 0.000000
vt 0.315899 0.000000 0.000000
vt 0.315899 0.000000 0.000000
vt 0.315899 0.517859 0.000000
vt 0.315899 0.517859 0.000000
vt 0.315899 1.000000 0.000000
vt 0.315899 1.000000 0.000000
vt 1.000000 0.517859 0.000000
vt 1.000000 0.517859 0.000000
vt 1.000000 0.000000 0.000000
vt 1.000000 0.000000 0.000000
vt 1.000000 1.000000 0.000000
vt 1.000000 1.000000 0.000000
vt 0.315899 0.000000 0.000000
vt 0.315899 0.000000 0.000000
vt 0.315899 0.517859 0.000000
vt 0.315899 0.517859 0.000000
vt 0.315899 0.517859 0.000000
vt 0.315899 0.517859 0.000000
vt 0.315899 1.000000 0.000000
vt 0.315899 1.000000 0.000000
vt 0.315899 1.000000 0.000000
vt 0.315899 1.000000 0.000000
vt 1.000000 0.517859 0.000000
vt 1.000000 0.517859 0.000000
vt 1.000000 0.517859 0.000000
vt 1.000000 0.517859 0.000000
vt 1.000000 0.000000 0.000000
vt 1.000000 0.000000 0.000000
vt 1.000000 0.000000 0.000000
vt 1.000000 0.000000 0.000000
vt 1.000000 1.000000 0.000000
vt 1.000000 1.000000 0.000000
vt 1.000000 1.000000 0.000000
vt 1.000000 1.000000 0.000000
vt 0.315899 0.000000 0.000000
vt 0.315899 0.000000 0.000000
vt 0.315899 0.000000 0.000000
vt 0.315899 0.000000 0.000000
vt 0.315899 0.517859 0.000000
vt 0.315899 0.517859 0.000000
vt 0.315899 1.000000 0.000000
vt 0.315899 1.000000 0.000000
vt 1.000000 0.517859 0.000000
vt 1.000000 0.517859 0.000000
vt 1.000000 0.000000 0.000000
vt 1.000000 0.000000 0.000000
vt 1.000000 1.000000 0.000000
vt 1.000000 1.000000 0.000000
vt 0.315899 0.000000 0.000000
vt 0.315899 0.000000 0.000000
vt 1.000000 0.517859 0.000000
vt 1.000000 0.517859 0.000000
vt 1.000000 0.517859 0.000000
vt 1.000000 0.517859 0.000000
vt 1.000000 0.000000 0.000000
vt 1.000000 0.000000 0.000000
vt 1.000000 0.000000 0.000000
vt 1.000000 0.000000 0.000000
vt 0.315899 0.517859 0.000000
vt 0.315899 0.517859 0.000000
vt 0.000000 0.517859 0.000000
vt 0.000000 0.517859 0.000000
vt 0.315899 1.000000 0.000000
vt 0.315899 1.000000 0.000000
vt 0.000000 1.000000 0.000000
vt 0.000000 1.000000 0.000000
vt 0.315899 1.000000 0.000000
vt 0.315899 1.000000 0.000000
vt 0.000000 0.000000 0.000000
vt 0.000000 0.000000 0.000000
vt 0.315899 0.000000 0.000000
vt 0.315899 0.000000 0.000000
vt 0.315899 0.000000 0.000000
vt 0.315899 0.000000 0.000000
vt 1.000000 1.000000 0.000000
vt 1.000000 1.000000 0.000000
vt 1.000000 1.000000 0.000000
vt 1.000000 1.000000 0.000000
vt 0.315899 0.517859 0.000000
vt 0.315899 0.517859 0.000000
vt 0.315899 1.000000 0.000000
vt 0.315899 1.000000 0.000000
vt 1.000000 0.000000 0.000000
vt 1.000000 0.000000 0.000000
vt 0.315899 0.000000 0.000000
vt 0.315899 0.000000 0.000000
vt 1.000000 0.517859 0.000000
vt 1.000000 0.517859 0.000000
vt 1.000000 1.000000 0.000000
vt 1.000000 1.000000 0.000000
vt 0.880535 1.000000 0.000000
vt 0.782318 1.000000 0.000000
vt 0.000000 1.000000 0.000000
vt 0.000000 1.000000 0.000000
vt 0.555033 1.000000 0.000000
vt 0.444967 1.000000 0.000000
vt 0.000000 1.000000 0.000000
vt 0.000000 1.000000 0.000000
vt 0.315899 1.000000 0.000000
vt 0.315899 1.000000 0.000000
vt 0.000000 0.517859 0.000000
vt 0.000000 0.517859 0.000000
vt 0.000000 0.517859 0.000000
vt 0.000000 0.517859 0.000000
vt 0.315899 0.000000 0.000000
vt 0.315899 0.000000 0.000000
vt 0.000000 0.000000 0.000000
vt 0.000000 0.000000 0.000000
vt 0.555033 1.000000 0.000000
vt 0.555033 0.000000 0.000000
vt 0.000000 0.000000 0.000000
vt 0.000000 0.000000 0.000000
vt 0.119465 1.000000 0.000000
vt 0.217682 1.000000 0.000000
vt 0.000000 0.517859 0.000000
vt 0.482141 0.348871 0.000000
vt 1.000000 0.348871 0.000000
vt 0.000000 0.348871 0.000000
vt 0.000000 1.000000 0.000000
vt 0.943491 1.000000 0.000000
vt 0.056509 1.000000 0.000000
vt 0.000000 0.000000 0.000000
vt 1.000000 0.348871 0.000000
vt 0.000000 0.348871 0.000000
vt 1.000000 0.000000 0.000000
vt 0.000000 0.000000 0.000000
vt 1.000000 1.000000 0.000000
vt 0.000000 1.000000 0.000000
vt 0.000000 0.000000 0.000000
vt 1.000000 0.000000 0.000000
vt 0.000000 1.000000 0.000000
vt 1.000000 1.000000 0.000000
vt 0.000000 0.000000 0.000000
vt 1.000000 0.000000 0.000000
vt 0.000000 1.000000 0.000000
vt 1.000000 1.000000 0.000000
vt 0.000000 0.000000 0.000000
vt 1.000000 0.000000 0.000000
vt 0.000000 1.000000 0.000000
vt 1.000000 1.000000 0.000000
vt 0.000000 0.000000 0.000000
vt 1.000000 0.000000 0.000000
vt 0.000000 1.000000 0.000000
vt 1.000000 1.000000 0.000000
vt 0.000000 0.000000 0.000000
vt 1.000000 0.000000 0.000000
vt 0.000000 1.000000 0.000000
vt 1.000000 1.000000 0.000000
vt 1.000000 0.000000 0.000000
vt 1.000000 1.000000 0.000000
vt 0.000000 1.000000 0.000000
vt 0.000000 0.000000 0.000000
vt 0.000000 0.000000 0.000000
vt 0.000000 1.000000 0.000000
vt 0.315899 0.000000 0.000000
vt 0.315899 0.000000 0.000000
vt 0.315899 1.000000 0.000000
vt 0.315899 1.000000 0.000000
vt 0.315899 1.000000 0.000000
vt 0.684101 1.000000 0.000000
vt 0.315899 1.000000 0.000000
vt 0.315899 0.000000 0.000000
vt 1.000000 0.000000 0.000000
vt 1.000000 1.000000 0.000000
vt 0.315899 1.000000 0.000000
vt 0.315899 0.000000 0.000000
vt 1.000000 0.000000 0.000000
vt 1.000000 1.000000 0.000000
vt 0.315899 1.000000 0.000000
vt 1.000000 1.000000 0.000000
vt 1.000000 0.000000 0.000000
vt 0.315899 0.000000 0.000000
vt 0.315899 0.000000 0.000000
vt 0.315899 1.000000 0.000000
vt 1.000000 1.000000 0.000000
vt 1.000000 0.000000 0.000000
vt 1.000000 0.000000 0.000000
vt 1.000000 1.000000 0.000000
vt 0.315899 1.000000 0.000000
vt 0.315899 0.000000 0.000000
vt 0.315899 0.000000 0.000000
vt 0.315899 0.000000 0.000000
vt 0.315899 0.000000 0.000000
vt 1.000000 0.000000 0.000000
vt 1.000000 0.000000 0.000000
vt 1.000000 0.000000 0.000000
vt 0.543932 1.000000 0.000000
vt 0.771966 1.000000 0.000000
vt 0.771966 1.000000 0.000000
vt 0.543932 1.000000 0.000000
vt 0.315899 0.500000 0.000000
vt 1.000000 0.500000 0.000000
vt 1.000000 0.500000 0.000000
vt 0.315899 0.500000 0.000000
vt 0.315899 0.500000 0.000000
vt 0.315899 0.000000 0.000000
vt 0.315899 0.000000 0.000000
vt 1.000000 0.000000 0.000000
vt 1.000000 0.000000 0.000000
vt 1.000000 0.500000 0.000000
vt 1.000000 1.000000 0.000000
vt 0.771966 1.000000 0.000000
vt 0.543932 1.000000 0.000000
vt 0.315899 1.000000 0.000000
vt 0.315899 0.500000 0.000000
vt 0.315899 0.000000 0.000000
vt 0.315899 0.000000 0.000000
vt 1.000000 0.000000 0.000000
vt 1.000000 0.000000 0.000000
vt 1.000000 0.500000 0.000000
vt 1.000000 1.000000 0.000000
vt 0.771966 1.000000 0.000000
vt 0.543932 1.000000 0.000000
vt 0.315899 1.000000 0.000000
vt 0.315899 0.500000 0.000000
vt 0.315899 0.000000 0.000000
vt 0.315899 0.000000 0.000000
vt 1.000000 0.000000 0.000000
vt 1.000000 0.000000 0.000000
vt 1.000000 0.500000 0.000000
vt 1.000000 1.000000 0.000000
vt 0.771966 1.000000 0.000000
vt 0.543932 1.000000 0.000000
vt 0.315899 1.000000 0.000000
vt 0.315899 0.500000 0.000000
vt 0.315899 0.000000 0.000000
vt 0.315899 0.000000 0.000000
vt 1.000000 0.000000 0.000000
vt 1.000000 0.000000 0.000000
vt 1.000000 0.500000 0.000000
vt 1.000000 1.000000 0.000000
vt 0.771966 1.000000 0.000000
vt 0.543932 1.000000 0.000000
vt 0.315899 1.000000 0.000000
vt 0.315899 0.500000 0.000000
vt 0.315899 0.000000 0.000000
vt 0.315899 0.000000 0.000000
vt 1.000000 0.000000 0.000000
vt 1.000000 0.000000 0.000000
vt 1.000000 0.500000 0.000000
vt 1.000000 1.000000 0.000000
vt 0.771966 1.000000 0.000000
vt 0.543932 1.000000 0.000000
vt 0.315899 1.000000 0.000000
vt 0.315899 1.000000 0.000000
vt 0.315899 0.000000 0.000000
vt 1.000000 0.000000 0.000000
vt 1.000000 1.000000 0.000000
vt 0.315899 1.000000 0.000000
vt 0.315899 0.000000 0.000000
vt 1.000000 0.000000 0.000000
vt 1.000000 1.000000 0.000000
vt 0.315899 1.000000 0.000000
vt 0.315899 0.000000 0.000000
vt 1.000000 0.000000 0.000000
vt 1.000000 1.000000 0.000000
vt 0.315899 1.000000 0.000000
vt 0.315899 0.000000 0.000000
vt 1.000000 1.000000 0.000000
vt 0.315899 1.000000 0.000000
vt 0.315899 0.000000 0.000000
vt 1.000000 0.000000 0.000000
vt 1.000000 1.000000 0.000000
vt 0.315899 1.000000 0.000000
vt 0.315899 0.000000 0.000000
vt 1.000000 0.000000 0.000000
vt 1.000000 1.000000 0.000000
vt 0.315899 1.000000 0.000000
vt 0.315899 0.000000 0.000000
vt 1.000000 0.000000 0.000000
vt 1.000000 1.000000 0.000000
vt 0.315899 1.000000 0.000000
vt 0.315899 0.000000 0.000000
vt 1.000000 0.000000 0.000000
vt 1.000000 1.000000 0.000000
vt 0.315899 1.000000 0.000000
vt 0.315899 0.000000 0.000000
vt 1.000000 0.000000 0.000000
vt 1.000000 1.000000 0.000000
vt 0.315899 1.000000 0.000000
vt 0.315899 0.000000 0.000000
vt 1.000000 0.000000 0.000000
vt 1.000000 1.000000 0.000000
vt 0.315899 1.000000 0.000000
vt 0.315899 0.000000 0.000000
vt 1.000000 0.000000 0.000000
vt 1.000000 1.000000 0.000000
vt 0.315899 1.000000 0.000000
vt 0.315899 0.000000 0.000000
vt 1.000000 0.000000 0.000000
vt 1.000000 1.000000 0.000000
vt 0.315899 0.517859 0.000000
vt 1.000000 0.517859 0.000000
vt 1.000000 0.517859 0.000000
vt 1.000000 0.517859 0.000000
vt 1.000000 0.517859 0.000000
vt 1.000000 0.517859 0.000000
vt 1.000000 0.517859 0.000000
vt 1.000000 0.517859 0.000000
vt 1.000000 0.517859 0.000000
vt 1.000000 0.517859 0.000000
vt 1.000000 0.517859 0.000000
vt 1.000000 0.517859 0.000000
vt 1.000000 0.517859 0.000000
vt 1.000000 0.517859 0.000000
vt 1.000000 0.258929 0.000000
vt 1.000000 0.258929 0.000000
vt 1.000000 0.258929 0.000000
vt 1.000000 0.258929 0.000000
vt 1.000000 0.258929 0.000000
vt 1.000000 0.258929 0.000000
vt 1.000000 0.258929 0.000000
vt 1.000000 0.517859 0.000000
vt 1.000000 0.517859 0.000000
vt 1.000000 0.517859 0.000000
vt 1.000000 0.517859 0.000000
vt 0.517859 1.000000 0.000000
vt 0.000000 0.517859 0.000000
vt 0.517859 0.000000 0.000000
vt 1.000000 0.517859 0.000000
vt 0.482141 0.000000 0.000000
vt 0.000000 0.517859 0.000000
vt 0.482141 1.000000 0.000000
vt 0.000000 0.517859 0.000000
vt 0.315899 0.517859 0.000000
vt 0.000000 0.517859 0.000000
vt 0.315899 0.517859 0.000000
vt 0.315899 0.517859 0.000000
vt 0.315899 0.258929 0.000000
vt 0.315899 0.258929 0.000000
vt 0.315899 0.258929 0.000000
vt 0.315899 0.258929 0.000000
vt 0.315899 0.258929 0.000000
vt 0.315899 0.258929 0.000000
vt 0.315899 0.258929 0.000000
vt 0.315899 0.517859 0.000000
vt 0.315899 0.517859 0.000000
vt 0.315899 0.517859 0.000000
vt 0.315899 0.517859 0.000000
vt 0.315899 0.517859 0.000000
vt 0.315899 0.517859 0.000000
vt 0.315899 0.517859 0.000000
vt 0.315899 0.517859 0.000000
vt 0.315899 0.517859 0.000000
vt 0.315899 0.517859 0.000000
vt 0.315899 0.517859 0.000000
vt 0.315899 0.517859 0.000000
vt 0.315899 0.000000 0.000000
vt 1.000000 0.000000 0.000000
vt 1.000000 0.517859 0.000000
vt 0.315899 0.517859 0.000000
vt 0.315899 1.000000 0.000000
vt 0.315899 1.000000 0.000000
vt 0.315899 0.517859 0.000000
vt 0.315899 0.517859 0.000000
vt 1.000000 0.000000 0.000000
vt 1.000000 0.000000 0.000000
vt 1.000000 0.517859 0.000000
vt 1.000000 0.517859 0.000000
vt 1.000000 1.000000 0.000000
vt 1.000000 1.000000 0.000000
vt 0.315899 0.000000 0.000000
vt 0.315899 0.000000 0.000000
vt 0.315899 0.517859 0.000000
vt 0.315899 0.517859 0.000000
vt 0.315899 1.000000 0.000000
vt 0.315899 1.000000 0.000000
vt 1.000000 0.517859 0.000000
vt 1.000000 0.517859 0.000000
vt 1.000000 0.000000 0.000000
vt 1.000000 0.000000 0.000000
vt 1.000000 1.000000 0.000000
vt 1.000000 1.000000 0.000000
vt 0.315899 0.000000 0.000000
vt 0.315899 0.000000 0.000000
vt 0.315899 0.517859 0.000000
vt 0.315899 0.517859 0.000000
vt 0.315899 0.517859 0.000000
vt 0.315899 0.517859 0.000000
vt 0.315899 1.000000 0.000000
vt 0.315899 1.000000 0.000000
vt 0.315899 1.000000 0.000000
vt 0.315899 1.000000 0.000000
vt 1.000000 0.517859 0.000000
vt 1.000000 0.517859 0.000000
vt 1.000000 0.517859 0.000000
vt 1.000000 0.517859 0.000000
vt 1.000000 0.000000 0.000000
vt 1.000000 0.000000 0.000000
vt 1.000000 0.000000 0.000000
vt 1.000000 0.000000 0.000000
vt 1.000000 1.000000 0.000000
vt 1.000000 1.000000 0.000000
vt 1.000000 1.000000 0.000000
vt 1.000000 1.000000 0.000000
vt 0.315899 0.000000 0.000000
vt 0.315899 0.000000 0.000000
vt 0.315899 0.000000 0.000000
vt 0.315899 0.000000 0.000000
vt 0.315899 0.517859 0.000000
vt 0.315899 0.517859 0.000000
vt 0.315899 1.000000 0.000000
vt 0.315899 1.000000 0.000000
vt 1.000000 0.517859 0.000000
vt 1.000000 0.517859 0.000000
vt 1.000000 0.000000 0.000000
vt 1.000000 0.000000 0.000000
vt 1.000000 1.000000 0.000000
vt 1.000000 1.000000 0.000000
vt 0.315899 0.000000 0.000000
vt 0.315899 0.000000 0.000000
vt 1.000000 0.517859 0.000000
vt 1.000000 0.517859 0.000000
vt 1.000000 0.517859 0.000000
vt 1.000000 0.517859 0.000000
vt 1.000000 0.000000 0.000000
vt 1.000000 0.000000 0.000000
vt 1.000000 0.000000 0.000000
vt 1.000000 0.000000 0.000000
vt 0.315899 0.517859 0.000000
vt 0.315899 0.517859 0.000000
vt 0.000000 0.517859 0.000000
vt 0.000000 0.517859 0.000000
vt 0.315899 1.000000 0.000000
vt 0.315899 1.000000 0.000000
vt 0.000000 1.000000 0.000000
vt 0.000000 1.000000 0.000000
vt 0.315899 1.000000 0.000000
vt 0.315899 1.000000 0.000000
vt 0.000000 0.000000 0.000000
vt 0.000000 0.000000 0.000000
vt 0.315899 0.000000 0.000000
vt 0.315899 0.000000 0.000000
vt 0.315899 0.000000 0.000000
vt 0.315899 0.000000 0.000000
vt 1.000000 1.000000 0.000000
vt 1.000000 1.000000 0.000000
vt 1.000000 1.000000 0.000000
vt 1.000000 1.000000 0.000000
vt 0.315899 0.517859 0.000000
vt 0.315899 0.517859 0.000000
vt 0.315899 1.000000 0.000000
vt 0.315899 1.000000 0.000000
vt 1.000000 0.000000 0.000000
vt 1.000000 0.000000 0.000000
vt 0.315899 0.000000 0.000000
vt 0.315899 0.000000 0.000000
vt 1.000000 0.517859 0.000000
vt 1.000000 0.517859 0.000000
vt 1.000000 1.000000 0.000000
vt 1.000000 1.000000 0.000000
vt 0.880535 1.000000 0.000000
vt 0.782318 1.000000 0.000000
vt 0.000000 1.000000 0.000000
vt 0.000000 1.000000 0.000000
vt 0.555033 1.000000 0.000000
vt 0.444967 1.000000 0.000000
vt 0.000000 1.000000 0.000000
vt 0.000000 1.000000 0.000000
vt 0.315899 1.000000 0.000000
vt 0.315899 1.000000 0.000000
vt 0.000000 0.517859 0.000000
vt 0.000000 0.517859 0.000000
vt 0.000000 0.517859 0.000000
vt 0.000000 0.517859 0.000000
vt 0.315899 0.000000 0.000000
vt 0.315899 0.000000 0.000000
vt 0.000000 0.000000 0.000000
vt 0.000000 0.000000 0.000000
vt 0.555033 1.000000 0.000000
vt 0.555033 0.000000 0.000000
vt 0.000000 0.000000 0.000000
vt 0.000000 0.000000 0.000000
vt 0.119465 1.000000 0.000000
vt 0.217682 1.000000 0.000000
vt 0.000000 0.517859 0.000000
vt 0.482141 0.348871 0.000000
vt 1.000000 0.348871 0.000000
vt 0.000000 0.348871 0.000000
vt 0.000000 1.000000 0.000000
vt 0.943491 1.000000 0.000000
vt 0.056509 1.000000 0.000000
vt 0.000000 0.000000 0.000000
vt 1.000000 0.348871 0.000000
vt 0.000000 0.348871 0.000000
# 722 texture coords

o statue
g statue
f 1/1 139/197 138/195 2/2 
f 2/13 138/196 137/194 5/15 
f 3/21 139/198 310/353 312/355 
f 5/6 137/193 246/290 249/292 
f 295/334 298/338 256/298 259/302 
f 313/356 309/352 300/340 292/330 
f 264/308 303/342 305/347 5/6 249/292 
f 115/165 119/169 120/170 118/168 
f 294/332 295/336 259/300 269/312 6/8 
f 261/304 254/296 275/317 277/318 
f 266/310 251/294 281/321 283/322 
f 251/294 244/288 287/325 281/321 
f 271/314 261/304 277/318 289/326 
f 278/319 274/316 140/205 11/45 
f 284/323 280/320 13/47 14/48 
f 280/320 286/324 136/190 13/47 
f 290/327 278/319 11/45 12/46 
f 22/56 15/49 142/207 141/206 
f 20/54 17/51 34/68 35/69 
f 21/55 16/50 29/63 32/66 
f 8/42 148/213 147/212 78/112 
f 13/47 136/190 135/189 19/53 
f 15/49 22/56 24/58 23/57 
f 22/56 14/48 25/59 24/58 
f 14/48 13/47 26/60 25/59 
f 13/47 19/53 27/61 26/60 
f 19/53 18/52 28/62 27/61 
f 29/63 30/64 31/65 32/66 
f 7/41 10/44 84/118 85/119 
f 11/45 36/70 21/55 32/66 
f 12/46 11/45 32/66 31/65 
f 30/64 17/51 20/54 31/65 
f 10/44 82/116 83/117 84/118 
f 33/67 16/50 21/55 36/70 
f 34/68 134/188 135/189 35/69 
f 11/45 140/205 141/206 36/70 
f 7/41 85/119 86/120 77/111 
f 10/44 128/182 129/183 82/116 
f 12/46 31/65 20/54 35/69 
f 33/67 142/207 143/208 37/71 
f 15/49 23/57 39/73 38/72 
f 28/62 18/52 41/75 40/74 
f 18/52 134/188 133/187 41/75 
f 34/68 17/51 43/77 42/76 
f 17/51 30/64 44/78 43/77 
f 30/64 29/63 45/79 44/78 
f 29/63 16/50 46/80 45/79 
f 16/50 33/67 37/71 46/80 
f 37/71 143/208 144/209 47/81 
f 38/72 39/73 49/83 48/82 
f 40/74 41/75 51/85 50/84 
f 41/75 133/187 132/186 51/85 
f 42/76 43/77 53/87 52/86 
f 43/77 44/78 54/88 53/87 
f 44/78 45/79 55/89 54/88 
f 45/79 46/80 56/90 55/89 
f 46/80 37/71 47/81 56/90 
f 47/81 144/209 145/210 57/91 
f 48/82 49/83 59/93 58/92 
f 50/84 51/85 61/95 60/94 
f 51/85 132/186 131/185 61/95 
f 52/86 53/87 63/97 62/96 
f 53/87 54/88 64/98 63/97 
f 54/88 55/89 65/99 64/98 
f 55/89 56/90 66/100 65/99 
f 56/90 47/81 57/91 66/100 
f 57/91 145/210 146/211 67/101 
f 58/92 59/93 69/103 68/102 
f 60/94 61/95 71/105 70/104 
f 61/95 131/185 130/184 71/105 
f 62/96 63/97 73/107 72/106 
f 63/97 64/98 74/108 73/107 
f 64/98 65/99 75/109 74/108 
f 65/99 66/100 76/110 75/109 
f 66/100 57/91 67/101 76/110 
f 67/101 146/211 147/212 77/111 
f 68/102 69/103 79/113 78/112 
f 70/104 71/105 81/115 80/114 
f 71/105 130/184 129/183 81/115 
f 72/106 73/107 83/117 82/116 
f 73/107 74/108 84/118 83/117 
f 74/108 75/109 85/119 84/118 
f 75/109 76/110 86/120 85/119 
f 76/110 67/101 77/111 86/120 
f 7/41 148/213 149/214 87/121 
f 9/43 128/182 127/181 89/123 
f 10/44 7/41 87/121 90/124 
f 87/121 149/214 179/241 181/242 
f 89/123 127/181 185/245 188/247 
f 182/243 178/240 165/232 161/229 
f 187/246 184/244 170/235 167/233 
f 191/249 182/243 161/229 172/236 
f 162/230 164/231 150/217 91/133 
f 169/234 126/178 93/135 
f 173/237 162/230 91/133 94/136 
f 91/133 150/217 151/218 95/137 
f 93/135 126/178 125/177 97/139 
f 94/136 91/133 95/137 98/140 
f 95/137 151/218 198/254 201/256 
f 97/139 125/177 208/262 213/266 
f 98/140 95/137 201/256 216/268 
f 203/258 196/252 152/220 99/145 
f 211/264 206/260 124/175 101/147 
f 218/270 203/258 99/145 102/148 
f 99/145 152/220 153/221 103/149 
f 101/147 124/175 123/174 105/151 
f 102/148 99/145 103/149 106/152 
f 103/149 153/221 154/222 107/153 
f 105/151 123/174 122/173 109/155 
f 106/152 103/149 107/153 110/156 
f 107/153 154/222 227/277 229/278 
f 109/155 122/173 233/281 236/283 
f 110/156 107/153 229/278 238/284 
f 230/279 226/276 155/224 111/161 
f 235/282 232/280 121/171 113/163 
f 239/285 230/279 111/161 114/164 
f 111/161 155/224 119/169 115/165 
f 113/163 121/171 120/170 117/167 
f 114/164 111/161 115/165 118/168 
f 139/197 3/3 4/4 138/195 
f 138/196 4/14 6/16 137/194 
f 139/198 1/22 316/360 310/353 
f 137/193 6/8 269/312 246/290 
f 298/338 303/344 264/306 256/298 
f 309/352 315/359 306/348 300/340 
f 159/228 156/225 157/226 158/227 
f 254/296 266/310 283/322 275/317 
f 244/288 271/314 289/326 287/325 
f 274/316 284/323 14/48 140/205 
f 286/324 290/327 12/46 136/190 
f 142/207 33/67 36/70 141/206 
f 148/213 7/41 77/111 147/212 
f 136/190 12/46 35/69 135/189 
f 134/188 18/52 19/53 135/189 
f 140/205 14/48 22/56 141/206 
f 128/182 9/43 81/115 129/183 
f 142/207 15/49 38/72 143/208 
f 134/188 34/68 42/76 133/187 
f 143/208 38/72 48/82 144/209 
f 133/187 42/76 52/86 132/186 
f 144/209 48/82 58/92 145/210 
f 132/186 52/86 62/96 131/185 
f 145/210 58/92 68/102 146/211 
f 131/185 62/96 72/106 130/184 
f 146/211 68/102 78/112 147/212 
f 130/184 72/106 82/116 129/183 
f 148/213 8/42 88/122 149/214 
f 128/182 10/44 90/124 127/181 
f 149/214 88/122 193/250 179/241 
f 127/181 90/124 190/248 185/245 
f 178/240 194/251 175/238 165/232 
f 184/244 191/249 172/236 170/235 
f 164/231 176/239 92/134 150/217 
f 169/234 173/237 94/136 126/178 
f 150/217 92/134 96/138 151/218 
f 126/178 94/136 98/140 125/177 
f 151/218 96/138 221/272 198/254 
f 125/177 98/140 216/268 208/262 
f 196/252 223/274 100/146 152/220 
f 206/260 218/270 102/148 124/175 
f 152/220 100/146 104/150 153/221 
f 124/175 102/148 106/152 123/174 
f 153/221 104/150 108/154 154/222 
f 123/174 106/152 110/156 122/173 
f 154/222 108/154 241/286 227/277 
f 122/173 110/156 238/284 233/281 
f 226/276 242/287 112/162 155/224 
f 232/280 239/285 114/164 121/171 
f 155/224 112/162 116/166 119/169 
f 121/171 114/164 118/168 120/170 
f 90/124 87/121 181/242 190/248 
f 9/43 80/114 81/115 
f 305/346 306/350 315/358 314/11 316/361 1/9 2/10 5/12 
f 292/328 294/333 6/19 4/17 3/18 312/354 311/20 313/357 
f 117/167 120/170 158/227 157/226 
f 120/170 119/169 159/228 158/227 
f 119/169 116/166 156/225 159/228 
f 8/42 78/112 79/113 
f 161/229 165/232 163/216 160/129 
f 167/233 170/235 168/179 166/131 
f 172/236 161/229 160/129 171/132 
f 164/231 162/230 160/129 163/216 
f 169/234 93/135 166/131 168/179 
f 162/230 173/237 171/132 160/129 
f 165/232 175/238 174/130 163/216 
f 170/235 172/236 171/132 168/179 
f 176/239 164/231 163/216 174/130 
f 173/237 169/234 168/179 171/132 
f 181/242 179/241 177/215 180/125 
f 188/247 185/245 183/180 186/127 
f 178/240 182/243 180/125 177/215 
f 184/244 187/246 186/127 183/180 
f 182/243 191/249 189/128 180/125 
f 179/241 193/250 192/126 177/215 
f 185/245 190/248 189/128 183/180 
f 194/251 178/240 177/215 192/126 
f 191/249 184/244 183/180 189/128 
f 190/248 181/242 180/125 189/128 
f 201/256 198/254 199/255 202/257 
f 202/257 199/255 195/219 200/141 
f 213/266 208/262 209/263 214/267 
f 214/267 209/263 205/176 210/143 
f 216/268 201/256 202/257 217/269 
f 217/269 202/257 200/141 215/144 
f 196/252 203/258 204/259 197/253 
f 197/253 204/259 200/141 195/219 
f 206/260 211/264 212/265 207/261 
f 207/261 212/265 210/143 205/176 
f 203/258 218/270 219/271 204/259 
f 204/259 219/271 215/144 200/141 
f 198/254 221/272 222/273 199/255 
f 199/255 222/273 220/142 195/219 
f 208/262 216/268 217/269 209/263 
f 209/263 217/269 215/144 205/176 
f 223/274 196/252 197/253 224/275 
f 224/275 197/253 195/219 220/142 
f 218/270 206/260 207/261 219/271 
f 219/271 207/261 205/176 215/144 
f 229/278 227/277 225/223 228/157 
f 236/283 233/281 231/172 234/159 
f 238/284 229/278 228/157 237/160 
f 226/276 230/279 228/157 225/223 
f 232/280 235/282 234/159 231/172 
f 230/279 239/285 237/160 228/157 
f 227/277 241/286 240/158 225/223 
f 233/281 238/284 237/160 231/172 
f 242/287 226/276 225/223 240/158 
f 239/285 232/280 231/172 237/160 
f 249/292 246/290 247/291 250/293 
f 250/293 247/291 243/192 248/25 
f 259/302 256/298 257/299 260/303 
f 260/303 257/299 253/203 258/30 
f 264/308 249/292 250/293 265/309 
f 265/309 250/293 248/25 263/31 
f 269/312 259/300 260/301 270/313 
f 270/313 260/301 258/34 268/26 
f 254/296 261/304 262/305 255/297 
f 255/297 262/305 258/34 253/202 
f 251/294 266/310 267/311 252/295 
f 252/295 267/311 263/31 248/25 
f 244/288 251/294 252/295 245/289 
f 245/289 252/295 248/25 243/192 
f 261/304 271/314 272/315 262/305 
f 262/305 272/315 268/26 258/34 
f 246/290 269/312 270/313 247/291 
f 247/291 270/313 268/26 243/192 
f 256/298 264/306 265/307 257/299 
f 257/299 265/307 263/29 253/203 
f 266/310 254/296 255/297 267/311 
f 267/311 255/297 253/202 263/31 
f 271/314 244/288 245/289 272/315 
f 272/315 245/289 243/192 268/26 
f 277/318 275/317 273/204 276/37 
f 283/322 281/321 279/39 282/38 
f 281/321 287/325 285/191 279/39 
f 289/326 277/318 276/37 288/40 
f 274/316 278/319 276/37 273/204 
f 280/320 284/323 282/38 279/39 
f 286/324 280/320 279/39 285/191 
f 278/319 290/327 288/40 276/37 
f 275/317 283/322 282/38 273/204 
f 287/325 289/326 288/40 285/191 
f 284/323 274/316 273/204 282/38 
f 290/327 286/324 285/191 288/40 
f 303/342 304/343 302/32 305/347 
f 294/332 291/33 296/337 295/336 
f 305/346 302/35 307/351 306/350 
f 292/328 293/329 291/36 294/333 
f 298/338 295/334 296/335 299/339 
f 299/339 296/335 291/27 297/201 
f 292/330 300/340 301/341 293/331 
f 293/331 301/341 297/201 291/27 
f 303/344 298/338 299/339 304/345 
f 304/345 299/339 297/201 302/28 
f 300/340 306/348 307/349 301/341 
f 301/341 307/349 302/28 297/201 
f 312/355 310/353 308/200 311/23 
f 309/352 313/356 311/7 308/199 
f 310/353 316/360 314/24 308/200 
f 315/359 309/352 308/199 314/5 
f 317/362 318/363 453/555 454/557 
f 318/374 321/376 452/554 453/556 
f 319/382 628/716 626/714 454/558 
f 321/367 565/653 562/651 452/553 
f 611/695 575/663 572/659 614/699 
f 629/717 608/691 616/701 625/713 
f 580/669 565/653 321/367 621/708 619/703 
f 430/525 433/528 435/530 434/529 
f 610/693 322/369 585/673 575/661 611/697 
f 577/665 593/679 591/678 570/657 
f 582/671 599/683 597/682 567/655 
f 567/655 597/682 603/686 560/649 
f 587/675 605/687 593/679 577/665 
f 594/680 327/406 455/565 590/677 
f 600/684 330/409 329/408 596/681 
f 596/681 329/408 451/550 602/685 
f 606/688 328/407 327/406 594/680 
f 338/417 456/566 457/567 331/410 
f 336/415 351/430 350/429 333/412 
f 337/416 348/427 345/424 332/411 
f 324/403 394/473 462/572 463/573 
f 329/408 335/414 450/549 451/550 
f 331/410 339/418 340/419 338/417 
f 338/417 340/419 341/420 330/409 
f 330/409 341/420 342/421 329/408 
f 329/408 342/421 343/422 335/414 
f 335/414 343/422 344/423 334/413 
f 345/424 348/427 347/426 346/425 
f 323/402 401/480 400/479 326/405 
f 327/406 348/427 337/416 352/431 
f 328/407 347/426 348/427 327/406 
f 346/425 347/426 336/415 333/412 
f 326/405 400/479 399/478 398/477 
f 349/428 352/431 337/416 332/411 
f 350/429 351/430 450/549 449/548 
f 327/406 352/431 456/566 455/565 
f 323/402 393/472 402/481 401/480 
f 326/405 398/477 444/543 443/542 
f 328/407 351/430 336/415 347/426 
f 349/428 353/432 458/568 457/567 
f 331/410 354/433 355/434 339/418 
f 344/423 356/435 357/436 334/413 
f 334/413 357/436 448/547 449/548 
f 350/429 358/437 359/438 333/412 
f 333/412 359/438 360/439 346/425 
f 346/425 360/439 361/440 345/424 
f 345/424 361/440 362/441 332/411 
f 332/411 362/441 353/432 349/428 
f 353/432 363/442 459/569 458/568 
f 354/433 364/443 365/444 355/434 
f 356/435 366/445 367/446 357/436 
f 357/436 367/446 447/546 448/547 
f 358/437 368/447 369/448 359/438 
f 359/438 369/448 370/449 360/439 
f 360/439 370/449 371/450 361/440 
f 361/440 371/450 372/451 362/441 
f 362/441 372/451 363/442 353/432 
f 363/442 373/452 460/570 459/569 
f 364/443 374/453 375/454 365/444 
f 366/445 376/455 377/456 367/446 
f 367/446 377/456 446/545 447/546 
f 368/447 378/457 379/458 369/448 
f 369/448 379/458 380/459 370/449 
f 370/449 380/459 381/460 371/450 
f 371/450 381/460 382/461 372/451 
f 372/451 382/461 373/452 363/442 
f 373/452 383/462 461/571 460/570 
f 374/453 384/463 385/464 375/454 
f 376/455 386/465 387/466 377/456 
f 377/456 387/466 445/544 446/545 
f 378/457 388/467 389/468 379/458 
f 379/458 389/468 390/469 380/459 
f 380/459 390/469 391/470 381/460 
f 381/460 391/470 392/471 382/461 
f 382/461 392/471 383/462 373/452 
f 383/462 393/472 462/572 461/571 
f 384/463 394/473 395/474 385/464 
f 386/465 396/475 397/476 387/466 
f 387/466 397/476 444/543 445/544 
f 388/467 398/477 399/478 389/468 
f 389/468 399/478 400/479 390/469 
f 390/469 400/479 401/480 391/470 
f 391/470 401/480 402/481 392/471 
f 392/471 402/481 393/472 383/462 
f 323/402 403/482 464/574 463/573 
f 325/404 405/484 442/541 443/542 
f 326/405 406/485 403/482 323/402 
f 403/482 497/603 495/602 464/574 
f 405/484 504/608 501/606 442/541 
f 498/604 476/589 480/592 494/601 
f 503/607 483/594 486/596 500/605 
f 507/610 488/597 476/589 498/604 
f 477/590 407/494 465/577 479/591 
f 482/593 441/538 485/595 
f 489/598 409/496 407/494 477/590 
f 407/494 410/497 466/578 465/577 
f 482/593 412/499 440/537 441/538 
f 409/496 413/500 410/497 407/494 
f 410/497 517/617 514/615 466/578 
f 412/499 529/627 524/623 440/537 
f 413/500 532/629 517/617 410/497 
f 519/619 414/505 467/580 512/613 
f 527/625 416/507 439/535 522/621 
f 534/631 417/508 414/505 519/619 
f 414/505 418/509 468/581 467/580 
f 416/507 420/511 438/534 439/535 
f 417/508 421/512 418/509 414/505 
f 418/509 422/513 469/582 468/581 
f 420/511 424/515 437/533 438/534 
f 421/512 425/516 422/513 418/509 
f 422/513 545/639 543/638 469/582 
f 424/515 552/644 549/642 437/533 
f 425/516 554/645 545/639 422/513 
f 546/640 426/521 470/584 542/637 
f 551/643 428/523 436/531 548/641 
f 555/646 429/524 426/521 546/640 
f 426/521 430/525 434/529 470/584 
f 428/523 432/527 435/530 436/531 
f 429/524 433/528 430/525 426/521 
f 454/557 453/555 320/365 319/364 
f 453/556 452/554 322/377 320/375 
f 454/558 626/714 632/721 317/383 
f 452/553 562/651 585/673 322/369 
f 614/699 572/659 580/667 619/705 
f 625/713 616/701 622/709 631/720 
f 474/588 473/587 472/586 471/585 
f 570/657 591/678 599/683 582/671 
f 560/649 603/686 605/687 587/675 
f 590/677 455/565 330/409 600/684 
f 602/685 451/550 328/407 606/688 
f 457/567 456/566 352/431 349/428 
f 463/573 462/572 393/472 323/402 
f 451/550 450/549 351/430 328/407 
f 449/548 450/549 335/414 334/413 
f 455/565 456/566 338/417 330/409 
f 443/542 444/543 397/476 325/404 
f 457/567 458/568 354/433 331/410 
f 449/548 448/547 358/437 350/429 
f 458/568 459/569 364/443 354/433 
f 448/547 447/546 368/447 358/437 
f 459/569 460/570 374/453 364/443 
f 447/546 446/545 378/457 368/447 
f 460/570 461/571 384/463 374/453 
f 446/545 445/544 388/467 378/457 
f 461/571 462/572 394/473 384/463 
f 445/544 444/543 398/477 388/467 
f 463/573 464/574 404/483 324/403 
f 443/542 442/541 406/485 326/405 
f 464/574 495/602 509/611 404/483 
f 442/541 501/606 506/609 406/485 
f 494/601 480/592 491/599 510/612 
f 500/605 486/596 488/597 507/610 
f 479/591 465/577 408/495 492/600 
f 485/595 441/538 409/496 489/598 
f 465/577 466/578 411/498 408/495 
f 441/538 440/537 413/500 409/496 
f 466/578 514/615 537/633 411/498 
f 440/537 524/623 532/629 413/500 
f 512/613 467/580 415/506 539/635 
f 522/621 439/535 417/508 534/631 
f 467/580 468/581 419/510 415/506 
f 439/535 438/534 421/512 417/508 
f 468/581 469/582 423/514 419/510 
f 438/534 437/533 425/516 421/512 
f 469/582 543/638 557/647 423/514 
f 437/533 549/642 554/645 425/516 
f 542/637 470/584 427/522 558/648 
f 548/641 436/531 429/524 555/646 
f 470/584 434/529 431/526 427/522 
f 436/531 435/530 433/528 429/524 
f 406/485 506/609 497/603 403/482 
f 325/404 397/476 396/475 
f 621/707 321/373 318/371 317/370 632/722 630/372 631/719 622/711 
f 608/689 629/718 627/381 628/715 319/379 320/378 322/380 610/694 
f 432/527 472/586 473/587 435/530 
f 435/530 473/587 474/588 434/529 
f 434/529 474/588 471/585 431/526 
f 324/403 395/474 394/473 
f 476/589 475/490 478/576 480/592 
f 483/594 481/492 484/539 486/596 
f 488/597 487/493 475/490 476/589 
f 479/591 478/576 475/490 477/590 
f 485/595 484/539 481/492 482/593 
f 477/590 475/490 487/493 489/598 
f 480/592 478/576 490/491 491/599 
f 486/596 484/539 487/493 488/597 
f 492/600 490/491 478/576 479/591 
f 489/598 487/493 484/539 485/595 
f 497/603 496/486 493/575 495/602 
f 504/608 502/488 499/540 501/606 
f 494/601 493/575 496/486 498/604 
f 500/605 499/540 502/488 503/607 
f 498/604 496/486 505/489 507/610 
f 495/602 493/575 508/487 509/611 
f 501/606 499/540 505/489 506/609 
f 510/612 508/487 493/575 494/601 
f 507/610 505/489 499/540 500/605 
f 506/609 505/489 496/486 497/603 
f 517/617 518/618 515/616 514/615 
f 518/618 516/501 511/579 515/616 
f 529/627 530/628 525/624 524/623 
f 530/628 526/503 521/536 525/624 
f 532/629 533/630 518/618 517/617 
f 533/630 531/504 516/501 518/618 
f 512/613 513/614 520/620 519/619 
f 513/614 511/579 516/501 520/620 
f 522/621 523/622 528/626 527/625 
f 523/622 521/536 526/503 528/626 
f 519/619 520/620 535/632 534/631 
f 520/620 516/501 531/504 535/632 
f 514/615 515/616 538/634 537/633 
f 515/616 511/579 536/502 538/634 
f 524/623 525/624 533/630 532/629 
f 525/624 521/536 531/504 533/630 
f 539/635 540/636 513/614 512/613 
f 540/636 536/502 511/579 513/614 
f 534/631 535/632 523/622 522/621 
f 535/632 531/504 521/536 523/622 
f 545/639 544/517 541/583 543/638 
f 552/644 550/519 547/532 549/642 
f 554/645 553/520 544/517 545/639 
f 542/637 541/583 544/517 546/640 
f 548/641 547/532 550/519 551/643 
f 546/640 544/517 553/520 555/646 
f 543/638 541/583 556/518 557/647 
f 549/642 547/532 553/520 554/645 
f 558/648 556/518 541/583 542/637 
f 555/646 553/520 547/532 548/641 
f 565/653 566/654 563/652 562/651 
f 566/654 564/386 559/552 563/652 
f 575/663 576/664 573/660 572/659 
f 576/664 574/391 569/563 573/660 
f 580/669 581/670 566/654 565/653 
f 581/670 579/392 564/386 566/654 
f 585/673 586/674 576/662 575/661 
f 586/674 584/387 574/395 576/662 
f 570/657 571/658 578/666 577/665 
f 571/658 569/562 574/395 578/666 
f 567/655 568/656 583/672 582/671 
f 568/656 564/386 579/392 583/672 
f 560/649 561/650 568/656 567/655 
f 561/650 559/552 564/386 568/656 
f 577/665 578/666 588/676 587/675 
f 578/666 574/395 584/387 588/676 
f 562/651 563/652 586/674 585/673 
f 563/652 559/552 584/387 586/674 
f 572/659 573/660 581/668 580/667 
f 573/660 569/563 579/390 581/668 
f 582/671 583/672 571/658 570/657 
f 583/672 579/392 569/562 571/658 
f 587/675 588/676 561/650 560/649 
f 588/676 584/387 559/552 561/650 
f 593/679 592/398 589/564 591/678 
f 599/683 598/399 595/400 597/682 
f 597/682 595/400 601/551 603/686 
f 605/687 604/401 592/398 593/679 
f 590/677 589/564 592/398 594/680 
f 596/681 595/400 598/399 600/684 
f 602/685 601/551 595/400 596/681 
f 594/680 592/398 604/401 606/688 
f 591/678 589/564 598/399 599/683 
f 603/686 601/551 604/401 605/687 
f 600/684 598/399 589/564 590/677 
f 606/688 604/401 601/551 602/685 
f 619/703 621/708 618/393 620/704 
f 610/693 611/697 612/698 607/394 
f 621/707 622/711 623/712 618/396 
f 608/689 610/694 607/397 609/690 
f 614/699 615/700 612/696 611/695 
f 615/700 613/561 607/388 612/696 
f 608/691 609/692 617/702 616/701 
f 609/692 607/388 613/561 617/702 
f 619/705 620/706 615/700 614/699 
f 620/706 618/389 613/561 615/700 
f 616/701 617/702 623/710 622/709 
f 617/702 613/561 618/389 623/710 
f 628/716 627/384 624/560 626/714 
f 625/713 624/559 627/368 629/717 
f 626/714 624/560 630/385 632/721 
f 631/720 630/366 624/559 625/713 
f 341/346 340/345 24/26 25/27 
f 342/347 341/346 25/27 26/28 
f 343/348 342/347 26/28 27/29 
f 339/339 355/355 39/39 23/23 
f 340/340 339/339 23/23 24/24 
f 355/355 365/365 49/49 39/39 
f 365/365 375/375 59/59 49/49 
f 375/375 385/385 69/69 59/59 
f 385/385 395/395 79/79 69/69 
f 395/395 324/324 8/8 79/79 
f 324/324 404/404 88/88 8/8 
f 509/509 508/508 192/193 193/194 
f 404/404 509/509 193/194 88/88 
f 510/510 491/492 175/176 194/195 
f 508/508 510/510 194/195 192/193 
f 492/493 408/408 92/92 176/177 
f 490/491 492/493 176/177 174/175 
f 491/492 490/491 174/175 175/176 
f 408/408 411/412 96/96 92/92 
f 411/412 537/537 221/222 96/96 
f 540/540 539/539 223/224 224/225 
f 536/536 540/540 224/225 220/221 
f 538/538 536/536 220/221 222/223 
f 537/537 538/538 222/223 221/222 
f 539/539 415/416 100/100 223/224 
f 415/416 419/420 104/104 100/100 
f 419/420 423/424 108/108 104/104 
f 556/556 558/558 242/242 240/240 
f 557/557 556/556 240/240 241/241 
f 423/424 557/557 241/241 108/108 
f 427/428 431/432 116/116 112/112 
f 431/432 471/472 156/156 116/116 
f 471/472 472/473 157/157 156/156 
f 472/473 432/433 117/117 157/157 
f 432/433 428/429 113/113 117/117 
f 428/429 551/551 235/235 113/113 
f 551/551 550/550 234/234 235/235 
f 550/550 552/552 236/236 234/234 
f 552/552 424/425 109/109 236/236 
f 424/425 420/421 105/105 109/109 
f 420/421 416/417 101/101 105/105 
f 416/417 527/527 211/212 101/101 
f 527/527 528/528 212/213 211/212 
f 528/528 526/526 210/211 212/213 
f 526/526 530/530 214/215 210/211 
f 530/530 529/529 213/214 214/215 
f 412/413 482/409 93/93 97/97 
f 482/482 481/481 166/166 93/93 
f 481/481 483/483 167/167 166/166 
f 483/483 503/503 187/187 167/167 
f 503/503 502/502 186/186 187/187 
f 502/502 504/504 188/188 186/186 
f 405/405 325/325 9/9 89/89 
f 325/325 396/396 80/80 9/9 
f 396/396 386/386 70/70 80/80 
f 386/386 376/376 60/60 70/70 
f 376/376 366/366 50/50 60/60 
f 366/366 356/356 40/40 50/50 
f 356/356 344/344 28/28 40/40 
f 344/344 343/343 27/27 28/28 
# 614 polygons - 6 triangles

